<svg width="163" height="22" viewBox="0 0 163 22" fill="none" xmlns="http://www.w3.org/2000/svg">
<g clip-path="url(#clip0_3847_2854)">
<path d="M48.127 10.0876C48.334 5.90823 50.5624 3.27906 54.3171 2.19826C56.6684 1.5214 59.2368 3.00973 59.9768 5.32969C60.1617 5.79011 60.2065 6.29473 60.1057 6.78045C60.0048 7.26616 59.7628 7.71144 59.4099 8.0606C59.0574 8.43237 58.5978 8.68551 58.0949 8.78501C57.5919 8.88451 57.0703 8.82542 56.6024 8.61593C55.9381 8.34736 55.6048 8.55713 55.2214 9.02299C54.2827 10.1637 54.0334 11.4127 54.5019 13.3008C55.2654 13.0101 56.0863 12.8445 56.7343 12.4174C57.8026 11.7118 58.8057 10.9123 59.7314 10.0285C60.685 9.11803 61.6877 8.66308 63.0238 9.08175C63.3248 7.8888 63.5459 6.68695 63.9393 5.54419C64.349 4.36284 64.8491 3.21466 65.435 2.10979C65.6661 1.58955 66.0739 1.16755 66.5864 0.918312C67.0989 0.66907 67.6832 0.608625 68.236 0.747659C69.7351 0.999935 70.7452 1.87984 71.0036 3.155C71.0395 3.26849 71.0823 3.37969 71.1316 3.48804C72.9893 1.81986 74.9234 1.24775 76.8944 3.02531C77.3844 2.40149 77.9107 1.80701 78.4707 1.24492C79.2757 0.518461 80.3715 0.458217 81.3463 0.522442C84.2339 0.712653 87.0118 1.37389 89.4712 3.01328C90.2203 3.49167 90.858 4.12461 91.3415 4.86953C91.8251 5.61444 92.1432 6.45407 92.2746 7.33196C92.5825 6.70636 92.7868 6.28753 92.9943 5.87032C94.0178 3.69608 95.845 2.00196 98.0926 1.14321C99.066 0.756449 100.14 0.698757 101.149 0.978997C102.158 1.25924 103.048 1.86196 103.682 2.69489C105.108 4.52368 105.192 6.40745 103.855 8.36063C103.085 9.48525 102.22 10.5456 101.4 11.6334C102.303 12.6331 103.426 12.6599 104.692 12.2951C105.66 10.3271 106.67 8.24501 107.704 6.17458C108.561 4.29685 110.02 2.75826 111.852 1.80302C114.306 0.573886 116.899 1.5235 117.74 4.12702C118.055 5.33787 118.285 6.56884 118.431 7.81122C118.442 8.0606 118.521 8.30215 118.661 8.50947C118.841 8.01714 119.046 7.5323 119.198 7.03125C120.153 3.87187 122.478 2.42026 125.568 1.91654C127.08 1.63307 128.636 1.69288 130.121 2.09153C131.551 2.50611 132.374 3.66272 133.271 4.95307C132.624 5.717 131.952 6.5098 131.266 7.32055C131.724 7.57703 132.312 7.90589 132.901 8.23471L133.055 8.1588C132.917 7.905 132.78 7.65124 132.629 7.37208C135.837 0.709034 144.072 0.372983 148.008 6.51782C148.587 5.57046 149.158 4.52852 149.846 3.56918C150.153 3.24891 150.555 3.03654 150.993 2.96389C151.53 2.85824 152.077 2.81178 152.624 2.82531C153.956 2.80499 154.683 3.66388 155.284 4.69579C155.582 5.20753 155.892 5.71229 156.187 6.20414C157.011 4.79969 157.805 3.46117 158.582 2.11288C158.667 1.91373 158.826 1.75574 159.027 1.67291C159.227 1.59008 159.452 1.58904 159.653 1.67003C160.549 1.9057 161.552 1.70484 162.29 2.53747C162.623 2.89976 162.852 3.34528 162.953 3.82694C163.054 4.30859 163.022 4.80847 162.862 5.27372C162.205 7.6606 161.519 10.0396 160.893 12.4345C160.508 13.9104 159.672 14.9278 158.178 15.3056C157.478 15.516 156.73 15.5075 156.034 15.2813C155.338 15.0551 154.729 14.622 154.287 14.04C154.112 13.8305 153.931 13.6262 153.75 13.422C153.741 13.412 153.705 13.426 153.652 13.4323C153.581 14.5024 153.553 15.5835 153.427 16.6532C153.267 18.0195 152.44 18.9141 151.215 19.4762C150.063 20.0045 149.012 19.7356 148.066 19.0126C146.962 18.1693 146.827 16.949 146.949 15.6864C147.027 14.8752 147.191 14.0723 147.332 13.1452C147.347 12.8752 147.347 12.7256 147.347 12.3679C147.201 12.6398 147.146 12.7413 147.092 12.8427C145.66 14.8489 143.985 16.5733 141.658 17.5529C138.099 19.0515 134.417 17.7929 132.496 14.3687C131.296 15.8815 129.722 16.8832 128.048 17.7349C125.145 19.2115 122.188 18.7464 119.842 16.482C119.731 16.3748 119.612 16.2765 119.471 16.1513C119.397 16.597 119.297 17.0379 119.17 17.4715C118.954 18.0536 118.538 18.5398 117.995 18.8433C117.453 19.1467 116.82 19.2474 116.21 19.1274C115.527 19.0367 114.894 18.7227 114.409 18.2343C113.924 17.7459 113.615 17.1109 113.53 16.4285C113.467 15.8139 113.457 15.1938 113.419 14.5003C112.405 14.7793 111.491 15.0112 110.593 15.2932C110.381 15.3931 110.205 15.5555 110.088 15.7585C109.798 16.186 109.566 16.6538 109.272 17.0792C109.066 17.419 108.792 17.7131 108.467 17.9432C108.143 18.1734 107.774 18.3348 107.385 18.4175C106.995 18.5002 106.593 18.5024 106.203 18.424C105.812 18.3457 105.442 18.1885 105.115 17.9619C104.967 17.8581 104.793 17.7961 104.613 17.7824C104.433 17.7686 104.252 17.8036 104.09 17.8837C102.708 18.3894 101.462 17.8131 100.265 17.2086C99.5136 16.8286 98.8427 16.292 98.1022 15.886C97.5493 15.6229 96.982 15.3909 96.4032 15.1909C96.3517 15.7047 96.2938 16.0673 96.2824 16.4314C96.2178 18.494 95.1899 19.6091 93.4025 19.5398C92.9637 19.5343 92.5308 19.4389 92.1304 19.2596C91.7301 19.0803 91.3708 18.821 91.075 18.4975C90.7791 18.174 90.5529 17.7934 90.4104 17.3791C90.2679 16.9648 90.2122 16.5258 90.2465 16.0891C90.279 15.3814 90.3058 14.6717 90.3842 13.9683C90.4616 13.2746 90.601 12.5877 90.7337 11.7715C89.6776 13.0436 88.7539 14.2502 87.7312 15.3664C86.1708 17.1699 84.2055 18.5799 81.9955 19.4813C81.2563 19.7712 80.4589 19.8826 79.6684 19.8067C78.8779 19.7308 78.1165 19.4696 77.4462 19.0445C77.3172 18.9821 77.1768 18.947 77.0336 18.9413C76.8904 18.9357 76.7476 18.9597 76.6142 19.0117C76.1394 19.2624 75.6007 19.3662 75.0666 19.3101C74.5326 19.2539 74.0273 19.0403 73.6153 18.6965C71.8363 17.4182 70.298 15.8357 69.0716 14.0222C68.9746 13.8707 68.8437 13.7409 68.5834 13.4245C68.5259 13.8936 68.4738 14.1666 68.4621 14.4413C68.4206 15.4213 68.4311 16.4049 68.3501 17.3812C68.2506 18.5798 67.4 19.2269 66.4361 19.7554C66.3397 19.8037 66.2322 19.8253 66.1246 19.8179C65.291 19.7411 64.5061 19.3913 63.8924 18.8229C63.2786 18.2545 62.8704 17.4995 62.7313 16.6754C62.6974 16.4363 62.6564 16.1982 62.6202 15.9696C61.5494 16.7089 60.4373 17.3868 59.2892 17.9999C56.507 19.305 53.7096 19.382 51.1848 17.4135C50.3083 16.7301 49.7077 15.694 48.9428 14.7163C48.8422 14.5752 48.7247 14.4468 48.593 14.334L48.5159 14.4233L48.7219 14.9262C48.755 15.4425 48.7613 15.9601 48.7407 16.4771C48.5949 18.15 47.6078 19.1353 46.1103 19.1528C45.3372 19.1801 44.5815 18.9202 43.9893 18.4235C43.3971 17.9268 43.0105 17.2285 42.9043 16.4637C42.8328 15.8249 42.8258 15.1789 42.7874 14.4999C41.8022 14.7696 40.9295 14.9867 40.0738 15.2571C39.8315 15.3515 39.6236 15.5168 39.4772 15.7314C39.1928 16.1292 38.9856 16.5813 38.7119 16.9877C37.7571 18.4054 36.4606 18.7881 34.8637 18.1842C34.7408 18.133 34.6084 18.1081 34.4752 18.1114C34.342 18.1146 34.211 18.1458 34.0907 18.2029C32.7002 19.3166 31.0493 19.5109 29.3806 19.4976C28.3185 19.5117 27.2717 19.2441 26.3472 18.722C25.4228 18.2 24.6538 17.4422 24.1189 16.5262C22.9537 17.3976 21.8408 18.3097 20.648 19.1018C19.9793 19.5858 19.1931 19.8825 18.3709 19.9613C17.5487 20.0402 16.7203 19.8983 15.9715 19.5502C15.7997 19.4822 15.6121 19.4638 15.4303 19.4971C14.9831 19.5941 14.5205 19.5964 14.0724 19.5037C13.6243 19.411 13.2007 19.2254 12.8291 18.9589C12.4574 18.6924 12.1459 18.351 11.9148 17.9568C11.6837 17.5625 11.5381 17.1242 11.4874 16.6702C11.3529 15.8543 11.3667 15.014 11.309 14.1236C10.6918 14.8087 10.1164 15.4159 9.58463 16.059C9.45611 16.2576 9.39123 16.4905 9.39863 16.7268C9.37357 17.5457 9.41028 18.367 9.37223 19.185C9.29343 20.8792 8.13901 22.0253 6.57807 21.9996C4.81957 21.9707 3.80784 20.9907 3.70025 19.2118C3.69341 19.1575 3.69169 19.1027 3.6951 19.0481C3.81003 18.5625 3.7351 18.0515 3.48557 17.6192C3.23604 17.1869 2.83071 16.8658 2.35223 16.7216C1.88307 16.5254 1.54721 15.8854 1.27377 15.3808C0.944387 14.696 0.651793 13.9942 0.397229 13.2783C0.859151 13.1495 1.31479 13.0224 1.67267 12.9226C1.18302 12.1763 0.532264 11.4873 0.236442 10.6702C-0.0514044 9.91719 -0.0743679 9.08882 0.171313 8.32103C0.416994 7.55323 0.916739 6.89155 1.58861 6.44448C2.90961 5.46887 3.21998 4.35005 3.13649 2.83462C3.0482 1.23181 3.91424 0.312501 5.4323 0.0560511C6.97291 -0.204192 8.4055 0.448768 8.75139 1.88981C8.85653 2.45943 9.10671 2.99248 9.47787 3.43771C9.84903 3.88294 10.3287 4.2254 10.8707 4.43212C11.3909 4.6626 11.74 5.27754 12.1672 5.71845C12.4083 4.84266 12.8511 4.03523 13.4601 3.36049C14.0692 2.68575 14.8278 2.16238 15.6754 1.8321C17.7553 1.04336 19.8547 1.00489 21.867 2.04748C22.8017 2.50131 23.53 3.29097 23.906 4.25822C24.282 5.22548 24.2779 6.29886 23.8945 7.26321C23.7967 7.54277 23.6825 7.81658 23.5702 8.10784L24.8557 9.25015C25.3751 7.51392 25.9179 5.69716 26.4627 3.88098C26.5644 3.54194 26.6648 3.20205 26.7819 2.86815C27.2838 1.43738 28.3115 0.731109 29.7613 0.812425C31.6291 0.917163 32.9254 1.74036 33.1056 3.23002C33.1694 4.17419 33.0417 5.12153 32.7302 6.01528C31.9768 8.48911 31.1171 10.9306 30.3015 13.3857C30.2747 13.5052 30.2552 13.6262 30.2429 13.7481C31.3665 13.5273 32.4519 13.3406 33.519 13.0796C33.7112 13.0326 33.8585 12.6951 33.9756 12.4658C35.2763 9.9183 36.499 7.32816 37.885 4.82809C38.7736 3.26476 40.2116 2.08603 41.9207 1.52004C44.0058 0.774571 46.206 1.67249 46.9503 3.77017C47.4262 5.11152 47.5677 6.57596 47.8063 7.99411C47.8887 8.68388 47.9265 9.37823 47.9194 10.0729C47.9502 10.8543 47.9934 11.5155 48.0366 12.1766L48.127 12.1712L48.127 10.0876ZM13.2934 14.3175C13.3091 14.9455 13.1928 15.6163 13.3788 16.1892C13.5913 16.7524 13.959 17.2442 14.4394 17.6078C14.5802 17.7184 15.1662 17.264 15.6456 17.0185C15.799 17.1328 16.0785 17.3491 16.3663 17.5538C16.69 17.8128 17.0758 17.9829 17.4855 18.0474C17.8953 18.1119 18.3148 18.0684 18.7026 17.9215C20.8004 17.0758 22.4936 15.7316 23.3801 13.588C24.1151 11.8107 23.4414 10.1904 21.7193 9.35975C21.4527 9.23112 21.1929 9.08838 20.915 8.94447C21.2612 8.27059 21.5957 7.65543 21.8977 7.02471C22.6644 5.42296 22.1221 4.12097 20.4493 3.51121C17.4879 2.43183 14.7437 3.77768 13.8534 6.77328C13.1345 9.19235 13.1069 11.6719 13.2934 14.3175ZM78.0387 15.7144C77.8515 17.0395 78.1719 17.5998 79.5288 17.7908C80.2743 17.8951 81.0341 17.7912 81.724 17.4906C85.4879 15.7139 87.938 12.5891 89.973 9.11015C90.6959 7.87436 90.3766 6.60626 89.455 5.55177C89.0341 5.08783 88.5476 4.68771 88.0109 4.36406C86.0172 3.1226 83.7701 2.66705 81.477 2.45172C80.8501 2.42819 80.2256 2.54051 79.6464 2.781C78.9235 3.04767 78.9078 3.50716 79.4467 4.05085C79.6979 4.26158 79.8653 4.55501 79.9189 4.87816C79.8703 5.74881 79.7627 6.61515 79.5967 7.47127C79.0976 10.1752 78.5681 12.8736 78.0387 15.7144ZM130.678 5.15805C130.666 4.99397 130.717 4.73955 130.632 4.68098C130.225 4.32931 129.756 4.05724 129.249 3.87909C127.362 3.48179 125.398 3.69074 123.637 4.47596C123.15 4.66451 122.707 4.94928 122.332 5.31321C121.958 5.67715 121.662 6.11275 121.46 6.59389C120.919 7.87252 120.49 9.19598 120.18 10.5491C119.449 14.1712 121.909 17.1313 125.303 16.5839C126.524 16.3978 127.69 15.9469 128.718 15.2628C129.746 14.5788 130.611 13.6783 131.253 12.6245C131.468 12.2766 131.635 11.9016 131.75 11.5095C132.142 10.2051 131.652 9.30224 130.299 9.14327C128.998 9.01947 127.689 8.99083 126.384 9.05768C125.42 9.0863 124.46 9.25947 123.486 9.36953C123.793 10.7727 124.437 11.2521 125.73 11.1635C126.843 11.0872 127.956 11.0093 129.213 10.9221C129.088 11.2831 129.076 11.6331 128.895 11.7922C127.502 13.0165 126.128 14.2905 124.197 14.6314C123.19 14.8091 122.442 14.4176 122.323 13.4203C122.129 12.2142 122.112 10.9866 122.271 9.77565C122.739 7.14231 123.955 6.10116 126.519 5.82899C127.442 5.73106 128.377 5.75132 129.299 5.64834C129.781 5.55414 130.246 5.38889 130.678 5.15805ZM94.3289 16.5419C94.4396 15.4392 94.5503 14.3365 94.6598 13.2449C97.2508 13.2749 98.0293 13.5562 100.284 14.9509C101.108 15.4196 101.976 15.8094 102.874 16.1152C102.968 16.1634 103.073 16.1864 103.179 16.1821C103.285 16.1777 103.388 16.1461 103.478 16.0903C103.568 16.0344 103.642 15.9564 103.693 15.8636C103.743 15.7708 103.769 15.6664 103.767 15.5607C103.783 15.1093 103.782 14.5199 103.085 14.4772C101.255 14.365 100.077 12.9562 98.4351 12.3289C98.6813 11.9908 98.835 11.7696 98.9988 11.5563C100.08 10.1486 101.187 8.76004 102.239 7.33091C103.161 6.07692 103.051 4.83542 101.998 3.69395C101.555 3.20036 100.958 2.87051 100.304 2.75782C99.6501 2.64514 98.9771 2.75624 98.3942 3.07313C96.8581 3.76579 95.6081 4.966 94.8552 6.47137C94.2545 7.69321 93.7171 8.945 93.2449 10.2218C92.5131 12.1684 92.1521 14.2344 92.1803 16.3133C92.1744 16.4842 92.2035 16.6546 92.2658 16.8138C92.3281 16.9731 92.4223 17.118 92.5426 17.2397C92.6629 17.3615 92.8068 17.4575 92.9656 17.5218C93.1243 17.5861 93.2945 17.6174 93.4657 17.6138C94.1082 17.6311 94.3399 17.2743 94.3289 16.5419ZM34.8276 15.4015C34.8514 15.7059 34.9938 15.9888 35.2243 16.1896C35.4548 16.3903 35.7549 16.4928 36.0603 16.475C36.5323 16.3512 36.9488 16.0722 37.2426 15.6831C37.5787 15.3049 37.7119 14.7498 38.0392 14.3603C38.3318 13.9836 38.7177 13.6896 39.1588 13.5073C40.4997 13.054 41.8818 12.7239 43.2324 12.2971C43.8903 12.0893 44.233 12.2798 44.3371 12.9339C44.4989 13.9511 44.6736 14.9674 44.7919 15.9899C44.8759 16.7168 45.3744 17.2898 46.037 17.2448C46.7917 17.1934 46.8384 16.623 46.8278 16.0512C46.8188 15.7258 46.791 15.4011 46.7443 15.0789C46.4956 13.2506 46.2369 11.4237 45.9879 9.59538C45.7751 8.03313 45.6956 6.4398 45.3287 4.91499C44.9334 3.27229 43.6028 2.78921 42.0816 3.52215C40.6783 4.22768 39.5604 5.39296 38.915 6.82293C38.1537 8.35963 37.3981 9.89904 36.6479 11.4412C36.0326 12.7129 35.4364 13.9938 34.8276 15.4015ZM114.196 3.20737C113.716 3.26151 113.243 3.36279 112.783 3.50975C111.417 4.11652 110.319 5.19755 109.692 6.55183C108.318 9.27864 106.979 12.0229 105.638 14.766C105.295 15.4689 105.47 15.9591 106.14 16.3449C106.27 16.4366 106.419 16.4987 106.575 16.5266C106.732 16.5546 106.893 16.5478 107.047 16.5068C107.201 16.4658 107.343 16.3915 107.465 16.2892C107.587 16.1869 107.685 16.0591 107.752 15.9149C108.012 15.4057 108.305 14.9134 108.627 14.441C108.95 14.0228 109.375 13.694 109.861 13.4859C111.121 13.0449 112.426 12.7325 113.71 12.3602C114.672 12.0816 114.792 12.1151 114.992 13.0997C115.185 14.056 115.312 15.028 115.421 15.9985C115.426 16.3288 115.56 16.6443 115.795 16.8773C116.03 17.1103 116.346 17.2425 116.677 17.2457C117.375 17.1924 117.476 16.6751 117.453 16.1188C117.436 15.7135 117.378 15.3091 117.322 14.9065C117.094 13.264 116.848 11.6237 116.63 9.97989C116.408 8.30665 116.257 6.62261 115.984 4.9581C115.915 4.513 115.703 4.10212 115.381 3.78665C115.059 3.47118 114.644 3.268 114.196 3.20737ZM74.5979 3.90881C74.1554 3.97987 73.7246 4.11091 73.3176 4.29824C72.3042 4.94258 71.3417 5.66694 70.3605 6.36145C69.4986 6.97145 68.6384 7.58382 67.5909 8.32757C67.6992 7.86226 67.7375 7.60304 67.8202 7.35879C68.1959 6.24911 68.6107 5.15165 68.9496 4.03118C69.0013 3.8746 69.0186 3.70879 69.0004 3.54496C68.9823 3.38112 68.9291 3.22313 68.8444 3.0816C68.1329 2.34812 67.3767 2.51185 66.8925 3.41558C65.3396 6.31447 64.845 9.50239 64.469 12.6962C64.3213 13.9511 64.5427 15.2544 64.6457 16.5316C64.6932 17.1212 65.5024 17.866 65.9207 17.6494C66.0933 17.5058 66.2342 17.328 66.3345 17.1274C66.4348 16.9267 66.4922 16.7075 66.5033 16.4835C66.5884 15.5626 66.4767 14.6242 66.5525 13.7017C66.5892 13.2496 66.7693 12.8208 67.0668 12.4779C67.7222 11.8509 68.4088 11.2574 69.124 10.6994C69.6346 11.4349 70.1318 12.0869 70.5603 12.7811C71.6526 14.4559 73.0483 15.9128 74.6756 17.077C75.0377 17.352 75.4035 17.5896 75.8472 17.1415C75.8008 17.0492 75.7495 16.9593 75.6934 16.8725C74.1162 14.6841 72.5368 12.4972 70.9553 10.3119C70.4796 9.65816 70.5494 9.15106 71.1949 8.63717C72.4778 7.61593 73.7303 6.55607 74.9818 5.49616C75.8297 4.77803 75.7521 4.36735 74.5979 3.90881ZM151.566 16.1158C151.75 13.5711 151.588 10.987 152.369 8.39437C153.568 9.94945 154.677 11.4019 155.802 12.8427C155.995 13.1114 156.265 13.3159 156.576 13.4297C156.887 13.5435 157.226 13.5614 157.547 13.481C157.888 13.4293 158.206 13.2769 158.459 13.0435C158.713 12.8101 158.891 12.5064 158.97 12.1713C159.652 9.70712 160.342 7.245 160.979 4.76919C161.011 4.59963 161.002 4.42491 160.952 4.25969C160.902 4.09446 160.813 3.9436 160.692 3.81987C160.602 3.74471 160.495 3.69223 160.38 3.6668C160.266 3.64137 160.146 3.64373 160.033 3.6737C159.919 3.70368 159.814 3.76042 159.727 3.83913C159.639 3.91783 159.572 4.01619 159.531 4.12607C158.976 5.36533 158.385 6.58962 157.87 7.84543C157.531 8.67516 157.299 9.54901 156.947 10.6243C155.694 8.74389 154.573 7.04236 153.424 5.35946C153.263 5.08269 153.009 4.87117 152.708 4.76155C152.414 4.71002 152.113 4.71993 151.824 4.79074C151.535 4.86155 151.263 4.9917 151.027 5.17285C150.791 5.354 150.595 5.58222 150.452 5.84301C150.309 6.10381 150.222 6.39145 150.196 6.68769C149.866 8.95231 149.535 11.217 149.22 13.4839C149.079 14.506 148.939 15.5311 148.871 16.5597C148.848 16.6896 148.851 16.8227 148.88 16.9515C148.908 17.0803 148.962 17.2022 149.038 17.31C149.114 17.4179 149.211 17.5097 149.323 17.58C149.435 17.6503 149.559 17.6978 149.69 17.7197C150.162 17.7353 150.625 17.589 151.002 17.3052C151.286 17.0922 151.372 16.6149 151.566 16.1158ZM137.898 14.1891C137.225 14.2687 136.857 13.9976 136.826 13.2956C136.798 12.6703 136.69 12.0447 136.709 11.422C136.754 9.95448 136.672 9.82006 135.338 9.20087C134.921 9.00749 134.683 9.06883 134.473 9.45454C133.885 10.455 133.71 11.6448 133.986 12.7718C134.71 15.6069 138.019 17.0587 140.924 15.7844C143.504 14.653 145.183 12.6034 146.377 10.1355C146.63 9.64296 146.73 9.08656 146.666 8.53683C146.602 7.9871 146.375 7.4688 146.015 7.04767C144.633 5.32093 142.921 4.15542 140.602 4.07685C138.413 4.0027 135.877 5.38988 135.075 7.25134C135.425 7.17894 135.709 7.14162 135.979 7.06101C137.469 6.6172 138.954 6.15881 140.443 5.71348C141.466 5.40774 142.413 5.49016 143.106 6.39881C143.817 7.33094 144.502 8.35625 143.757 9.53281C142.381 11.7053 140.805 13.6882 137.898 14.1891ZM8.72534 7.4696C9.06461 7.37526 9.39509 7.25183 9.71309 7.10072C10.3627 6.72608 10.3837 6.31267 9.72661 5.97087C9.1812 5.68713 8.54566 5.58082 7.9794 5.3299C7.71916 5.21789 7.51362 5.00805 7.40734 4.7458C7.22051 4.03854 7.17823 3.29274 6.98547 2.58764C6.8218 1.98898 6.30748 1.85434 5.73383 1.94118C5.14924 2.02964 5.00076 2.42889 5.01269 2.9493C5.02895 3.65857 5.00768 4.36985 5.05415 5.07691C5.0826 5.38914 5.02476 5.70317 4.88692 5.98489C4.74908 6.26661 4.53651 6.50525 4.27232 6.67482C3.6383 7.14801 3.04513 7.67341 2.49902 8.24549C2.22775 8.50289 2.0456 8.83982 1.97896 9.20746C1.91231 9.5751 1.96463 9.95436 2.12833 10.2903C2.2944 10.6682 2.56535 10.9906 2.90917 11.2196C3.253 11.4486 3.65531 11.5746 4.06856 11.5826C5.37155 11.6586 5.3764 11.6273 5.37966 12.9257C5.38055 13.2795 5.36127 13.6335 5.344 13.9871C5.3148 14.5848 4.99005 14.7997 4.41523 14.7033C4.00306 14.6342 3.58792 14.5827 3.1741 14.5233L3.03095 14.8032C3.34891 15.0286 3.64316 15.3982 3.98889 15.4548C5.57998 15.7157 5.59206 16.8811 5.60617 18.0739C5.61004 18.4016 5.63236 18.7299 5.61825 19.0567C5.59117 19.6839 5.84485 20.0513 6.50409 20.0704C7.17803 20.0899 7.4298 19.6943 7.43466 19.0901C7.44279 18.0799 7.3912 17.0667 7.45578 16.0607C7.50432 15.6513 7.66887 15.2642 7.93012 14.9449C8.67149 14.0047 9.5102 13.1401 10.2371 12.1897C10.3684 12.0376 10.4626 11.8572 10.5126 11.6628C10.5625 11.4683 10.5668 11.265 10.525 11.0686C10.4833 10.8722 10.3967 10.6881 10.272 10.5306C10.1473 10.3731 9.98778 10.2465 9.80598 10.1606C9.42546 9.94708 9.02269 9.77574 8.60485 9.64968C8.10352 9.48511 7.33972 9.52239 7.14011 9.197C6.92155 8.84064 7.21567 8.16982 7.29132 7.63674C7.29815 7.58867 7.34153 7.54574 7.38289 7.47472C7.77293 7.47472 8.17696 7.47474 8.72534 7.4696ZM52.8864 16.298C54.0413 16.9527 55.4 17.152 56.6948 16.8564C59.4202 16.2681 61.4098 14.6677 62.8702 12.3496C62.9423 12.2573 62.9949 12.1513 63.0248 12.0381C63.0547 11.9249 63.0612 11.8067 63.0439 11.6909C63.0267 11.5751 62.9861 11.464 62.9245 11.3644C62.8629 11.2647 62.7817 11.1785 62.6858 11.1112C62.6012 11.0203 62.4983 10.9483 62.3838 10.9001C62.2692 10.8519 62.1458 10.8285 62.0215 10.8315C61.8973 10.8345 61.7751 10.8638 61.663 10.9174C61.551 10.9711 61.4516 11.0479 61.3715 11.1428C60.9591 11.5422 60.5797 11.9795 60.1415 12.3476C58.5854 13.6548 57.0011 14.9179 54.8436 15.0683C53.5205 15.1605 52.8129 14.6975 52.5121 13.4148C51.9998 11.2303 52.3746 9.23581 53.9402 7.5509C54.8059 6.61916 55.7798 6.11878 57.0822 6.74942C57.2411 6.80455 57.4107 6.82186 57.5776 6.80001C57.7444 6.77817 57.9038 6.71778 58.0432 6.62361C58.1944 6.4986 58.151 6.00336 58.0473 5.72896C57.7748 5.04824 57.2459 4.50122 56.5741 4.20523C55.9022 3.90923 55.1409 3.88783 54.4535 4.14564C52.1924 4.9597 50.6474 6.44091 50.2233 8.91005C49.6942 11.9902 50.3014 14.6055 52.8864 16.298ZM28.3552 15.8253C28.2992 15.1763 28.0496 14.4708 28.22 13.8877C29.0214 11.1468 29.9468 8.44215 30.8072 5.71803C31.0276 5.10693 31.1734 4.47154 31.2416 3.82563C31.2894 3.05296 30.6574 2.87262 30.0268 2.77341C29.4138 2.67696 28.8291 2.70225 28.6292 3.4171C27.6321 6.98254 26.6495 10.552 25.6814 14.1254C25.4482 14.9897 25.7957 15.6947 26.398 16.3489C28.0917 18.1884 31.6547 17.772 33.0241 16.5416C33.2217 16.364 33.4336 15.9704 33.3631 15.7771C33.341 15.6768 33.2969 15.5826 33.234 15.5014C33.1711 15.4201 33.091 15.3536 32.9994 15.3068C32.9079 15.2601 32.807 15.2341 32.7042 15.2308C32.6014 15.2274 32.4991 15.2468 32.4047 15.2875C31.8832 15.4506 31.3478 15.5651 30.8052 15.6293C29.9933 15.7444 29.1751 15.8098 28.3552 15.8253ZM77.3438 5.51028C77.0043 6.02852 76.6206 6.51645 76.1968 6.96868C75.1358 7.93362 74.0107 8.82842 72.8599 9.79496C73.9608 11.4015 75.0217 12.9496 76.1524 14.5995C76.6493 12.2649 77.117 10.1375 77.549 8.00279C77.7107 7.20373 77.8082 6.38976 77.8898 5.57809C77.9064 5.41357 77.7195 5.22869 77.6265 5.05321C77.5178 5.19615 77.4231 5.34922 77.3438 5.51028ZM142.088 8.40013C141.78 8.06741 141.84 7.29312 141.041 7.55126C140.019 7.88163 138.992 8.19801 137.871 8.55048C138.892 9.52095 138.673 10.7507 138.636 12.1346C140.152 11.0699 141.319 9.98583 142.088 8.40013Z" fill="#EDECE4"/>
<path d="M48.0856 10.0857C48.1268 10.7821 48.1268 11.4766 48.1268 12.1711L48.0364 12.1765C47.9932 11.5154 47.9501 10.8542 47.9346 10.1424C47.9531 10.1212 47.9766 10.105 48.0029 10.0951C48.0293 10.0852 48.0577 10.082 48.0856 10.0857Z" fill="#333134"/>
<path d="M13.2881 14.2405C13.1065 11.6718 13.1341 9.19232 13.853 6.77325C14.7433 3.77765 17.4875 2.43179 20.4489 3.51118C22.1218 4.12093 22.6641 5.42287 21.8973 7.02462C21.5954 7.65535 21.2608 8.2705 20.9146 8.94438C21.1925 9.08828 21.4523 9.23102 21.719 9.35966C23.441 10.1903 24.1147 11.8106 23.3797 13.5879C22.4932 15.7315 20.8 17.0758 18.7022 17.9214C18.3144 18.0684 17.8949 18.1118 17.4851 18.0473C17.0754 17.9828 16.6896 17.8127 16.3659 17.5538C16.0781 17.349 15.7986 17.1327 15.6453 17.0185C15.1659 17.264 14.5798 17.7184 14.439 17.6078C13.9586 17.2441 13.591 16.7523 13.3784 16.1892C13.1925 15.6162 13.3087 14.9454 13.2881 14.2405ZM16.5066 5.97654C16.2144 6.49743 15.8774 6.99855 15.6377 7.54249C14.475 10.1813 15.3469 12.8465 15.4612 15.3037C16.0558 15.6718 16.4734 15.9516 16.9127 16.1915C17.0874 16.293 17.2899 16.3361 17.4908 16.3148C19.1551 16.0004 21.5178 13.1877 21.5701 11.486C21.598 10.5792 21.0323 10.0525 20.1671 10.3291C19.5253 10.5504 18.925 10.8769 18.3906 11.2951C17.1932 12.2006 16.2641 11.9945 15.6168 10.5879C16.6486 9.89025 17.6393 9.13377 18.5839 8.32225C19.0707 7.89628 19.4614 7.37215 19.7303 6.78439C19.9993 6.19663 20.1403 5.5586 20.1441 4.91244C18.6922 4.36974 17.5669 4.86158 16.5066 5.97654Z" fill="#060605"/>
<path d="M78.0441 15.6442C78.5677 12.8735 79.0971 10.1751 79.5963 7.47116C79.7622 6.61503 79.8698 5.74869 79.9184 4.87804C79.8649 4.55489 79.6974 4.26147 79.4462 4.05073C78.9074 3.50705 78.9231 3.04761 79.6459 2.78093C80.2251 2.54045 80.8496 2.42807 81.4765 2.45161C83.7696 2.66694 86.0167 3.12249 88.0105 4.36394C88.5472 4.6876 89.0336 5.08772 89.4545 5.55166C90.3761 6.60616 90.6954 7.87432 89.9725 9.11009C87.9375 12.5891 85.4874 15.7138 81.7236 17.4905C81.0336 17.7911 80.2738 17.895 79.5283 17.7908C78.1714 17.5997 77.8511 17.0394 78.0441 15.6442ZM87.7807 8.39698C88.2731 6.77245 87.893 5.89576 86.3174 5.31833C85.2642 4.94654 84.1898 4.63741 83.0998 4.39261C82.5497 4.33231 81.9949 4.32654 81.4436 4.3754C82.5269 5.05939 82.5019 5.80973 82.2792 6.678C81.582 9.39645 80.9295 12.1264 80.2753 14.8556C80.1786 15.259 80.1662 15.6825 80.092 16.2802C83.5659 14.7239 86.3152 11.9049 87.7807 8.39698Z" fill="#060605"/>
<path d="M130.634 5.20417C130.209 5.40728 129.76 5.55647 129.299 5.64827C128.377 5.75125 127.441 5.73099 126.518 5.82892C123.954 6.10109 122.738 7.14224 122.27 9.77558C122.111 10.9866 122.128 12.2142 122.322 13.4202C122.441 14.4176 123.19 14.8091 124.197 14.6313C126.128 14.2904 127.501 13.0164 128.894 11.7921C129.075 11.633 129.088 11.283 129.213 10.922C127.956 11.0092 126.842 11.0871 125.729 11.1635C124.436 11.2521 123.793 10.7727 123.485 9.36946C124.459 9.2594 125.419 9.08623 126.383 9.05761C127.689 8.99076 128.997 9.01935 130.299 9.14315C131.652 9.30212 132.141 10.205 131.749 11.5094C131.634 11.9016 131.467 12.2766 131.253 12.6245C130.611 13.6782 129.745 14.5787 128.717 15.2628C127.689 15.9468 126.524 16.3977 125.302 16.5838C121.908 17.1312 119.448 14.1712 120.179 10.5491C120.49 9.19591 120.918 7.87245 121.46 6.59382C121.661 6.11268 121.958 5.67708 122.332 5.31314C122.706 4.94921 123.15 4.66444 123.637 4.47589C125.397 3.69067 127.362 3.48172 129.248 3.87902C129.756 4.05717 130.225 4.32919 130.631 4.68086C130.716 4.73945 130.666 4.99394 130.634 5.20417Z" fill="#050504"/>
<path d="M94.3263 16.6144C94.3394 17.2742 94.1077 17.6311 93.4652 17.6138C93.2939 17.6173 93.1237 17.586 92.965 17.5217C92.8063 17.4574 92.6624 17.3614 92.5421 17.2397C92.4217 17.118 92.3276 16.9731 92.2653 16.8138C92.203 16.6545 92.1739 16.4842 92.1798 16.3133C92.1515 14.2343 92.5126 12.1683 93.2444 10.2217C93.7165 8.94491 94.254 7.69312 94.8546 6.47128C95.6076 4.96591 96.8575 3.76576 98.3937 3.07309C98.9765 2.7562 99.6496 2.6451 100.304 2.75778C100.958 2.87047 101.554 3.20032 101.997 3.69391C103.051 4.83538 103.161 6.07691 102.238 7.33087C101.186 8.76 100.079 10.1486 98.9983 11.5562C98.8344 11.7696 98.6807 11.9907 98.4346 12.3289C100.076 12.9561 101.254 14.365 103.085 14.4772C103.782 14.5199 103.783 15.1093 103.767 15.5607C103.769 15.6664 103.743 15.7708 103.692 15.8635C103.641 15.9563 103.567 16.0344 103.477 16.0902C103.387 16.146 103.285 16.1777 103.179 16.182C103.073 16.1864 102.968 16.1634 102.874 16.1151C101.975 15.8094 101.108 15.4196 100.283 14.9509C98.0287 13.5561 97.2502 13.2749 94.6593 13.2449C94.5497 14.3365 94.4391 15.4392 94.3263 16.6144ZM96.5309 11.0925C96.8715 10.7009 97.2216 10.3169 97.5511 9.91624C98.6231 8.61292 99.8444 7.40163 100.33 5.71872C100.417 5.27098 100.468 4.81677 100.481 4.36072C97.6862 5.36197 95.0048 9.40079 95.3617 12.0775C95.7775 11.7359 96.1147 11.4589 96.5309 11.0925Z" fill="#050505"/>
<path d="M34.8291 15.3361C35.4358 13.9938 36.032 12.7128 36.6473 11.4411C37.3942 9.8974 38.1499 8.35799 38.9144 6.82284C39.5598 5.39287 40.6777 4.22759 42.081 3.52206C43.6022 2.78912 44.9328 3.27223 45.3281 4.91495C45.6951 6.43975 45.7745 8.03308 45.9873 9.59534C46.2364 11.4236 46.4951 13.2506 46.7438 15.0789C46.7904 15.4011 46.8183 15.7257 46.8272 16.0511C46.8378 16.623 46.7911 17.1934 46.0364 17.2447C45.3739 17.2898 44.8754 16.7168 44.7913 15.9899C44.673 14.9673 44.4984 13.951 44.3365 12.9338C44.2325 12.2798 43.8898 12.0892 43.2318 12.2971C41.8813 12.7239 40.4992 13.0539 39.1583 13.5072C38.7171 13.6895 38.3312 13.9835 38.0386 14.3602C37.7113 14.7498 37.5781 15.3049 37.242 15.6831C36.9483 16.0721 36.5318 16.3511 36.0597 16.475C35.4245 16.5355 34.9605 16.0815 34.8291 15.3361ZM42.646 5.79102C42.1781 6.34744 41.7432 6.93057 41.3433 7.53746C40.6285 8.75667 39.9884 10.0196 39.2264 11.4334C40.9585 11.1399 42.4226 10.8918 43.9871 10.6267C43.8643 8.87484 43.7462 7.18792 43.6212 5.40384C43.2893 5.5152 42.9638 5.64446 42.646 5.79102Z" fill="#050504"/>
<path d="M114.263 3.21472C114.698 3.28573 115.099 3.49289 115.408 3.80625C115.717 4.11961 115.919 4.52299 115.983 4.95808C116.256 6.62259 116.407 8.30663 116.629 9.97987C116.847 11.6237 117.093 13.2639 117.321 14.9065C117.377 15.3091 117.435 15.7135 117.452 16.1188C117.476 16.6751 117.375 17.1924 116.677 17.2457C116.346 17.2425 116.029 17.1103 115.795 16.8772C115.56 16.6442 115.426 16.3288 115.421 15.9984C115.312 15.028 115.185 14.056 114.991 13.0996C114.792 12.1151 114.671 12.0815 113.71 12.3602C112.425 12.7324 111.121 13.0449 109.861 13.4858C109.375 13.6939 108.95 14.0227 108.627 14.4409C108.304 14.9134 108.012 15.4057 107.751 15.9149C107.684 16.0591 107.587 16.1868 107.465 16.2891C107.343 16.3914 107.2 16.4657 107.046 16.5067C106.893 16.5478 106.732 16.5545 106.575 16.5266C106.418 16.4986 106.27 16.4365 106.14 16.3449C105.469 15.959 105.294 15.4688 105.638 14.7659C106.979 12.0228 108.318 9.27857 109.692 6.55176C110.319 5.19747 111.417 4.1165 112.782 3.50973C113.263 3.3552 113.76 3.2562 114.263 3.21472ZM112.818 6.18754C111.841 7.86812 110.865 9.54869 109.889 11.2293L110.086 11.3908C111.552 11.145 113.018 10.8991 114.608 10.6324C114.493 8.89724 114.38 7.20269 114.252 5.28123C113.662 5.63449 113.278 5.86459 112.818 6.18754Z" fill="#050504"/>
<path d="M74.6595 3.9254C75.7519 4.3673 75.8295 4.778 74.9815 5.49612C73.7301 6.55603 72.4776 7.61588 71.1947 8.63713C70.5491 9.15101 70.4793 9.65812 70.9551 10.3119C72.5422 12.4931 74.1215 14.6799 75.6931 16.8724C75.7492 16.9592 75.8006 17.0491 75.8469 17.1414C75.4032 17.5895 75.0375 17.352 74.6754 17.0769C73.048 15.9127 71.6524 14.4558 70.5601 12.781C70.1315 12.0868 69.6344 11.4349 69.1237 10.6993C68.4085 11.2573 67.7219 11.8509 67.0666 12.4779C66.7691 12.8208 66.5889 13.2495 66.5523 13.7016C66.4764 14.6241 66.5882 15.5625 66.503 16.4834C66.492 16.7074 66.4345 16.9266 66.3342 17.1273C66.234 17.328 66.0931 17.5057 65.9205 17.6493C65.5021 17.8659 64.693 17.1211 64.6454 16.5315C64.5425 15.2543 64.321 13.9511 64.4688 12.6961C64.8447 9.50235 65.3393 6.31439 66.8923 3.41548C67.3764 2.51175 68.1326 2.34802 68.8442 3.0815C68.9288 3.22303 68.982 3.38108 69.0002 3.54491C69.0183 3.70875 69.001 3.87456 68.9494 4.03113C68.6105 5.1516 68.1957 6.24901 67.8199 7.3587C67.7372 7.60295 67.699 7.86216 67.5906 8.32747C68.6381 7.58372 69.4983 6.97135 70.3602 6.36136C71.3415 5.66685 72.3039 4.94249 73.3173 4.29815C73.741 4.10076 74.1945 3.9748 74.6595 3.9254Z" fill="#050505"/>
<path d="M151.555 16.1853C151.371 16.6148 151.286 17.0922 151.002 17.3052C150.625 17.589 150.162 17.7352 149.689 17.7197C149.559 17.6977 149.434 17.6502 149.323 17.5799C149.211 17.5096 149.114 17.4179 149.038 17.31C148.962 17.2022 148.908 17.0803 148.879 16.9515C148.851 16.8227 148.848 16.6895 148.871 16.5597C148.938 15.5311 149.078 14.506 149.22 13.4839C149.534 11.217 149.865 8.9523 150.196 6.68768C150.221 6.39144 150.309 6.10374 150.452 5.84294C150.595 5.58215 150.791 5.35394 151.027 5.17278C151.263 4.99163 151.534 4.86154 151.824 4.79072C152.113 4.71991 152.414 4.70995 152.707 4.76148C153.009 4.8711 153.263 5.08262 153.424 5.35939C154.572 7.04231 155.693 8.74387 156.946 10.6243C157.299 9.549 157.53 8.67514 157.87 7.84541C158.384 6.58961 158.976 5.36531 159.531 4.12606C159.572 4.01617 159.639 3.91776 159.726 3.83906C159.814 3.76036 159.918 3.70361 160.032 3.67364C160.146 3.64366 160.265 3.6413 160.38 3.66673C160.495 3.69216 160.602 3.74464 160.692 3.81981C160.813 3.94353 160.902 4.0944 160.951 4.25962C161.001 4.42485 161.01 4.59961 160.978 4.76917C160.342 7.245 159.651 9.70705 158.969 12.1712C158.89 12.5063 158.713 12.8101 158.459 13.0435C158.206 13.2769 157.888 13.4292 157.547 13.4809C157.225 13.5613 156.887 13.5435 156.576 13.4297C156.265 13.3158 155.995 13.1113 155.802 12.8426C154.677 11.4018 153.567 9.94937 152.369 8.39431C151.588 10.9869 151.75 13.571 151.555 16.1853Z" fill="#050504"/>
<path d="M137.966 14.1803C140.805 13.6881 142.381 11.7052 143.756 9.53274C144.502 8.35619 143.817 7.33086 143.106 6.39874C142.413 5.4901 141.465 5.40768 140.443 5.71341C138.954 6.15874 137.469 6.61713 135.979 7.06095C135.708 7.14157 135.425 7.17889 135.074 7.25127C135.876 5.38981 138.413 4.00265 140.601 4.07678C142.92 4.15535 144.632 5.32088 146.015 7.04761C146.375 7.46873 146.601 7.98703 146.665 8.53676C146.73 9.0865 146.629 9.64295 146.376 10.1355C145.182 12.6034 143.503 14.653 140.924 15.7843C138.018 17.0587 134.71 15.6069 133.986 12.7717C133.71 11.6448 133.885 10.4549 134.473 9.45453C134.682 9.06882 134.921 9.00748 135.338 9.20085C136.672 9.82005 136.753 9.95441 136.708 11.422C136.689 12.0446 136.797 12.6702 136.825 13.2955C136.856 13.9975 137.224 14.2687 137.966 14.1803Z" fill="#050505"/>
<path d="M8.65257 7.47213C8.17637 7.4747 7.77234 7.47469 7.3823 7.47469C7.34094 7.5457 7.29756 7.58858 7.29073 7.63666C7.21507 8.16974 6.92096 8.84061 7.13952 9.19696C7.33913 9.52237 8.10294 9.48509 8.60426 9.64965C9.0221 9.77571 9.42487 9.947 9.80539 10.1605C9.98719 10.2464 10.1467 10.373 10.2714 10.5305C10.3961 10.688 10.4827 10.8721 10.5245 11.0685C10.5662 11.2649 10.5619 11.4683 10.512 11.6627C10.462 11.8572 10.3678 12.0375 10.2366 12.1897C9.50961 13.14 8.6709 14.0046 7.92953 14.9448C7.66828 15.2641 7.50373 15.6512 7.45519 16.0606C7.39061 17.0667 7.4422 18.0798 7.43407 19.09C7.42921 19.6942 7.17744 20.0899 6.50351 20.0704C5.84427 20.0513 5.59058 19.6838 5.61766 19.0566C5.63177 18.7298 5.60946 18.4015 5.60558 18.0739C5.59148 16.8811 5.57939 15.7156 3.9883 15.4548C3.64258 15.3981 3.34832 15.0286 3.03036 14.8031L3.17352 14.5233C3.58733 14.5827 4.00246 14.6342 4.41464 14.7033C4.98946 14.7996 5.31421 14.5847 5.34341 13.9871C5.36068 13.6335 5.37996 13.2795 5.37907 12.9257C5.37581 11.6273 5.37096 11.6585 4.06797 11.5825C3.65472 11.5745 3.2524 11.4486 2.90858 11.2196C2.56476 10.9906 2.29381 10.6681 2.12774 10.2902C1.96404 9.95427 1.91172 9.57501 1.97837 9.20737C2.04501 8.83974 2.22716 8.50281 2.49843 8.2454C3.04453 7.67332 3.63771 7.14797 4.27172 6.67479C4.53592 6.50522 4.74849 6.26658 4.88633 5.98486C5.02417 5.70313 5.08201 5.38906 5.05356 5.07682C5.00708 4.36976 5.02836 3.65847 5.0121 2.94921C5.00017 2.4288 5.14864 2.02956 5.73324 1.94109C6.30689 1.85425 6.82119 1.98894 6.98487 2.58761C7.17765 3.29271 7.21992 4.03846 7.40675 4.74572C7.51304 5.00796 7.71857 5.21785 7.97882 5.32987C8.54508 5.58079 9.18061 5.68709 9.72601 5.97084C10.3831 6.31263 10.3621 6.72604 9.7125 7.10069C9.37387 7.26284 9.01843 7.3874 8.65257 7.47213ZM7.04417 11.6239L7.18633 13.4803C8.33857 12.92 8.83764 12.1986 8.79693 11.1087C8.11137 10.8732 7.48815 10.7152 7.04417 11.6239ZM5.42861 9.1876L5.22414 7.61945C4.75732 7.92186 4.23968 8.07154 4.13326 8.36818C3.98492 8.89216 3.96254 9.44369 4.06795 9.97792C4.08758 10.1125 4.6091 10.2635 4.89321 10.2512C5.46908 10.2262 5.42633 9.74373 5.42861 9.1876Z" fill="#050505"/>
<path d="M52.8357 16.2635C50.3008 14.6053 49.6936 11.9901 50.2227 8.90995C50.6468 6.44081 52.1919 4.95965 54.4529 4.1456C55.1404 3.88779 55.9017 3.90914 56.5735 4.20514C57.2454 4.50113 57.7742 5.04814 58.0467 5.72887C58.1504 6.00326 58.1939 6.49851 58.0426 6.62351C57.9033 6.71769 57.7438 6.77808 57.577 6.79992C57.4102 6.82177 57.2405 6.80445 57.0816 6.74933C55.7792 6.11869 54.8053 6.61906 53.9396 7.5508C52.3741 9.23572 51.9992 11.2302 52.5115 13.4148C52.8123 14.6974 53.5199 15.1605 54.843 15.0682C57.0005 14.9179 58.5848 13.6548 60.1409 12.3476C60.5791 11.9795 60.9586 11.5421 61.3709 11.1427C61.451 11.0479 61.5504 10.9711 61.6625 10.9174C61.7745 10.8637 61.8967 10.8344 62.0209 10.8314C62.1452 10.8285 62.2687 10.8519 62.3832 10.9001C62.4977 10.9483 62.6006 11.0202 62.6852 11.1111C62.7811 11.1785 62.8624 11.2646 62.9239 11.3643C62.9855 11.4639 63.0261 11.5751 63.0434 11.6909C63.0606 11.8067 63.0541 11.9248 63.0242 12.038C62.9944 12.1512 62.9418 12.2572 62.8696 12.3495C61.4093 14.6676 59.4197 16.268 56.6942 16.8563C55.3792 17.1536 54.0002 16.9417 52.8357 16.2635Z" fill="#050504"/>
<path d="M28.4173 15.8572C29.2551 15.8046 30.0332 15.7397 30.8048 15.6292C31.3474 15.565 31.8829 15.4506 32.4043 15.2875C32.4987 15.2468 32.601 15.2274 32.7038 15.2307C32.8067 15.234 32.9075 15.26 32.9991 15.3068C33.0907 15.3536 33.1708 15.42 33.2336 15.5013C33.2965 15.5826 33.3406 15.6767 33.3627 15.777C33.4333 15.9704 33.2214 16.364 33.0237 16.5416C31.6544 17.7719 28.0913 18.1884 26.3977 16.3488C25.7954 15.6946 25.4479 14.9896 25.681 14.1253C26.645 10.5509 27.6276 6.98144 28.6288 3.41701C28.8287 2.70216 29.4135 2.6769 30.0264 2.77333C30.657 2.87254 31.2891 3.05293 31.2413 3.8256C31.1731 4.47151 31.0272 5.10684 30.8068 5.71794C29.9464 8.44207 29.0211 11.1467 28.2197 13.8877C28.0492 14.4707 28.2988 15.1762 28.4173 15.8572Z" fill="#050505"/>
<path d="M77.3611 5.44943C77.4414 5.31218 77.5298 5.17987 77.6259 5.05319C77.719 5.22868 77.9058 5.41356 77.8893 5.57807C77.8077 6.38975 77.7102 7.20372 77.5485 8.00278C77.1165 10.1375 76.6488 12.2649 76.1519 14.5995C75.0212 12.9496 73.9603 11.4014 72.8594 9.79494C74.0102 8.8284 75.1353 7.9336 76.1963 6.96866C76.6351 6.50293 77.0254 5.9939 77.3611 5.44943Z" fill="#050504"/>
<path d="M142.094 8.46139C141.318 9.98585 140.152 11.0699 138.636 12.1346C138.673 10.7507 138.891 9.52095 137.871 8.55049C138.991 8.19802 140.018 7.88164 141.041 7.55126C141.839 7.29312 141.779 8.06743 142.094 8.46139Z" fill="#080708"/>
<path d="M48.7723 14.8762C48.6577 14.7436 48.5704 14.5897 48.5156 14.4233L48.5928 14.334C48.7105 14.4339 48.8175 14.5458 48.912 14.6679C48.8879 14.7499 48.8391 14.8226 48.7723 14.8762Z" fill="black"/>
<path d="M147.138 12.917C147.16 12.7195 147.232 12.5306 147.347 12.3679C147.354 12.6042 147.346 12.8408 147.322 13.0761C147.259 13.082 147.222 13.0367 147.138 12.917Z" fill="black"/>
<path d="M16.5464 5.93239C17.5668 4.86158 18.6921 4.36977 20.1441 4.91245C20.1403 5.55861 19.9992 6.19658 19.7303 6.78435C19.4614 7.37211 19.0706 7.89629 18.5839 8.32226C17.6393 9.13378 16.6486 9.89026 15.6168 10.5879C16.2641 11.9945 17.1932 12.2006 18.3906 11.2951C18.9249 10.8769 19.5253 10.5504 20.167 10.329C21.0323 10.0524 21.598 10.5792 21.5701 11.486C21.5177 13.1877 19.1551 16.0005 17.4908 16.3148C17.2899 16.3361 17.0873 16.2929 16.9127 16.1915C16.4733 15.9516 16.0558 15.6718 15.4612 15.3037C15.3469 12.8465 14.4749 10.1813 15.6377 7.5425C15.9098 6.98905 16.2132 6.45147 16.5464 5.93239Z" fill="#EDECE4"/>
<path d="M87.7631 8.45856C86.2257 12.0156 83.7238 14.5435 80.0923 16.2802C80.1665 15.6825 80.1789 15.2591 80.2756 14.8557C80.9298 12.1264 81.5823 9.39645 82.2795 6.67801C82.5022 5.80973 82.5271 5.05941 81.4439 4.3754C81.9952 4.32655 82.5499 4.33231 83.1001 4.39262C84.19 4.63742 85.2645 4.94654 86.3177 5.31834C87.8933 5.89576 88.2734 6.77253 87.7631 8.45856ZM83.3966 10.097L82.952 11.885C84.3721 10.6035 85.5366 9.18202 86.117 7.27315C85.4743 7.04509 84.8823 6.83501 84.2591 6.61387C83.9655 7.80703 83.6997 8.88699 83.3966 10.097Z" fill="#EDECE4"/>
<path d="M96.4913 11.1373C96.1146 11.459 95.7774 11.736 95.3617 12.0776C95.0047 9.40086 97.6862 5.362 100.481 4.36075C100.468 4.8168 100.417 5.27101 100.329 5.71875C99.8443 7.40166 98.6231 8.61294 97.5511 9.91627C97.2215 10.3169 96.8715 10.7009 96.4913 11.1373Z" fill="#EDECE4"/>
<path d="M42.6964 5.75446C42.9743 5.63614 43.202 5.55443 43.6214 5.4039C43.7463 7.18798 43.8645 8.8749 43.9873 10.6267C42.4228 10.8918 40.9587 11.1399 39.2266 11.4334C39.9886 10.0196 40.6286 8.75668 41.3435 7.53747C41.753 6.91293 42.2051 6.31721 42.6964 5.75446Z" fill="#EDECE4"/>
<path d="M112.856 6.14107C113.278 5.86456 113.662 5.63449 114.252 5.28122C114.38 7.20268 114.493 8.89723 114.608 10.6324C113.018 10.8991 111.552 11.145 110.086 11.3908L109.889 11.2293C110.865 9.54871 111.842 7.86809 112.856 6.14107Z" fill="#EDECE4"/>
<path d="M7.06006 11.5608C7.4882 10.7152 8.11142 10.8731 8.79698 11.1087C8.83769 12.1985 8.33862 12.9199 7.18638 13.4802C7.13424 12.7993 7.08923 12.2116 7.06006 11.5608Z" fill="#EDECE4"/>
<path d="M5.43066 9.25971C5.42665 9.74373 5.46941 10.2262 4.89353 10.2512C4.60942 10.2635 4.08791 10.1124 4.06827 9.97789C3.96286 9.44366 3.98524 8.89213 4.13358 8.36815C4.24 8.07152 4.75764 7.92185 5.22446 7.61942C5.3065 8.2486 5.36771 8.7181 5.43066 9.25971Z" fill="#EDECE4"/>
<path d="M83.415 10.032C83.6994 8.887 83.9652 7.80706 84.2588 6.61389C84.8819 6.83503 85.474 7.04511 86.1167 7.27317C85.5363 9.18204 84.3718 10.6035 82.9517 11.885C83.0999 11.289 83.2481 10.693 83.415 10.032Z" fill="#080708"/>
</g>
<defs>
<clipPath id="clip0_3847_2854">
<rect width="163" height="22" fill="white"/>
</clipPath>
</defs>
</svg>
