<svg width="40" height="40" viewBox="0 0 40 40" fill="none" xmlns="http://www.w3.org/2000/svg">
<path d="M32.5 8.75H28.1688L26.0391 5.55625C25.925 5.38524 25.7704 5.245 25.5892 5.14798C25.408 5.05095 25.2056 5.00012 25 5H15C14.7944 5.00012 14.592 5.05095 14.4108 5.14798C14.2296 5.245 14.075 5.38524 13.9609 5.55625L11.8297 8.75H7.5C6.50544 8.75 5.55161 9.14509 4.84835 9.84835C4.14509 10.5516 3.75 11.5054 3.75 12.5V30C3.75 30.9946 4.14509 31.9484 4.84835 32.6517C5.55161 33.3549 6.50544 33.75 7.5 33.75H32.5C33.4946 33.75 34.4484 33.3549 35.1517 32.6517C35.8549 31.9484 36.25 30.9946 36.25 30V12.5C36.25 11.5054 35.8549 10.5516 35.1517 9.84835C34.4484 9.14509 33.4946 8.75 32.5 8.75ZM25.625 20.625C25.625 21.7375 25.2951 22.8251 24.677 23.7501C24.0589 24.6751 23.1804 25.3961 22.1526 25.8218C21.1248 26.2476 19.9938 26.359 18.9026 26.1419C17.8115 25.9249 16.8092 25.3891 16.0225 24.6025C15.2359 23.8158 14.7001 22.8135 14.4831 21.7224C14.266 20.6312 14.3774 19.5002 14.8032 18.4724C15.2289 17.4446 15.9499 16.5661 16.8749 15.948C17.7999 15.3299 18.8875 15 20 15C21.4918 15 22.9226 15.5926 23.9775 16.6475C25.0324 17.7024 25.625 19.1332 25.625 20.625Z" fill="url(#paint0_linear_3847_3454)"/>
<defs>
<linearGradient id="paint0_linear_3847_3454" x1="20" y1="5" x2="20" y2="33.75" gradientUnits="userSpaceOnUse">
<stop stop-color="#56BCCA"/>
<stop offset="1" stop-color="#6E3BDF"/>
</linearGradient>
</defs>
</svg>
