<svg width="76" height="31" viewBox="0 0 76 31" fill="none" xmlns="http://www.w3.org/2000/svg">
<path d="M4.72432 4.72097C5.21301 4.72097 5.65784 4.77726 6.05881 4.88984C6.47232 4.98991 6.81064 5.12126 7.07378 5.28387C7.39958 5.484 7.65019 5.73418 7.82561 6.03439C8.01357 6.3221 8.10754 6.65983 8.10754 7.0476C8.10754 7.48541 7.96971 7.84816 7.69404 8.13587C7.41837 8.41103 7.06125 8.54866 6.62268 8.54866C6.18412 8.54866 5.83326 8.4236 5.57012 8.17339C5.30698 7.92322 5.17542 7.58548 5.17542 7.16018C5.17542 6.7599 5.30072 6.42842 5.55133 6.16574C5.80194 5.89055 6.09014 5.70916 6.41593 5.6216C6.31569 5.49652 6.16533 5.39019 5.96483 5.30263C5.76435 5.21507 5.5388 5.17129 5.28819 5.17129C4.89975 5.17129 4.55516 5.28387 4.25443 5.50903C3.96623 5.73418 3.72189 6.0469 3.52139 6.44718C3.32091 6.84747 3.16428 7.31655 3.0515 7.85442C2.95126 8.39227 2.90114 8.98021 2.90114 9.61816C2.90114 10.5814 3.02018 11.3381 3.25825 11.8885C3.50887 12.4389 3.82212 12.8267 4.19804 13.0518C4.58649 13.277 4.98746 13.3896 5.40096 13.3896C5.63905 13.3896 5.89592 13.352 6.17159 13.277C6.45979 13.2019 6.74799 13.0518 7.03619 12.8267C7.33692 12.6015 7.6126 12.2825 7.8632 11.8697L8.18271 11.9823C8.0449 12.4451 7.81935 12.908 7.50608 13.3708C7.19282 13.8336 6.78559 14.2151 6.28436 14.5153C5.78315 14.8031 5.16916 14.9469 4.44238 14.9469C3.62791 14.9469 2.88861 14.7717 2.22449 14.4215C1.57291 14.0587 1.04663 13.5084 0.645654 12.7704C0.25721 12.0198 0.0629883 11.0566 0.0629883 9.88084C0.0629883 8.75505 0.263476 7.81064 0.664451 7.0476C1.07795 6.27206 1.63556 5.6904 2.33726 5.30263C3.03897 4.91486 3.83466 4.72097 4.72432 4.72097ZM15.6276 4.72097C16.0285 4.72097 16.3543 4.80853 16.605 4.98366C16.8555 5.14627 17.0373 5.35892 17.1501 5.6216C17.2753 5.88429 17.338 6.15948 17.338 6.44718C17.338 6.91 17.2002 7.29152 16.9245 7.59174C16.6614 7.87944 16.3105 8.02329 15.8719 8.02329C15.4334 8.02329 15.0887 7.91697 14.8382 7.70431C14.6001 7.47916 14.4811 7.1852 14.4811 6.82245C14.4811 6.4722 14.5563 6.1845 14.7066 5.95934C14.8695 5.72168 15.0699 5.52153 15.3081 5.35892C15.1326 5.30889 14.9572 5.31514 14.7818 5.37768C14.5437 5.41521 14.3181 5.51528 14.1052 5.67789C13.8921 5.828 13.7104 6.02189 13.5601 6.25955C13.4097 6.48471 13.2906 6.73489 13.203 7.01008C13.1152 7.27276 13.0714 7.52919 13.0714 7.77937V12.7516C13.0714 13.352 13.2155 13.7585 13.5037 13.9712C13.8044 14.1839 14.2492 14.2902 14.8382 14.2902V14.6842C14.55 14.6717 14.1302 14.6592 13.5789 14.6467C13.0275 14.6216 12.4511 14.6092 11.8497 14.6092C11.3484 14.6092 10.8409 14.6216 10.3272 14.6467C9.81344 14.6592 9.42502 14.6717 9.16188 14.6842V14.2902C9.6004 14.2902 9.90742 14.1964 10.0829 14.0087C10.2708 13.8211 10.3648 13.4646 10.3648 12.9392V7.02884C10.3648 6.46595 10.277 6.05316 10.1017 5.79047C9.93872 5.51528 9.62548 5.37768 9.16188 5.37768V4.98366C9.5628 5.02118 9.9513 5.03995 10.3272 5.03995C10.8535 5.03995 11.3422 5.02118 11.7933 4.98366C12.2569 4.93362 12.6829 4.86482 13.0714 4.77726V6.52224C13.2218 6.1845 13.4222 5.87803 13.6729 5.60284C13.9234 5.32765 14.2116 5.115 14.5375 4.96489C14.8632 4.80228 15.2266 4.72097 15.6276 4.72097ZM22.528 4.72097C23.6306 4.72097 24.4953 5.0462 25.1218 5.69666C25.7483 6.34711 26.0616 7.41036 26.0616 8.88639H19.8778L19.8402 8.52989H23.6933C23.7058 7.91697 23.6682 7.35407 23.5806 6.84121C23.4928 6.31584 23.355 5.89679 23.167 5.58408C22.9791 5.27136 22.7285 5.115 22.4152 5.115C21.9766 5.115 21.6007 5.39019 21.2875 5.94058C20.9867 6.49097 20.805 7.4041 20.7424 8.68L20.7988 8.79258C20.7862 8.94268 20.7737 9.09907 20.7612 9.26166C20.7612 9.42424 20.7612 9.59311 20.7612 9.76826C20.7612 10.6314 20.8802 11.3319 21.1183 11.8697C21.3689 12.4076 21.6822 12.8016 22.0581 13.0518C22.434 13.2895 22.8161 13.4083 23.2046 13.4083C23.4678 13.4083 23.7371 13.3708 24.0129 13.2957C24.301 13.2082 24.5892 13.0581 24.8775 12.8454C25.1656 12.6203 25.435 12.3076 25.6857 11.9073L26.024 12.0198C25.8736 12.4952 25.6355 12.958 25.3098 13.4083C24.9839 13.8586 24.5704 14.2276 24.0692 14.5153C23.568 14.8031 22.9665 14.9469 22.2649 14.9469C21.4128 14.9469 20.6609 14.7655 20.0094 14.4028C19.3577 14.04 18.844 13.4896 18.4681 12.7516C18.1047 12.0136 17.923 11.0754 17.923 9.93713C17.923 8.77381 18.1172 7.80439 18.5057 7.02884C18.9066 6.25329 19.4517 5.67789 20.1409 5.30263C20.8426 4.91486 21.6383 4.72097 22.528 4.72097ZM29.7437 14.8156C29.1799 14.8156 28.71 14.7093 28.3341 14.4966C27.9582 14.2839 27.6825 14.0025 27.5071 13.6522C27.3316 13.2895 27.2439 12.8954 27.2439 12.4702C27.2439 11.9323 27.363 11.4945 27.601 11.1567C27.8517 10.819 28.1712 10.5438 28.5596 10.3312C28.948 10.1185 29.3553 9.94341 29.7813 9.80579C30.2199 9.66816 30.6334 9.53682 31.0219 9.41176C31.4229 9.27414 31.7424 9.11783 31.9804 8.94268C32.2311 8.75505 32.3563 8.51741 32.3563 8.22968V6.76616C32.3563 6.44093 32.3 6.15323 32.1872 5.90305C32.0869 5.64037 31.924 5.44023 31.6985 5.30263C31.4855 5.16503 31.2035 5.09624 30.8527 5.09624C30.6021 5.09624 30.3515 5.13376 30.1009 5.20881C29.8502 5.27136 29.6435 5.38394 29.4806 5.54655C29.8314 5.67164 30.1009 5.86552 30.2888 6.12821C30.4893 6.37839 30.5896 6.66608 30.5896 6.99131C30.5896 7.41661 30.4392 7.75435 30.1385 8.00453C29.8502 8.25473 29.5057 8.37979 29.1047 8.37979C28.6536 8.37979 28.309 8.24216 28.0709 7.967C27.8454 7.67929 27.7326 7.33531 27.7326 6.93503C27.7326 6.57227 27.8203 6.27206 27.9957 6.03439C28.1837 5.79673 28.4406 5.57157 28.7664 5.35892C29.1172 5.15878 29.537 5.00242 30.0257 4.88984C30.5269 4.77726 31.0657 4.72097 31.6421 4.72097C32.2185 4.72097 32.7386 4.78352 33.2022 4.9086C33.6658 5.02118 34.0543 5.23383 34.3675 5.54655C34.6557 5.83426 34.8437 6.19076 34.9314 6.61605C35.019 7.02884 35.0629 7.55421 35.0629 8.19216V13.2957C35.0629 13.6084 35.0942 13.8274 35.1569 13.9524C35.2196 14.065 35.3261 14.1213 35.4764 14.1213C35.5892 14.1213 35.6957 14.0901 35.796 14.0275C35.9087 13.9649 36.0278 13.8899 36.1531 13.8023L36.341 14.1213C36.0779 14.3465 35.7709 14.5216 35.42 14.6467C35.0817 14.7593 34.6995 14.8156 34.2735 14.8156C33.8099 14.8156 33.4402 14.753 33.1646 14.6279C32.8889 14.4903 32.6884 14.3089 32.5631 14.0838C32.4503 13.8586 32.3939 13.5959 32.3939 13.2957C32.0932 13.7711 31.7298 14.1464 31.3038 14.4215C30.8778 14.6842 30.3577 14.8156 29.7437 14.8156ZM31.0782 13.6147C31.3289 13.6147 31.5544 13.5584 31.7549 13.4458C31.9679 13.3208 32.1684 13.1206 32.3563 12.8454V8.99897C32.2436 9.1866 32.0869 9.35547 31.8865 9.50558C31.686 9.65568 31.4729 9.81207 31.2474 9.97466C31.0219 10.1248 30.8026 10.2936 30.5896 10.4813C30.3891 10.6689 30.2261 10.9003 30.1009 11.1755C29.9756 11.4507 29.9129 11.7822 29.9129 12.1699C29.9129 12.6578 30.0194 13.0206 30.2324 13.2582C30.4455 13.4958 30.7274 13.6147 31.0782 13.6147ZM40.6937 1.9065V4.98366H42.9116V5.35892H40.6937V12.9392C40.6937 13.3145 40.7626 13.5835 40.9005 13.7461C41.0383 13.8962 41.2451 13.9712 41.5207 13.9712C41.7463 13.9712 41.9718 13.8899 42.1974 13.7273C42.4229 13.5521 42.6234 13.2582 42.7988 12.8454L43.1184 13.0143C42.9179 13.5772 42.6109 14.04 42.1974 14.4028C41.7964 14.7655 41.2451 14.9469 40.5433 14.9469C40.1298 14.9469 39.7664 14.8906 39.4532 14.778C39.14 14.6779 38.8768 14.5216 38.6638 14.3089C38.3881 14.0338 38.2064 13.696 38.1187 13.2957C38.031 12.8829 37.9871 12.3513 37.9871 11.7009V5.35892H36.4083V4.98366H37.9871V2.50692C38.5134 2.50692 38.9958 2.46314 39.4344 2.37558C39.8855 2.2755 40.3053 2.11915 40.6937 1.9065ZM45.9295 0.142761C46.4557 0.142761 46.8692 0.274103 47.17 0.536788C47.4833 0.786963 47.6399 1.13721 47.6399 1.58753C47.6399 2.03784 47.4833 2.39434 47.17 2.65703C46.8692 2.9072 46.4557 3.03229 45.9295 3.03229C45.4032 3.03229 44.9835 2.9072 44.6701 2.65703C44.3694 2.39434 44.219 2.03784 44.219 1.58753C44.219 1.13721 44.3694 0.786963 44.6701 0.536788C44.9835 0.274103 45.4032 0.142761 45.9295 0.142761ZM47.3955 4.77726V12.9392C47.3955 13.4646 47.4833 13.8211 47.6587 14.0087C47.8466 14.1964 48.1599 14.2902 48.5984 14.2902V14.6842C48.3729 14.6717 48.0221 14.6592 47.5459 14.6467C47.0698 14.6216 46.5873 14.6092 46.0986 14.6092C45.6099 14.6092 45.115 14.6216 44.6138 14.6467C44.1126 14.6592 43.7367 14.6717 43.486 14.6842V14.2902C43.9246 14.2902 44.2316 14.1964 44.407 14.0087C44.595 13.8211 44.6889 13.4646 44.6889 12.9392V7.02884C44.6889 6.46595 44.6013 6.05316 44.4258 5.79047C44.2629 5.51528 43.9497 5.37768 43.486 5.37768V4.98366C43.887 5.02118 44.2754 5.03995 44.6513 5.03995C45.1776 5.03995 45.6663 5.02118 46.1174 4.98366C46.5811 4.93362 47.0071 4.86482 47.3955 4.77726ZM58.4197 4.98366V5.35892C58.1815 5.42147 57.956 5.57157 57.743 5.80924C57.53 6.03439 57.3232 6.42216 57.1228 6.97255L54.3786 14.7217C54.1781 14.7093 53.9713 14.703 53.7584 14.703C53.5578 14.703 53.3574 14.7093 53.1569 14.7217L49.8113 6.42842C49.6107 5.94058 49.4103 5.64662 49.2098 5.54655C49.0218 5.43397 48.8589 5.37768 48.7211 5.37768V4.98366C49.122 5.00868 49.5355 5.03369 49.9616 5.05871C50.4001 5.07122 50.8763 5.07747 51.3901 5.07747C51.7785 5.07747 52.1857 5.07122 52.6118 5.05871C53.0503 5.03369 53.4576 5.00868 53.8335 4.98366V5.37768C53.5704 5.37768 53.3323 5.39019 53.1193 5.41521C52.9188 5.44023 52.781 5.52153 52.7058 5.65913C52.6306 5.79673 52.6431 6.04065 52.7434 6.39089L54.9425 12.2075L54.7545 12.4702L56.2394 8.36102C56.4774 7.68555 56.5777 7.13516 56.5401 6.70987C56.5025 6.27206 56.3647 5.94684 56.1266 5.73418C55.8885 5.50903 55.569 5.38394 55.168 5.35892V4.98366C55.356 4.99616 55.5564 5.00868 55.7695 5.02118C55.995 5.02118 56.208 5.02744 56.4085 5.03995C56.6215 5.03995 56.8095 5.03995 56.9724 5.03995C57.223 5.03995 57.4861 5.03369 57.7618 5.02118C58.0375 5.00868 58.2567 4.99616 58.4197 4.98366ZM63.46 4.72097C64.5627 4.72097 65.4273 5.0462 66.0538 5.69666C66.6803 6.34711 66.9935 7.41036 66.9935 8.88639H60.8098L60.7722 8.52989H64.6253C64.6379 7.91697 64.6003 7.35407 64.5125 6.84121C64.4248 6.31584 64.287 5.89679 64.099 5.58408C63.911 5.27136 63.6605 5.115 63.3472 5.115C62.9087 5.115 62.5328 5.39019 62.2194 5.94058C61.9187 6.49097 61.737 7.4041 61.6744 8.68L61.7308 8.79258C61.7183 8.94268 61.7057 9.09907 61.6932 9.26166C61.6932 9.42424 61.6932 9.59311 61.6932 9.76826C61.6932 10.6314 61.8122 11.3319 62.0503 11.8697C62.3009 12.4076 62.6142 12.8016 62.9901 13.0518C63.366 13.2895 63.7482 13.4083 64.1366 13.4083C64.3997 13.4083 64.6692 13.3708 64.9448 13.2957C65.233 13.2082 65.5213 13.0581 65.8094 12.8454C66.0976 12.6203 66.3671 12.3076 66.6176 11.9073L66.956 12.0198C66.8056 12.4952 66.5675 12.958 66.2417 13.4083C65.916 13.8586 65.5025 14.2276 65.0012 14.5153C64.5 14.8031 63.8985 14.9469 63.1968 14.9469C62.3448 14.9469 61.593 14.7655 60.9413 14.4028C60.2898 14.04 59.776 13.4896 59.4001 12.7516C59.0368 12.0136 58.855 11.0754 58.855 9.93713C58.855 8.77381 59.0493 7.80439 59.4377 7.02884C59.8387 6.25329 60.3838 5.67789 61.0729 5.30263C61.7746 4.91486 62.5703 4.72097 63.46 4.72097ZM71.8035 4.72097C72.3298 4.72097 72.7872 4.78977 73.1756 4.92737C73.5766 5.05245 73.8648 5.17755 74.0402 5.30263C74.4662 5.59033 74.7294 5.4027 74.8296 4.73974H75.2243C75.1993 5.08998 75.1805 5.52153 75.168 6.03439C75.1554 6.53474 75.1492 7.20397 75.1492 8.04205H74.7545C74.6918 7.57923 74.5728 7.12266 74.3973 6.67234C74.2219 6.22202 73.965 5.85302 73.6267 5.56531C73.3009 5.27761 72.8749 5.13376 72.3486 5.13376C71.9852 5.13376 71.6783 5.24008 71.4276 5.45274C71.177 5.65287 71.0517 5.94684 71.0517 6.3346C71.0517 6.70987 71.1645 7.04135 71.39 7.32905C71.6156 7.60424 71.9038 7.87318 72.2546 8.13587C72.618 8.38607 72.9939 8.65495 73.3824 8.94268C73.7959 9.25537 74.1718 9.56815 74.5101 9.88084C74.8484 10.1811 75.1179 10.5125 75.3183 10.8753C75.5188 11.2381 75.6191 11.6696 75.6191 12.1699C75.6191 12.7328 75.4562 13.227 75.1304 13.6522C74.8046 14.065 74.3722 14.384 73.8335 14.6092C73.3072 14.8343 72.7182 14.9469 72.0667 14.9469C71.6908 14.9469 71.3524 14.9094 71.0517 14.8343C70.7635 14.7593 70.5129 14.6654 70.2999 14.5529C70.137 14.4778 69.9803 14.409 69.83 14.3465C69.6921 14.2714 69.5605 14.2088 69.4353 14.1588C69.31 14.1213 69.1972 14.1651 69.097 14.2902C69.0093 14.4152 68.9403 14.5904 68.8902 14.8156H68.4955C68.5206 14.4152 68.5394 13.9274 68.5519 13.352C68.5644 12.7766 68.5707 12.0136 68.5707 11.0629H68.9654C69.0406 11.7384 69.1784 12.3388 69.3789 12.8642C69.5793 13.3771 69.8488 13.7836 70.1871 14.0838C70.5379 14.3715 70.9765 14.5153 71.5028 14.5153C71.7158 14.5153 71.9226 14.4715 72.1231 14.384C72.3235 14.2965 72.4865 14.1526 72.6117 13.9524C72.7496 13.7523 72.8185 13.4958 72.8185 13.1832C72.8185 12.6327 72.6368 12.1762 72.2734 11.8134C71.9226 11.4507 71.4715 11.0566 70.9201 10.6314C70.5191 10.3061 70.137 9.98714 69.7736 9.67445C69.4228 9.34919 69.1345 8.99897 68.909 8.62371C68.6834 8.23596 68.5707 7.79813 68.5707 7.31029C68.5707 6.74739 68.721 6.27206 69.0218 5.88429C69.3225 5.49652 69.7172 5.20882 70.2059 5.02118C70.7071 4.82105 71.2397 4.72097 71.8035 4.72097ZM33.947 15.4927V28.1203C33.947 28.6832 34.0347 29.1022 34.2102 29.3774C34.3855 29.6401 34.6989 29.7714 35.15 29.7714V30.1654C34.7615 30.1279 34.373 30.1092 33.9846 30.1092C33.4583 30.1092 32.9634 30.1279 32.4998 30.1654C32.0487 30.203 31.6289 30.2717 31.2405 30.3718V17.7442C31.2405 17.1813 31.1527 16.7686 30.9773 16.5059C30.8144 16.2307 30.5011 16.0931 30.0375 16.0931V15.6991C30.4385 15.7366 30.827 15.7553 31.2029 15.7553C31.7166 15.7553 32.2052 15.7366 32.6689 15.6991C33.1325 15.649 33.5585 15.5802 33.947 15.4927ZM29.1541 20.221C29.7054 20.221 30.1879 20.3148 30.6014 20.5024C31.0274 20.6776 31.3594 20.9778 31.5976 21.4031L31.372 21.6094C31.2091 21.3092 30.9898 21.0966 30.7142 20.9715C30.451 20.8339 30.1691 20.7651 29.8684 20.7651C29.2293 20.7651 28.7218 21.1404 28.3459 21.8909C27.97 22.6289 27.7883 23.7735 27.8008 25.3246C27.8008 26.3878 27.8697 27.2384 28.0076 27.8763C28.158 28.5018 28.3647 28.9521 28.6279 29.2273C28.9035 29.5025 29.2167 29.6401 29.5676 29.6401C29.9936 29.6401 30.3759 29.4712 30.7142 29.1335C31.0525 28.7957 31.2342 28.3391 31.2593 27.7638L31.3532 28.4205C31.1653 29.0835 30.8582 29.5901 30.4322 29.9403C30.0187 30.278 29.4737 30.4469 28.797 30.4469C28.0577 30.4469 27.3935 30.2655 26.8047 29.9028C26.2282 29.54 25.7771 28.9834 25.4514 28.2328C25.1256 27.4698 24.9627 26.4879 24.9627 25.287C24.9627 24.1488 25.1444 23.2106 25.5078 22.4726C25.8711 21.722 26.3661 21.1591 26.9926 20.7839C27.6317 20.4086 28.3521 20.221 29.1541 20.221ZM38.5267 30.3155C37.9629 30.3155 37.493 30.2093 37.1171 29.9966C36.7411 29.7839 36.4654 29.5025 36.29 29.1522C36.1146 28.7895 36.0269 28.3954 36.0269 27.9702C36.0269 27.4323 36.1459 26.9945 36.384 26.6567C36.6346 26.319 36.9541 26.0438 37.3426 25.8312C37.731 25.6185 38.1382 25.4434 38.5643 25.3058C39.0028 25.1682 39.4163 25.0368 39.8048 24.9118C40.2058 24.7741 40.5253 24.6178 40.7634 24.4427C41.014 24.2551 41.1393 24.0174 41.1393 23.7297V22.2662C41.1393 21.9409 41.0829 21.6533 40.9702 21.4031C40.8699 21.1404 40.707 20.9403 40.4815 20.8026C40.2684 20.665 39.9865 20.5962 39.6357 20.5962C39.385 20.5962 39.1344 20.6338 38.8839 20.7088C38.6332 20.7714 38.4265 20.884 38.2636 21.0466C38.6144 21.1716 38.8839 21.3655 39.0718 21.6282C39.2723 21.8784 39.3725 22.1661 39.3725 22.4913C39.3725 22.9166 39.2222 23.2543 38.9214 23.5045C38.6332 23.7547 38.2886 23.8798 37.8877 23.8798C37.4366 23.8798 37.092 23.7422 36.8539 23.467C36.6284 23.1793 36.5156 22.8353 36.5156 22.435C36.5156 22.0722 36.6033 21.772 36.7787 21.5344C36.9667 21.2968 37.2235 21.0716 37.5494 20.8589C37.9002 20.6588 38.32 20.5024 38.8087 20.3898C39.3099 20.2773 39.8486 20.221 40.4251 20.221C41.0015 20.221 41.5215 20.2835 41.9851 20.4086C42.4487 20.5212 42.8372 20.7339 43.1505 21.0466C43.4386 21.3343 43.6266 21.6908 43.7143 22.1161C43.802 22.5288 43.8459 23.0542 43.8459 23.6922V28.7957C43.8459 29.1084 43.8772 29.3274 43.9399 29.4524C44.0025 29.565 44.1091 29.6213 44.2594 29.6213C44.3722 29.6213 44.4787 29.5901 44.5789 29.5275C44.6917 29.4649 44.8107 29.3899 44.9361 29.3023L45.124 29.6213C44.8609 29.8465 44.5539 30.0216 44.203 30.1467C43.8647 30.2593 43.4825 30.3155 43.0565 30.3155C42.5928 30.3155 42.2232 30.253 41.9475 30.1279C41.6718 29.9903 41.4714 29.8089 41.3461 29.5838C41.2333 29.3586 41.1769 29.0959 41.1769 28.7957C40.8762 29.2711 40.5128 29.6464 40.0868 29.9215C39.6607 30.1842 39.1407 30.3155 38.5267 30.3155ZM39.8612 29.1147C40.1118 29.1147 40.3373 29.0584 40.5379 28.9458C40.7508 28.8208 40.9514 28.6206 41.1393 28.3454V24.499C41.0266 24.6866 40.8699 24.8555 40.6694 25.0056C40.4689 25.1557 40.2559 25.3121 40.0304 25.4747C39.8048 25.6248 39.5855 25.7936 39.3725 25.9813C39.172 26.1689 39.0091 26.4003 38.8839 26.6755C38.7585 26.9507 38.6959 27.2822 38.6959 27.6699C38.6959 28.1578 38.8024 28.5206 39.0154 28.7582C39.2284 28.9958 39.5103 29.1147 39.8612 29.1147ZM50.5105 20.221C51.4252 20.221 52.2271 20.3898 52.9163 20.7276C53.6055 21.0653 54.1442 21.6094 54.5327 22.36C54.9212 23.1105 55.1154 24.1049 55.1154 25.3433C55.1154 26.5817 54.9212 27.5761 54.5327 28.3267C54.1442 29.0647 53.6055 29.6026 52.9163 29.9403C52.2271 30.278 51.4252 30.4469 50.5105 30.4469C49.6208 30.4469 48.8251 30.278 48.1234 29.9403C47.4342 29.6026 46.8891 29.0647 46.4882 28.3267C46.0997 27.5761 45.9055 26.5817 45.9055 25.3433C45.9055 24.1049 46.0997 23.1105 46.4882 22.36C46.8891 21.6094 47.4342 21.0653 48.1234 20.7276C48.8251 20.3898 49.6208 20.221 50.5105 20.221ZM50.5105 20.5962C50.0092 20.5962 49.5895 20.9715 49.2511 21.722C48.9128 22.4601 48.7437 23.6671 48.7437 25.3433C48.7437 27.0195 48.9128 28.2266 49.2511 28.9646C49.5895 29.7026 50.0092 30.0716 50.5105 30.0716C51.0242 30.0716 51.444 29.7026 51.7698 28.9646C52.1081 28.2266 52.2773 27.0195 52.2773 25.3433C52.2773 23.6671 52.1081 22.4601 51.7698 21.722C51.444 20.9715 51.0242 20.5962 50.5105 20.5962Z" fill="white"/>
</svg>
