<svg width="64" height="64" viewBox="0 0 64 64" fill="none" xmlns="http://www.w3.org/2000/svg">
<g clip-path="url(#clip0_3847_2550)">
<path d="M7.76905 31.0002C6.76033 28.9924 6.20617 26.8961 6.28334 24.656C6.29439 24.3351 6.33592 24.0086 6.41677 23.6986C6.49107 23.4137 6.70388 23.3135 6.97823 23.3881C8.68926 23.8527 10.3635 24.4031 11.8426 25.4241C12.7991 26.0843 13.6457 26.8515 14.3016 27.8166C14.3197 27.8433 14.3434 27.8663 14.3863 27.9168C14.5052 27.6924 14.6278 27.4887 14.7185 27.2717C14.7429 27.2131 14.6861 27.1037 14.6399 27.0355C13.7985 25.7944 13.1717 24.4572 12.8997 22.9787C12.6239 21.4797 12.5625 19.9612 12.7618 18.4514C12.9085 17.3407 13.1622 16.2437 13.3825 15.1434C13.426 14.9261 13.5205 14.7151 13.6158 14.5127C13.8274 14.0633 14.0478 13.9918 14.4976 14.2141C15.6508 14.784 16.762 15.4251 17.8195 16.1586C18.9608 16.9502 19.9522 17.8935 20.7651 19.0202C21.1378 19.5367 21.4358 20.0912 21.5996 20.7348C21.6701 20.7047 21.729 20.6843 21.7833 20.6554C22.6224 20.209 23.4623 19.764 24.2973 19.3101C24.3799 19.2652 24.4727 19.1732 24.4919 19.0876C24.8601 17.449 25.5467 15.9361 26.2988 14.4459C27.5493 11.9684 29.2212 9.7968 31.1173 7.7856C31.332 7.5579 31.6395 7.55849 31.8509 7.78028C34.2299 10.2773 36.1881 13.059 37.5163 16.2506C37.895 17.1608 38.1505 18.1219 38.4678 19.0578C38.496 19.1412 38.5452 19.2445 38.6153 19.2826C39.4939 19.7615 40.378 20.2302 41.2611 20.7006C41.2885 20.7152 41.3207 20.7207 41.34 20.7269C41.9864 18.8544 43.3105 17.5397 44.8335 16.3927C45.9622 15.5426 47.1881 14.847 48.4551 14.2233C48.9279 13.9906 49.1928 14.0505 49.3597 14.5454C49.6008 15.2601 49.8001 15.9934 49.9544 16.7318C50.3407 18.5805 50.408 20.447 50.1738 22.323C49.9632 24.0096 49.332 25.5351 48.3834 26.9338C48.2413 27.1432 48.2091 27.2997 48.3574 27.5052C48.4438 27.6249 48.4974 27.7681 48.5731 27.9151C48.8032 27.6241 49.0098 27.3365 49.243 27.0724C50.5099 25.638 52.0896 24.6736 53.8838 24.0456C54.5523 23.8117 55.2326 23.6102 55.9115 23.4072C56.2715 23.2996 56.4729 23.4054 56.5793 23.763C56.6402 23.9677 56.6685 24.188 56.6741 24.4022C56.7832 28.5769 55.2672 32.0497 52.1382 34.8224C52.0862 34.8686 52.0293 34.9094 51.9912 34.9912C52.127 34.9496 52.2628 34.9083 52.3985 34.8665C53.7637 34.4451 55.1592 34.2283 56.5898 34.2495C57.074 34.2567 57.5585 34.2564 58.0424 34.2745C58.4738 34.2907 58.6257 34.4982 58.5655 34.9324C58.4253 35.9448 58.0315 36.8537 57.4288 37.672C56.5634 38.8471 55.4675 39.7824 54.2714 40.6013C53.738 40.9665 53.1663 41.2759 52.6343 41.5971C53.0171 41.6741 53.4301 41.7488 53.8391 41.8412C54.9513 42.0924 55.9456 42.6208 56.9291 43.1707C57.1552 43.2971 57.189 43.4662 57.0589 43.6954C56.7026 44.3235 56.1716 44.7752 55.5593 45.1325C54.2925 45.8715 52.9382 46.331 51.4549 46.3389C51.2056 46.3402 50.9564 46.2937 50.7066 46.2857C50.6456 46.2837 50.5421 46.3335 50.5263 46.3817C49.8936 48.3146 48.4651 49.5034 46.7394 50.4065C45.1826 51.2211 43.5028 51.6788 41.7958 52.0471C39.15 52.6181 36.4685 52.9404 33.7762 53.189C31.6528 53.385 29.5407 53.2541 27.4295 53.015C25.4146 52.7867 23.4057 52.5218 21.4204 52.1018C19.6952 51.7367 17.9941 51.2914 16.4055 50.5039C15.1262 49.8697 13.9717 49.0667 13.1735 47.8557C12.8514 47.367 12.6173 46.8204 12.3366 46.2876C10.3933 46.5169 8.61301 45.941 6.9761 44.8439C6.53593 44.5489 6.17536 44.166 5.90997 43.7015C5.77725 43.4692 5.80694 43.3076 6.03453 43.1758C7.22365 42.4872 8.45612 41.9055 9.83023 41.6857C10.0024 41.6582 10.1771 41.6466 10.4186 41.6201C10.306 41.5565 10.2367 41.5152 10.1656 41.4775C8.28234 40.4801 6.6376 39.1976 5.39031 37.453C4.88487 36.746 4.5697 35.9501 4.42458 35.0914C4.40391 34.9691 4.39336 34.8424 4.39986 34.7188C4.41444 34.4415 4.5408 34.2968 4.81487 34.2815C6.80232 34.1707 8.76948 34.2614 10.6771 34.9032C10.7523 34.9285 10.8233 34.9668 10.9186 34.9745C10.3403 34.362 9.71764 33.7847 9.19631 33.1273C8.67112 32.4651 8.24663 31.7234 7.76905 31.0002ZM6.76902 44.0865C7.0825 44.3381 7.36306 44.6583 7.71633 44.8269C8.44459 45.1744 9.19951 45.4778 9.96647 45.7295C10.6285 45.9468 11.3303 45.9768 12.027 45.8918C12.0996 45.8829 12.2218 45.7757 12.2172 45.7232C12.1887 45.398 12.1306 45.0753 12.0817 44.7048C12.0961 43.9846 12.1105 43.2643 12.1292 42.5029C12.1655 42.3472 12.1185 42.2487 11.9486 42.2192C11.8506 42.2023 11.7563 42.165 11.659 42.1426C10.6688 41.9153 9.70765 42.0489 8.75221 42.3511C7.87295 42.6292 7.06094 43.0405 6.21862 43.5253C6.32255 43.6007 6.394 43.6526 6.4624 43.7409C6.5632 43.8447 6.66401 43.9485 6.76902 44.0865ZM56.5211 43.6999C56.5866 43.6445 56.6522 43.589 56.733 43.5206C55.7028 42.9038 54.6703 42.4338 53.5497 42.1675C52.7135 41.9688 51.8841 41.9835 51.0532 42.2031C50.8611 42.2539 50.7886 42.3458 50.8274 42.5776C50.8415 42.6914 50.8672 42.8052 50.8678 42.9191C50.8712 43.5303 50.8684 44.1415 50.8682 44.7954C50.8345 45.0483 50.7997 45.3012 50.7675 45.5543C50.733 45.8264 50.775 45.895 51.0469 45.8953C51.4652 45.8959 51.8884 45.9039 52.301 45.8472C53.5553 45.6751 54.7146 45.242 55.7413 44.4904C55.8881 44.3829 56.0013 44.2296 56.1612 44.0816C56.3094 43.9862 56.5126 43.9361 56.5211 43.6999ZM50.6701 39.8387C50.6865 40.2527 50.6966 40.6672 50.7218 41.0807C50.7338 41.2776 50.7642 41.4751 50.8094 41.667C50.8214 41.7182 50.9282 41.7923 50.9753 41.782C51.1427 41.7454 51.3093 41.6902 51.4652 41.6183C52.013 41.3656 52.5669 41.1227 53.0979 40.8379C53.5274 40.6076 53.9391 40.3391 54.3365 40.0564C54.6729 39.8171 54.9934 39.5499 55.2928 39.2656C55.8623 38.7246 56.4546 38.1981 56.9551 37.5974C57.3192 37.1604 57.5653 36.6213 57.8334 36.1117C57.9181 35.9508 57.904 35.7382 57.9512 35.5178C58.0093 35.3561 58.0674 35.1944 58.1439 35.0002C58.1798 34.8428 58.2772 34.6603 57.9789 34.6586C56.6974 34.6514 55.415 34.5964 54.145 34.8483C52.9806 35.0793 51.842 35.3707 50.8222 36.0131C50.6282 36.1353 50.6195 36.2635 50.7153 36.4862C50.716 36.7851 50.7213 37.0842 50.7167 37.383C50.7044 38.1868 50.6879 38.9905 50.6701 39.8387ZM5.07781 35.6557C4.89619 35.8154 5.10741 35.926 5.14371 36.0445C5.33674 36.6748 5.68406 37.2352 6.10736 37.7264C6.55287 38.2434 7.07245 38.6975 7.56604 39.1725C8.27713 39.8567 9.0853 40.4158 9.95102 40.878C10.5542 41.2001 11.2019 41.4401 11.8338 41.7072C12.1023 41.8206 12.1572 41.7943 12.1738 41.558C12.2152 40.9715 12.2431 40.384 12.2769 39.7512C12.2789 38.6386 12.2809 37.526 12.2917 36.376C12.3482 36.1974 12.2787 36.0953 12.1191 35.9961C10.9325 35.2586 9.60832 34.9218 8.24894 34.7699C7.20266 34.653 6.13926 34.6858 5.08329 34.6594C4.75922 34.6513 4.72244 34.7268 4.85906 35.0898C4.78562 35.3483 5.04082 35.4576 5.07781 35.6557ZM50.222 32.7897C50.2591 32.9841 50.3034 33.1775 50.332 33.3731C50.4143 33.936 50.4889 34.5 50.57 35.063C50.5865 35.1778 50.6185 35.2904 50.6489 35.4296C50.7313 35.382 50.7697 35.3663 50.8002 35.3412C51.2158 34.9999 51.6551 34.6827 52.0395 34.3092C52.6487 33.7172 53.2773 33.1305 53.7926 32.461C54.2713 31.8389 54.6622 31.135 55 30.4236C55.3267 29.7355 55.556 28.9982 55.7907 28.2705C55.9533 27.7663 56.1025 27.2479 56.1673 26.7247C56.2504 26.0529 56.2429 25.3699 56.2753 24.6498C56.2583 24.4628 56.2413 24.2758 56.228 24.0506C56.2108 23.9565 56.1935 23.8624 56.1754 23.7639C56.1134 23.7724 56.0802 23.7735 56.049 23.7818C54.8485 24.1037 53.6655 24.4785 52.5538 25.0408C51.1755 25.738 49.9897 26.6698 49.0623 27.9208C48.823 28.2436 48.7621 28.5236 48.9946 28.8533C48.9993 28.86 49.0062 28.8652 49.0145 28.9054C49.2485 29.5414 49.5073 30.1696 49.7095 30.8154C49.9086 31.4512 50.0504 32.1049 50.222 32.7897ZM6.72741 24.8582C6.72337 25.0473 6.70994 25.2368 6.71698 25.4254C6.74158 26.0841 6.76808 26.7409 6.95823 27.3821C7.1143 27.9083 7.20334 28.4556 7.37841 28.9746C7.57638 29.5615 7.79408 30.1499 8.08135 30.6967C8.46442 31.426 8.91041 32.1177 9.43604 32.766C10.2009 33.7094 11.0838 34.5144 12.037 35.2536C12.1107 35.3107 12.1916 35.3586 12.3183 35.4437C12.3604 35.1454 12.3918 34.903 12.4294 34.6615C12.5285 34.0255 12.6303 33.3899 12.7578 32.7255C12.8077 32.5009 12.841 32.271 12.9102 32.0525C13.2462 30.992 13.5918 29.9346 13.965 28.8544C13.9964 28.7865 14.0187 28.7121 14.061 28.6517C14.2019 28.4505 14.1716 28.2728 14.0132 28.0961C13.5362 27.5641 13.1026 26.9859 12.5799 26.5035C11.3953 25.4102 9.96461 24.7331 8.44254 24.239C7.90613 24.0648 7.36409 23.9079 6.7949 23.7341C6.76536 23.8812 6.7447 23.9841 6.71805 24.1338C6.73418 24.3725 6.7503 24.6113 6.72741 24.8582ZM13.7992 15.2173C13.7769 15.26 13.7429 15.3004 13.7339 15.3457C13.5793 16.123 13.4041 16.8972 13.283 17.6798C13.1821 18.3322 13.0944 18.9946 13.0933 19.6527C13.0918 20.5208 13.1372 21.3945 13.2441 22.2558C13.3322 22.9656 13.4918 23.6757 13.7084 24.3577C13.8773 24.8892 14.1728 25.3826 14.4307 25.8834C14.5771 26.1678 14.7611 26.4329 14.9546 26.75C15.093 26.5544 15.2039 26.3947 15.3179 26.2373C15.5592 25.9044 15.807 25.576 16.0413 25.2383C16.1091 25.1406 16.1401 25.0175 16.2231 24.9016C16.3551 24.7675 16.4912 24.6371 16.6185 24.4986C17.8475 23.1619 19.293 22.0999 20.8856 21.17C21.2691 20.9538 21.2709 20.9532 21.1273 20.5282C21.0848 20.4024 21.0361 20.2777 20.9787 20.158C20.424 19.001 19.5737 18.0764 18.6074 17.2615C17.3014 16.1602 15.8266 15.3144 14.2982 14.5599C14.0704 14.4474 13.9625 14.533 13.927 14.8651C13.8953 14.9767 13.8636 15.0883 13.7992 15.2173ZM49.0194 14.81C48.9802 14.4962 48.8949 14.4437 48.6298 14.5801C48.2301 14.7858 47.8275 14.9868 47.4355 15.2064C45.9119 16.0603 44.4483 16.996 43.2719 18.3138C42.6533 19.0068 42.0878 19.7343 41.804 20.6369C41.6931 20.9894 41.7617 21.0838 42.1514 21.1913C42.3693 21.3238 42.5977 21.4419 42.8034 21.5912C43.5603 22.1402 44.3243 22.6812 45.0561 23.2622C45.4617 23.5843 45.809 23.9796 46.182 24.3424C46.375 24.5302 46.5669 24.7191 46.7631 24.9409C47.1688 25.53 47.5745 26.119 47.9919 26.725C48.0647 26.656 48.1164 26.6241 48.1442 26.5779C48.3232 26.2802 48.5083 25.9853 48.6705 25.6785C49.1705 24.7327 49.5182 23.7292 49.703 22.6785C49.8014 22.1192 49.8487 21.5456 49.8587 20.9774C49.8733 20.1566 49.8488 19.334 49.8099 18.5136C49.79 18.0949 49.7136 17.6775 49.6424 17.2631C49.5615 16.7916 49.4661 16.3221 49.3583 15.856C49.3326 15.745 49.2327 15.6511 49.1657 15.5162C49.1655 15.4941 49.1653 15.4721 49.1918 15.4282C49.1673 15.3684 49.1428 15.3086 49.1164 15.2073C49.0778 15.0869 49.0393 14.9666 49.0194 14.81ZM37.8288 25.4024C37.8657 25.3572 37.9215 25.3176 37.9369 25.2661C38.2017 24.3762 38.3558 23.4653 38.3796 22.5388C38.43 20.5764 38.1122 18.6785 37.3543 16.8569C36.2353 14.1674 34.7608 11.6971 32.8472 9.49356C32.4059 8.98536 31.9552 8.48523 31.5036 7.97538C31.4544 8.01443 31.4261 8.03158 31.4045 8.05486C29.6669 9.92195 28.0833 11.9009 26.8939 14.1717C25.8508 16.1633 24.9036 18.1838 24.6822 20.4643C24.5772 21.5457 24.5148 22.6261 24.7035 23.7002C24.824 24.3862 25.0073 25.0613 25.1662 25.7788C25.2385 25.9349 25.303 26.0953 25.3844 26.2465C25.6226 26.6884 25.8367 27.1474 26.1172 27.5613C26.5129 28.1454 26.9386 28.7126 27.3914 29.2538C27.7574 29.6912 28.1893 30.0732 28.5748 30.4953C28.6466 30.5739 28.6371 30.7263 28.6311 30.863C28.4501 30.9558 28.3157 30.8862 28.1922 30.7477C27.6289 30.116 27.0391 29.506 26.5037 28.8516C25.7973 27.9882 25.1872 27.062 24.8266 25.989C24.516 25.0648 24.3018 24.122 24.215 23.1532C24.1728 22.6827 24.1609 22.2078 24.1678 21.7353C24.1741 21.3057 24.2245 20.8768 24.2773 20.4139C24.308 20.2001 24.3388 19.9864 24.375 19.7348C24.2852 19.7741 24.2462 19.7874 24.2109 19.8071C22.953 20.5081 21.6741 21.1744 20.4426 21.9188C18.2089 23.2689 16.3681 25.0196 15.1056 27.3666C15.1141 27.4363 15.1227 27.506 15.132 27.5814C14.8497 27.66 14.8203 27.9244 14.7299 28.1532C14.4245 28.9257 14.0614 29.6794 13.8132 30.4694C13.5132 31.4238 13.252 32.3979 13.0766 33.3817C12.8838 34.4635 12.7595 35.5632 12.6943 36.6603C12.6311 37.7231 12.6816 38.7926 12.6804 39.8592C12.6799 40.2971 12.6914 40.7359 12.6688 41.1727C12.6155 42.1995 12.5191 43.2246 12.4939 44.2518C12.4838 44.6653 12.6145 45.0823 12.6799 45.5399C12.7625 46.198 13.0131 46.8046 13.3423 47.3649C13.5738 47.7589 13.8971 48.1046 14.2095 48.4444C14.7818 49.0671 15.483 49.5254 16.2274 49.9165C16.6293 50.1277 17.0368 50.3318 17.4553 50.507C17.8721 50.6816 18.2994 50.8382 18.7334 50.9636C19.5737 51.2065 20.4146 51.4557 21.2688 51.64C22.2557 51.853 23.2565 52.0026 24.2526 52.1723C24.8388 52.2721 25.4254 52.3745 26.0155 52.4452C26.7395 52.5319 27.467 52.5914 28.1938 52.654C29.0116 52.7244 29.8299 52.7892 30.6486 52.8481C31.0132 52.8744 31.3807 52.9094 31.7442 52.8899C32.6387 52.8422 33.5317 52.7668 34.425 52.6992C34.7389 52.6754 35.0525 52.6466 35.3654 52.6119C35.8183 52.5618 36.2705 52.5046 36.7229 52.4498C37.323 52.3771 37.9251 52.3175 38.5226 52.227C39.1352 52.1343 39.7444 52.0173 40.3529 51.8997C41.1312 51.7492 41.9155 51.6192 42.682 51.4217C43.4778 51.2167 44.2648 50.9677 45.0386 50.6905C45.9162 50.376 46.7567 49.9778 47.5318 49.4462C48.0254 49.1076 48.4974 48.7463 48.8945 48.3023C49.2018 47.9588 49.4935 47.5939 49.7381 47.2047C49.9011 46.9454 49.982 46.6307 50.0757 46.3333C50.1565 46.0767 50.2035 45.8095 50.2711 45.5092C50.3042 45.4007 50.3524 45.2942 50.3673 45.1833C50.3971 44.9618 50.4183 44.7382 50.4257 44.5149C50.4432 43.9836 50.4795 43.4508 50.4557 42.9209C50.4134 41.9772 50.3151 41.0359 50.2742 40.0922C50.2519 39.5789 50.3249 39.062 50.3102 38.548C50.2793 37.4698 50.2401 36.3909 50.1627 35.3153C50.1135 34.6312 50.0244 33.9457 49.892 33.2728C49.616 31.8706 49.2402 30.4941 48.6676 29.1782C48.4244 28.6195 48.1839 28.0596 47.9353 27.5033C47.9136 27.4547 47.8405 27.429 47.7721 27.3631C47.7425 27.2713 47.7275 27.1714 47.6813 27.0889C46.7353 25.3982 45.4549 24.0056 43.9 22.8538C42.2725 21.6482 40.4872 20.7108 38.6982 19.7787C38.6735 19.7658 38.6415 19.767 38.5892 19.7571C38.6276 19.9987 38.6625 20.2186 38.6933 20.4825C38.7248 20.8202 38.7746 21.1573 38.7845 21.4956C38.8146 22.5178 38.7571 23.5324 38.5431 24.5383C38.2852 25.7507 37.8729 26.8994 37.1653 27.922C36.4558 28.9475 35.6354 29.8835 34.7473 30.7607C34.6013 30.905 34.4619 30.9505 34.2814 30.8041C34.3058 30.7199 34.306 30.6145 34.3585 30.555C34.7076 30.159 35.0647 29.7699 35.4253 29.3843C36.1417 28.6182 36.7674 27.7856 37.2851 26.8739C37.4237 26.6299 37.6369 26.3765 37.6431 26.1232C37.6496 25.8587 37.8075 25.6483 37.8288 25.4024Z" fill="#090809"/>
<path d="M34.2832 30.8429C34.4621 30.9506 34.6016 30.905 34.7476 30.7608C35.6356 29.8836 36.4561 28.9475 37.1656 27.922C37.8732 26.8994 38.2855 25.7507 38.5434 24.5383C38.7573 23.5324 38.8149 22.5178 38.7848 21.4957C38.7749 21.1574 38.7251 20.8202 38.7137 20.4628C39.0471 20.598 39.3642 20.746 39.6732 20.9092C41.5287 21.889 43.4107 22.8221 44.9643 24.2811C45.6754 24.9488 46.4006 25.5973 46.9941 26.3766C47.2549 26.719 47.5254 27.0542 47.7915 27.3926C47.8408 27.429 47.9138 27.4547 47.9356 27.5033C48.1842 28.0596 48.4247 28.6195 48.6679 29.1783C49.2405 30.4941 49.6163 31.8706 49.8923 33.2728C50.0247 33.9457 50.1138 34.6313 50.163 35.3153C50.2404 36.3909 50.2796 37.4698 50.3105 38.548C50.3252 39.062 50.2522 39.579 50.2745 40.0922C50.3154 41.0359 50.4137 41.9772 50.456 42.9209C50.4798 43.4508 50.4435 43.9836 50.426 44.5149C50.4186 44.7382 50.3974 44.9618 50.3676 45.1833C50.3527 45.2942 50.3045 45.4007 50.2519 45.5311C50.066 45.7138 49.9003 45.8754 49.7329 46.0353C48.6705 47.0502 47.51 47.9344 46.197 48.6021C45.3778 49.0187 44.5547 49.4353 43.7053 49.7836C42.3275 50.3485 40.9014 50.7811 39.4391 51.0682C38.5131 51.25 37.5744 51.3724 36.6379 51.4946C35.931 51.5869 35.2192 51.6448 34.5083 51.7031C33.6148 51.7764 32.7209 51.8696 31.8257 51.8886C31.0289 51.9056 30.2296 51.8437 29.4325 51.7971C28.8114 51.7609 28.1911 51.7036 27.5721 51.6394C26.8961 51.5692 26.221 51.4884 25.5476 51.3974C24.9237 51.3132 24.2914 51.2541 23.6825 51.1044C22.5948 50.837 21.5216 50.5109 20.443 50.2071C19.4086 49.9156 18.43 49.4807 17.4842 48.983C16.678 48.5589 15.8686 48.1211 15.1317 47.591C14.3596 47.0355 13.672 46.3631 12.9483 45.741C12.857 45.6625 12.7703 45.5789 12.6815 45.4977C12.6148 45.0823 12.4841 44.6653 12.4942 44.2518C12.5193 43.2247 12.6158 42.1995 12.669 41.1728C12.6917 40.7359 12.6802 40.2971 12.6807 39.8592C12.6819 38.7926 12.6313 37.7231 12.6946 36.6603C12.7598 35.5632 12.8841 34.4636 13.0769 33.3818C13.2523 32.398 13.5135 31.4238 13.8135 30.4694C14.0617 29.6795 14.4248 28.9257 14.7302 28.1533C14.8206 27.9245 14.85 27.66 15.1323 27.5814C15.123 27.506 15.1144 27.4363 15.1379 27.3607C15.2496 27.2769 15.3454 27.2099 15.4065 27.1196C16.3415 25.7379 17.5553 24.6206 18.8315 23.5714C19.9373 22.6622 21.2107 22.0081 22.4693 21.3394C23.0569 21.0272 23.6598 20.7439 24.2558 20.4475C24.2248 20.8768 24.1744 21.3057 24.1681 21.7354C24.1612 22.2078 24.1731 22.6828 24.2153 23.1532C24.3021 24.122 24.5163 25.0648 24.8269 25.989C25.1875 27.062 25.7976 27.9882 26.504 28.8517C27.0394 29.506 27.6292 30.116 28.1925 30.7477C28.316 30.8862 28.4504 30.9558 28.6675 30.8556C28.8097 30.8933 28.9145 30.9413 29.0219 30.9829C29.2986 31.09 29.5708 31.2132 29.8547 31.296C30.5256 31.4917 31.2182 31.4566 31.9063 31.4501C32.6103 31.4434 33.2841 31.2985 33.9222 30.9966C34.0403 30.9407 34.1627 30.8939 34.2832 30.8429ZM41.784 44.9646C41.5241 45.1702 41.2325 45.3468 41.011 45.5876C40.6007 46.0338 40.621 46.6268 41.0633 47.0362C41.2895 47.2457 41.5701 47.4226 41.8572 47.5361C42.9171 47.9551 44.0066 47.9347 45.0974 47.662C45.6945 47.5127 46.2506 47.2715 46.6946 46.8282C47.2205 46.3031 47.2234 45.6467 46.6543 45.1779C46.3795 44.9514 46.0392 44.7609 45.6974 44.6685C45.1968 44.5332 44.6682 44.5006 44.1599 44.3926C44.8412 44.0415 45.4469 43.6019 45.8615 42.9401C46.613 41.7407 46.9537 40.4183 47.0053 39.0193C47.0381 38.1313 47.0544 37.2383 46.8536 36.3638C46.717 35.7692 46.518 35.1968 46.0479 34.7655C45.8749 34.6068 45.7004 34.4498 45.5095 34.2764C46.0561 34.1562 46.5745 34.0422 47.139 33.9181C47.0656 33.8728 47.0468 33.8569 47.0251 33.8484C46.0054 33.4483 44.9551 33.3448 43.8701 33.4921C42.0491 33.7395 40.4982 34.5244 39.1812 35.7896C38.2781 36.6573 37.646 37.7142 37.1363 38.8371C36.8085 39.5593 36.5879 40.3235 36.6769 41.1492C36.8024 42.3135 37.4162 43.1788 38.3156 43.8549C39.2484 44.556 40.322 44.871 41.4926 44.8565C41.5951 44.8553 41.6983 44.9108 41.784 44.9646ZM18.7513 44.4394C18.6263 44.4431 18.5009 44.4425 18.3762 44.4513C17.6932 44.4992 17.0395 44.6471 16.4627 45.0373C15.7707 45.5053 15.6901 46.2296 16.2761 46.8164C16.4444 46.9849 16.642 47.1358 16.8506 47.2506C17.9316 47.8458 19.0923 47.9559 20.2935 47.7703C20.776 47.6958 21.2307 47.5399 21.6431 47.2714C22.3569 46.8066 22.4542 46.0489 21.8401 45.4636C21.5917 45.2269 21.2727 45.0639 21.0335 44.8572C21.284 44.855 21.5392 44.8826 21.7841 44.8443C22.3153 44.7612 22.8535 44.6853 23.3666 44.5322C24.2535 44.2676 24.9675 43.7201 25.5317 42.9963C26.0985 42.2692 26.3922 41.4368 26.2977 40.5082C26.1913 39.4619 25.7468 38.5318 25.2154 37.6415C24.5242 36.4836 23.6321 35.5175 22.5038 34.7608C21.6195 34.1677 20.6542 33.7762 19.6239 33.568C18.6643 33.3741 17.6878 33.3666 16.7257 33.6046C16.4313 33.6774 16.1435 33.7763 15.8527 33.8633C15.8589 33.8847 15.8652 33.906 15.8715 33.9274C16.3909 34.0441 16.9104 34.1609 17.4298 34.2776C17.4379 34.3001 17.4459 34.3227 17.454 34.3453C17.423 34.3597 17.3895 34.3705 17.3613 34.3891C16.6271 34.8749 16.2495 35.5927 16.1009 36.4272C15.9302 37.3859 15.8918 38.3538 15.9794 39.3294C16.0573 40.1957 16.2292 41.033 16.5432 41.8444C16.9168 42.8096 17.4847 43.6162 18.3854 44.1626C18.5242 44.2469 18.6593 44.3373 18.7513 44.4394ZM28.9555 50.3469C29.143 50.3564 29.2286 50.2429 29.1981 50.0831C29.0803 49.467 29.262 48.8985 29.4587 48.333C29.4901 48.2426 29.5754 48.1229 29.6555 48.1051C30.246 47.974 30.8384 47.7991 31.4365 47.7703C31.9315 47.7464 32.4336 47.9164 32.9355 47.9759C33.3522 48.0254 33.5646 48.251 33.6237 48.6501C33.6334 48.7153 33.6707 48.777 33.6766 48.8419C33.7138 49.2537 33.7491 49.6658 33.7783 50.0783C33.7951 50.3168 33.9578 50.4291 34.1402 50.3052C34.5732 50.0111 34.9499 49.6621 35.147 49.1615C35.1961 49.037 35.2406 48.9559 35.4013 48.9397C35.5766 48.922 35.564 48.7692 35.4958 48.6519C35.4521 48.5767 35.3746 48.509 35.2965 48.4677C34.4839 48.0388 33.6332 47.7066 32.7335 47.5126C32.1505 47.3869 31.5642 47.2635 30.9609 47.3639C30.0797 47.5107 29.2263 47.7543 28.408 48.1124C28.1264 48.2356 27.8503 48.3749 27.5848 48.5292C27.5067 48.5745 27.4403 48.6941 27.4329 48.7849C27.4288 48.8351 27.5618 48.8921 27.6258 48.9535C27.6928 49.0177 27.7718 49.0812 27.8098 49.1618C28.0524 49.6754 28.4319 50.0572 28.9555 50.3469ZM39.8833 27.9154C40.261 27.5208 40.5765 27.086 40.7232 26.5519C40.7777 26.3532 40.766 26.1527 40.5942 26.0008C40.4197 25.8464 40.2249 25.8789 40.0312 25.9547C39.4669 26.1755 38.7693 27.2621 38.8027 27.8647C38.8041 27.8895 38.8069 27.9144 38.8111 27.9389C38.8691 28.2752 39.1393 28.416 39.4381 28.2493C39.5887 28.1652 39.719 28.0447 39.8833 27.9154ZM24.1544 27.691C24.0123 27.3558 23.8995 27.0039 23.7196 26.6903C23.5427 26.3819 23.3076 26.1009 22.9554 25.9609C22.7635 25.8845 22.568 25.8405 22.3886 25.9894C22.213 26.1353 22.1607 26.3456 22.2491 26.5326C22.4356 26.9272 22.6339 27.3232 22.8852 27.6778C23.0478 27.9072 23.2949 28.0923 23.5366 28.2468C23.8276 28.4328 24.1232 28.2557 24.1586 27.9085C24.1645 27.851 24.1584 27.7922 24.1544 27.691ZM20.8102 32.4778C20.6439 32.6785 20.6799 32.7802 20.9406 32.8927C21.4588 33.1164 21.9919 33.3138 22.4875 33.5803C23.6425 34.2013 24.6733 34.9983 25.6342 35.8883C25.6965 35.946 25.8636 35.9748 25.9237 35.9333C26.0383 35.8539 26.0323 35.724 25.9092 35.6186C25.7325 35.4674 25.5619 35.309 25.3896 35.1527C24.393 34.2488 23.2947 33.4918 22.0762 32.9191C21.6813 32.7335 21.2561 32.6121 20.8102 32.4778ZM37.1527 35.9846C37.4316 35.764 37.7182 35.5525 37.9879 35.3214C39.0424 34.4183 40.1803 33.6481 41.468 33.1115C41.6907 33.0187 41.9199 32.9376 42.1311 32.8234C42.1917 32.7907 42.2403 32.6484 42.2187 32.5801C42.2022 32.5279 42.0508 32.4674 41.9865 32.4894C41.6562 32.6022 41.318 32.7101 41.0134 32.876C40.3228 33.2522 39.623 33.6221 38.9777 34.0678C38.3171 34.5241 37.7144 35.0645 37.0923 35.5753C36.9317 35.7071 36.9269 35.8573 37.1527 35.9846ZM32.3426 41.9022C32.5984 41.9746 32.8561 42.0412 33.1093 42.1217C33.2337 42.1613 33.326 42.1534 33.366 42.0185C33.4074 41.8791 33.3746 41.7773 33.2119 41.738C33.0506 41.6989 32.8925 41.6461 32.7345 41.5945C31.714 41.2608 30.7173 41.3937 29.7373 41.7592C29.6645 41.7863 29.6303 41.9169 29.5781 41.9994C29.6716 42.0426 29.7715 42.1317 29.8573 42.1197C30.0442 42.0937 30.223 42.0134 30.4066 41.9601C31.0323 41.7787 31.6634 41.7442 32.3426 41.9022ZM34.5573 44.9999C34.7002 44.8877 34.8463 44.7794 34.9849 44.6622C35.0921 44.5716 35.1893 44.4438 35.0557 44.3312C34.993 44.2784 34.8073 44.2845 34.7392 44.3398C34.452 44.5731 34.1808 44.8279 33.9217 45.0922C33.8692 45.1458 33.8944 45.275 33.8837 45.3693C33.9813 45.3704 34.1036 45.4091 34.1712 45.3647C34.3073 45.2754 34.4137 45.1409 34.5573 44.9999ZM28.4127 44.4765C28.3652 44.4431 28.3129 44.4147 28.2711 44.3753C28.1693 44.2793 28.0649 44.1791 27.9311 44.3137C27.7847 44.461 27.8981 44.5702 28.0079 44.6671C28.2568 44.8869 28.5098 45.1021 28.7595 45.321C28.846 45.3968 28.9255 45.5153 29.0499 45.388C29.1645 45.2707 29.1431 45.1459 29.0284 45.0387C28.8342 44.8571 28.6364 44.6792 28.4127 44.4765ZM25.1775 29.0051C25.1272 28.8561 25.0972 28.6958 25.0214 28.561C24.9313 28.4004 24.8195 28.2427 24.6846 28.119C24.5491 27.9948 24.4492 28.0682 24.4559 28.2435C24.4699 28.611 24.5742 28.948 24.8569 29.2021C24.9177 29.2567 25.0163 29.2693 25.0975 29.3012C25.1274 29.2155 25.1573 29.1298 25.1775 29.0051ZM38.4289 28.7063C38.457 28.5603 38.4955 28.4153 38.5084 28.268C38.5139 28.2044 38.4821 28.1189 38.4363 28.0773C38.4125 28.0557 38.3113 28.0941 38.2621 28.1292C37.9115 28.3786 37.8337 28.7659 37.7881 29.1514C37.7661 29.3375 37.9336 29.3588 38.0375 29.2527C38.1839 29.1032 38.2898 28.9142 38.4289 28.7063Z" fill="#312F32"/>
<path d="M34.2821 30.8235C34.1624 30.8939 34.04 30.9407 33.9219 30.9966C33.2838 31.2985 32.61 31.4434 31.906 31.4501C31.2179 31.4566 30.5253 31.4917 29.8544 31.296C29.5705 31.2132 29.2982 31.09 29.0216 30.9829C28.9142 30.9413 28.8094 30.8933 28.6842 30.8465C28.6371 30.7264 28.6465 30.5739 28.5748 30.4953C28.1892 30.0732 27.7573 29.6912 27.3914 29.2538C26.9386 28.7126 26.5129 28.1454 26.1171 27.5613C25.8367 27.1474 25.6226 26.6884 25.3844 26.2465C25.3029 26.0953 25.2385 25.935 25.1837 25.7543C25.1299 25.1634 25.0252 24.5987 24.9949 24.0301C24.9509 23.203 24.9604 22.3731 24.9635 21.5541C25.0708 21.8464 25.1665 22.1274 25.2517 22.4116C25.5504 23.4083 26.1052 24.2604 26.7811 25.0329C27.1722 25.4801 27.6242 25.8736 28.038 26.3016C28.63 26.9141 29.2789 27.4572 30.0259 27.867C30.884 28.3378 31.7742 28.4679 32.6852 27.9953C33.3978 27.6258 34.0356 27.1604 34.6185 26.6035C35.316 25.937 36.0264 25.2867 36.6035 24.5083C37.1459 23.7767 37.5927 22.9987 37.7994 22.0999C37.8506 21.8776 37.9325 21.6623 38.0087 21.463C38.1108 22.7968 38.027 24.101 37.7896 25.3962C37.8075 25.6483 37.6495 25.8587 37.6431 26.1233C37.6369 26.3765 37.4237 26.6299 37.2851 26.874C36.7674 27.7856 36.1416 28.6182 35.4253 29.3843C35.0647 29.7699 34.7076 30.159 34.3584 30.555C34.3059 30.6145 34.3058 30.7199 34.2821 30.8235Z" fill="#171114"/>
<path d="M12.6807 45.5188C12.7701 45.5789 12.8569 45.6625 12.9481 45.7409C13.6719 46.3631 14.3594 47.0355 15.1315 47.591C15.8684 48.1211 16.6778 48.5589 17.484 48.983C18.4298 49.4806 19.4084 49.9156 20.4429 50.207C21.5215 50.5109 22.5947 50.837 23.6823 51.1044C24.2912 51.2541 24.9235 51.3132 25.5474 51.3974C26.2209 51.4884 26.8959 51.5692 27.5719 51.6393C28.1909 51.7036 28.8112 51.7608 29.4323 51.7971C30.2294 51.8437 31.0287 51.9056 31.8255 51.8886C32.7207 51.8696 33.6146 51.7764 34.5081 51.7031C35.219 51.6448 35.9308 51.5868 36.6377 51.4946C37.5742 51.3724 38.5129 51.25 39.4389 51.0682C40.9012 50.7811 42.3273 50.3485 43.7051 49.7835C44.5546 49.4353 45.3776 49.0187 46.1968 48.6021C47.5098 47.9344 48.6703 47.0502 49.7328 46.0352C49.9001 45.8754 50.0658 45.7138 50.249 45.55C50.2036 45.8095 50.1566 46.0767 50.0758 46.3333C49.9821 46.6307 49.9012 46.9454 49.7382 47.2047C49.4936 47.5939 49.2019 47.9588 48.8946 48.3023C48.4975 48.7463 48.0255 49.1076 47.5319 49.4462C46.7568 49.9778 45.9163 50.376 45.0387 50.6905C44.2649 50.9677 43.4779 51.2167 42.6821 51.4217C41.9156 51.6192 41.1313 51.7492 40.353 51.8997C39.7445 52.0173 39.1353 52.1343 38.5227 52.227C37.9252 52.3175 37.3231 52.3771 36.723 52.4498C36.2706 52.5046 35.8184 52.5618 35.3655 52.6119C35.0526 52.6466 34.739 52.6754 34.4251 52.6992C33.5318 52.7668 32.6388 52.8422 31.7443 52.8899C31.3808 52.9094 31.0133 52.8744 30.6487 52.8481C29.83 52.7892 29.0117 52.7244 28.1939 52.654C27.4671 52.5914 26.7396 52.5319 26.0156 52.4452C25.4255 52.3745 24.8389 52.2721 24.2527 52.1723C23.2567 52.0026 22.2558 51.853 21.2689 51.64C20.4147 51.4557 19.5738 51.2065 18.7335 50.9636C18.2995 50.8382 17.8722 50.6816 17.4554 50.507C17.0369 50.3318 16.6294 50.1277 16.2275 49.9165C15.4831 49.5254 14.7819 49.0671 14.2096 48.4444C13.8972 48.1046 13.5739 47.7589 13.3424 47.3649C13.0132 46.8046 12.7626 46.198 12.6807 45.5188Z" fill="#171113"/>
<path d="M49.1653 15.45C49.1655 15.4721 49.1657 15.4941 49.1655 15.5557C49.1983 16.041 49.2497 16.4864 49.2609 16.9328C49.2866 17.9461 49.2064 18.9501 49.0246 19.9511C48.8206 21.0753 48.4061 22.1167 47.8654 23.1095C47.5293 23.7265 47.1303 24.3093 46.7595 24.9075C46.5671 24.7191 46.3752 24.5302 46.1822 24.3424C45.8091 23.9796 45.4619 23.5843 45.0563 23.2622C44.3245 22.6812 43.5605 22.1402 42.8036 21.5912C42.5978 21.442 42.3695 21.3238 42.1499 21.1549C42.1795 21.033 42.2057 20.9452 42.2427 20.8622C42.769 19.6809 43.6177 18.742 44.5443 17.8706C45.4717 16.9985 46.5445 16.3182 47.6227 15.6505C48.0747 15.3706 48.541 15.1137 49.0008 14.8463C49.0394 14.9666 49.078 15.0869 49.1163 15.2465C49.1325 15.3404 49.1489 15.3952 49.1653 15.45ZM46.017 18.3672C46.0074 18.2024 46.059 17.9872 45.9741 17.884C45.8358 17.716 45.6149 17.8298 45.4812 17.9449C45.1497 18.23 44.8312 18.5327 44.531 18.8505C44.3997 18.9895 44.3201 19.1977 44.4653 19.3759C44.6179 19.5632 44.8223 19.4662 44.9951 19.3935C45.4596 19.198 45.7928 18.861 46.017 18.3672Z" fill="#312F32"/>
<path d="M20.8486 21.1775C19.2929 22.0999 17.8475 23.1619 16.6184 24.4986C16.4911 24.6371 16.355 24.7675 16.1988 24.8876C15.8734 24.3901 15.5638 23.9117 15.2729 23.4223C14.6677 22.4041 14.2239 21.3186 13.9858 20.1576C13.8782 19.633 13.8022 19.1004 13.7426 18.568C13.6985 18.1739 13.6777 17.7733 13.693 17.3775C13.7212 16.6509 13.7837 15.9257 13.8318 15.1999C13.8635 15.0883 13.8952 14.9767 13.954 14.851C14.5671 15.1892 15.1594 15.5315 15.7378 15.8957C17.0828 16.7428 18.3737 17.6572 19.4096 18.8845C19.9982 19.5819 20.5444 20.3035 20.8486 21.1775ZM18.3764 18.7465C18.0757 18.4735 17.7845 18.189 17.4699 17.9331C17.3394 17.8269 17.123 17.721 16.996 17.8805C16.9112 17.987 16.9057 18.2165 16.9559 18.3589C17.1177 18.8171 17.447 19.1459 17.8863 19.3538C18.0779 19.4445 18.3104 19.587 18.4866 19.3906C18.6655 19.1911 18.5267 18.9687 18.3764 18.7465Z" fill="#312F32"/>
<path d="M37.8095 25.3993C38.0274 24.101 38.1112 22.7968 38.0137 21.4412C37.9386 20.8679 37.8672 20.3356 37.7959 19.8034C37.7737 19.8183 37.7516 19.8331 37.7295 19.848C37.6056 19.7976 37.4649 19.7694 37.3618 19.6916C37.2106 19.5774 37.0685 19.4414 36.9536 19.291C36.3329 18.4782 36.0359 17.5236 35.7881 16.5526C35.7208 16.2893 35.696 16.0119 35.6821 15.7394C35.67 15.505 35.7561 15.311 36.0381 15.2931C35.6187 14.1324 32.3306 9.73164 31.7282 9.54175C31.6558 11.3672 31.5837 13.1866 31.5116 15.006C31.5069 15.0053 31.5022 15.0047 31.4687 15.0001C31.3901 13.1825 31.3113 11.3594 31.2325 9.53638C31.2013 9.52412 31.1702 9.51185 31.139 9.49958C29.5175 11.2556 28.0832 13.1486 26.9423 15.2654C27.2452 15.3985 27.3744 15.5946 27.2845 15.9509C27.0938 16.707 26.8805 17.4597 26.6288 18.1975C26.4454 18.7354 26.1545 19.2303 25.7118 19.6077C25.5774 19.7222 25.3978 19.7839 25.2388 19.8699C25.2131 19.8525 25.1874 19.8351 25.1617 19.8177C25.0902 20.3932 25.0188 20.9688 24.9474 21.5444C24.9607 22.3731 24.9512 23.203 24.9953 24.0301C25.0256 24.5987 25.1302 25.1634 25.1822 25.7356C25.0076 25.0613 24.8243 24.3862 24.7038 23.7002C24.5151 22.6261 24.5776 21.5458 24.6826 20.4643C24.904 18.1838 25.8511 16.1633 26.8942 14.1717C28.0836 11.9009 29.6672 9.92197 31.4048 8.05488C31.4264 8.0316 31.4547 8.01445 31.5039 7.9754C31.9556 8.48525 32.4062 8.98538 32.8476 9.49358C34.7612 11.6972 36.2356 14.1674 37.3546 16.8569C38.1125 18.6785 38.4304 20.5764 38.3799 22.5388C38.3561 23.4653 38.202 24.3762 37.9372 25.2661C37.9218 25.3177 37.8661 25.3573 37.8095 25.3993Z" fill="#D5D5D5"/>
<path d="M13.9339 28.8761C13.5917 29.9346 13.2461 30.992 12.9101 32.0525C12.8409 32.271 12.8076 32.5009 12.7266 32.7367C11.9306 32.2786 11.1833 31.7779 10.5525 31.1393C9.96457 30.5443 9.41984 29.9055 8.8753 29.2696C8.60115 28.9494 8.33761 28.6116 8.12519 28.2492C7.62487 27.3955 7.26535 26.4779 6.98276 25.5304C6.91476 25.3023 6.83871 25.0767 6.76636 24.85C6.75023 24.6112 6.7341 24.3725 6.74002 24.1138C6.89079 24.1282 7.01978 24.1615 7.14815 24.197C8.78782 24.6513 10.3081 25.3507 11.6469 26.41C12.5356 27.1132 13.2495 27.9821 13.9339 28.8761ZM10.453 26.5455C10.3129 26.566 10.0733 26.553 10.0528 26.6137C10.0067 26.7505 10.0329 26.9403 10.0965 27.0778C10.1706 27.2381 10.2884 27.4136 10.4359 27.4974C10.7503 27.6761 11.0899 27.8177 11.4325 27.9366C11.5529 27.9784 11.712 27.9095 11.8535 27.8911C11.8265 27.7419 11.838 27.5701 11.7657 27.4474C11.4802 26.9629 11.0301 26.6913 10.453 26.5455Z" fill="#323033"/>
<path d="M56.2245 24.0888C56.2415 24.2758 56.2585 24.4628 56.2578 24.6768C56.2162 24.745 56.1837 24.7835 56.1697 24.8279C55.9887 25.4002 55.8329 25.9816 55.6245 26.5438C55.4355 27.0535 55.2519 27.5833 54.9553 28.0312C54.4729 28.7595 53.9056 29.4326 53.3641 30.1211C52.8016 30.8363 52.1279 31.4407 51.4021 31.9835C51.0262 32.2645 50.6136 32.4965 50.2176 32.7507C50.0506 32.1049 49.9089 31.4512 49.7098 30.8155C49.5075 30.1696 49.2487 29.5414 49.0288 28.8794C49.075 28.8155 49.1088 28.7789 49.139 28.7396C49.775 27.9137 50.4446 27.1164 51.2605 26.4596C52.7263 25.2796 54.4097 24.5454 56.2245 24.0888ZM51.5894 26.9928C51.4303 27.2018 51.2425 27.3955 51.1203 27.624C50.9973 27.8541 51.1255 28.0225 51.3765 27.9569C51.7416 27.8614 52.1236 27.7583 52.437 27.5612C52.6626 27.4193 52.8235 27.1363 52.9481 26.8842C53.0634 26.6508 52.9195 26.5028 52.6569 26.5236C52.2598 26.5551 51.9268 26.7357 51.5894 26.9928Z" fill="#323033"/>
<path d="M12.2832 36.4134C12.2812 37.526 12.2792 38.6386 12.2558 39.7754C12.152 39.7921 12.0627 39.8027 11.9879 39.7747C11.0408 39.4202 10.083 39.0897 9.15525 38.6898C8.64448 38.4697 8.16787 38.1556 7.70731 37.8384C7.1622 37.463 6.63767 37.0544 6.12958 36.63C5.76941 36.3291 5.4513 35.9781 5.11442 35.6495C5.04108 35.4576 4.78588 35.3483 4.88152 35.0602C6.06238 34.9767 7.22165 34.955 8.37288 35.1213C9.75112 35.3204 11.0736 35.7002 12.2832 36.4134ZM10.4102 36.1524C9.85507 35.7194 9.23364 35.5496 8.53943 35.7008C8.45648 35.7188 8.33987 35.7968 8.32691 35.864C8.31247 35.9387 8.37597 36.0654 8.44481 36.1134C8.99287 36.4958 9.60495 36.6387 10.2654 36.5315C10.4498 36.5015 10.5396 36.3771 10.4102 36.1524Z" fill="#323033"/>
<path d="M58.1258 35.0327C58.0677 35.1944 58.0096 35.3561 57.9283 35.5407C57.5234 35.942 57.1448 36.3237 56.7593 36.6984C55.9429 37.492 54.9911 38.0973 53.9778 38.5974C53.2884 38.9376 52.5679 39.2195 51.8475 39.491C51.4715 39.6327 51.0657 39.6957 50.6733 39.7942C50.6882 38.9905 50.7047 38.1868 50.717 37.383C50.7215 37.0842 50.7163 36.7851 50.7227 36.4465C51.6802 35.7831 52.7583 35.4891 53.8477 35.2495C55.2577 34.9394 56.6926 34.9664 58.1258 35.0327ZM53.4353 36.5455C53.7959 36.4055 54.1613 36.2759 54.5134 36.1169C54.5863 36.0839 54.6495 35.938 54.6418 35.8507C54.6367 35.792 54.5053 35.7164 54.4194 35.6972C53.7523 35.5477 53.1508 35.7193 52.6076 36.1097C52.5427 36.1563 52.4891 36.2903 52.5088 36.3625C52.5288 36.4358 52.6412 36.5239 52.7216 36.5333C52.9428 36.5591 53.1684 36.547 53.4353 36.5455Z" fill="#323033"/>
<path d="M50.2197 32.7702C50.6134 32.4965 51.0261 32.2645 51.4019 31.9835C52.1277 31.4407 52.8015 30.8363 53.364 30.1211C53.9054 29.4326 54.4727 28.7595 54.9551 28.0312C55.2518 27.5832 55.4354 27.0535 55.6244 26.5437C55.8327 25.9816 55.9885 25.4002 56.1695 24.8278C56.1836 24.7835 56.216 24.745 56.2572 24.6978C56.2429 25.3699 56.2505 26.0529 56.1673 26.7247C56.1026 27.2479 55.9534 27.7663 55.7908 28.2705C55.5561 28.9982 55.3268 29.7355 55 30.4236C54.6623 31.135 54.2714 31.8389 53.7926 32.461C53.2774 33.1305 52.6488 33.7172 52.0395 34.3092C51.6552 34.6827 51.2159 34.9999 50.8003 35.3412C50.7697 35.3663 50.7313 35.382 50.649 35.4296C50.6186 35.2904 50.5866 35.1778 50.5701 35.063C50.4889 34.5 50.4144 33.936 50.3321 33.3731C50.3035 33.1775 50.2592 32.9841 50.2197 32.7702Z" fill="#171113"/>
<path d="M6.74714 24.8541C6.83901 25.0767 6.91506 25.3024 6.98307 25.5304C7.26566 26.4779 7.62517 27.3955 8.12549 28.2492C8.33792 28.6116 8.60145 28.9494 8.87561 29.2696C9.42014 29.9055 9.96487 30.5443 10.5528 31.1394C11.1836 31.7779 11.9309 32.2786 12.7136 32.751C12.6306 33.3899 12.5287 34.0255 12.4296 34.6615C12.392 34.903 12.3607 35.1454 12.3185 35.4437C12.1919 35.3586 12.1109 35.3107 12.0373 35.2536C11.0841 34.5144 10.2011 33.7094 9.43627 32.766C8.91064 32.1177 8.46464 31.426 8.08157 30.6967C7.79431 30.1499 7.5766 29.5615 7.37864 28.9746C7.20356 28.4556 7.11453 27.9083 6.95846 27.3821C6.7683 26.7409 6.74181 26.0841 6.71721 25.4255C6.71016 25.2368 6.72359 25.0473 6.74714 24.8541Z" fill="#171113"/>
<path d="M13.8156 15.2086C13.7838 15.9257 13.7213 16.6509 13.6931 17.3775C13.6778 17.7734 13.6986 18.174 13.7427 18.568C13.8023 19.1004 13.8783 19.633 13.9859 20.1577C14.224 21.3186 14.6678 22.4041 15.273 23.4223C15.5639 23.9117 15.8735 24.3901 16.1813 24.8898C16.1402 25.0175 16.1091 25.1406 16.0413 25.2383C15.807 25.576 15.5592 25.9044 15.318 26.2374C15.2039 26.3947 15.093 26.5544 14.9546 26.75C14.7611 26.4329 14.5771 26.1678 14.4307 25.8834C14.1728 25.3827 13.8773 24.8893 13.7085 24.3577C13.4919 23.6757 13.3322 22.9656 13.2441 22.2558C13.1372 21.3946 13.0918 20.5209 13.0933 19.6527C13.0944 18.9946 13.1822 18.3323 13.2831 17.6798C13.4041 16.8972 13.5794 16.123 13.734 15.3457C13.743 15.3004 13.7769 15.26 13.8156 15.2086Z" fill="#171113"/>
<path d="M46.7612 24.9242C47.1301 24.3093 47.5291 23.7264 47.8652 23.1094C48.406 22.1167 48.8204 21.0753 49.0245 19.9511C49.2062 18.9501 49.2864 17.946 49.2608 16.9328C49.2495 16.4864 49.1981 16.041 49.166 15.5722C49.2327 15.6511 49.3326 15.745 49.3583 15.856C49.4661 16.3221 49.5615 16.7916 49.6424 17.2631C49.7136 17.6776 49.79 18.0949 49.8099 18.5136C49.8488 19.334 49.8733 20.1566 49.8588 20.9775C49.8487 21.5457 49.8014 22.1192 49.703 22.6785C49.5183 23.7292 49.1705 24.7327 48.6705 25.6785C48.5083 25.9853 48.3233 26.2802 48.1442 26.5779C48.1164 26.6241 48.0647 26.656 47.9919 26.7251C47.5745 26.119 47.1688 25.53 46.7612 24.9242Z" fill="#171113"/>
<path d="M50.6719 39.8164C51.0657 39.6957 51.4715 39.6327 51.8475 39.491C52.5679 39.2195 53.2884 38.9376 53.9778 38.5974C54.9911 38.0973 55.9429 37.492 56.7593 36.6984C57.1448 36.3237 57.5234 35.942 57.9203 35.5564C57.9043 35.7382 57.9184 35.9508 57.8337 36.1117C57.5655 36.6213 57.3194 37.1604 56.9554 37.5974C56.4548 38.1981 55.8626 38.7246 55.2931 39.2656C54.9937 39.5499 54.6732 39.8171 54.3368 40.0564C53.9394 40.3391 53.5276 40.6076 53.0982 40.8379C52.5672 41.1227 52.0133 41.3656 51.4655 41.6183C51.3096 41.6902 51.143 41.7454 50.9756 41.782C50.9285 41.7923 50.8217 41.7182 50.8096 41.667C50.7644 41.4751 50.7341 41.2776 50.7221 41.0807C50.6968 40.6672 50.6867 40.2527 50.6719 39.8164Z" fill="#171113"/>
<path d="M5.096 35.6526C5.45107 35.9781 5.76917 36.3291 6.12934 36.63C6.63744 37.0544 7.16196 37.463 7.70708 37.8384C8.16763 38.1556 8.64424 38.4696 9.15501 38.6898C10.0827 39.0897 11.0406 39.4202 11.9877 39.7747C12.0625 39.8027 12.1517 39.7921 12.2554 39.7982C12.2431 40.384 12.2152 40.9715 12.1739 41.558C12.1572 41.7943 12.1023 41.8206 11.8339 41.7072C11.202 41.4401 10.5542 41.2001 9.95104 40.878C9.08531 40.4158 8.27715 39.8567 7.56606 39.1725C7.07247 38.6975 6.55289 38.2434 6.10738 37.7264C5.68408 37.2352 5.33676 36.6748 5.14372 36.0445C5.10743 35.926 4.89621 35.8154 5.096 35.6526Z" fill="#171113"/>
<path d="M50.8681 44.7527C50.8687 44.1415 50.8715 43.5303 50.8681 42.9191C50.8675 42.8052 50.8418 42.6914 50.8496 42.5609C50.9295 42.5408 50.9881 42.5423 51.0452 42.5334C52.1681 42.3567 53.282 42.3924 54.3541 42.7834C55.0783 43.0475 55.7746 43.3877 56.4833 43.6939C56.5128 43.9361 56.3097 43.9862 56.1266 44.0903C55.2317 44.4188 54.3343 44.5718 53.4261 44.6395C52.7066 44.6931 51.9822 44.6806 51.2601 44.7026C51.1291 44.7066 50.9987 44.7354 50.8681 44.7527ZM53.3075 42.8853C53.0532 42.8707 52.7986 42.8437 52.5448 42.8499C52.4785 42.8515 52.3716 42.9501 52.3627 43.015C52.3547 43.0731 52.447 43.1922 52.5107 43.2047C52.8338 43.268 53.161 43.3166 53.489 43.3431C53.5647 43.3493 53.649 43.2489 53.7294 43.1975C53.6707 43.1266 53.6206 43.0454 53.5506 42.9883C53.4949 42.9427 53.4151 42.9266 53.3075 42.8853Z" fill="#323033"/>
<path d="M12.1249 42.5441C12.1105 43.2643 12.0961 43.9845 12.0604 44.7268C11.9495 44.7328 11.8603 44.7053 11.7703 44.7025C11.122 44.6823 10.4724 44.6843 9.82535 44.645C9.30561 44.6133 8.7825 44.5657 8.27249 44.466C7.76243 44.3663 7.26677 44.1933 6.7648 44.0524C6.664 43.9485 6.56319 43.8447 6.4707 43.7063C6.87179 43.49 7.26022 43.2982 7.65819 43.1286C8.64726 42.7073 9.66759 42.4086 10.7567 42.4427C11.2134 42.4571 11.6688 42.5092 12.1249 42.5441ZM10.1875 42.8044C9.93136 42.8637 9.67166 42.9116 9.42132 42.9894C9.34428 43.0133 9.29281 43.1191 9.22964 43.1875C9.31591 43.2421 9.40255 43.3435 9.48837 43.3428C9.7587 43.3406 10.0339 43.3231 10.2965 43.2642C10.4171 43.2371 10.5128 43.0995 10.6198 43.012C10.4984 42.943 10.3771 42.8739 10.2554 42.8054C10.2489 42.8018 10.239 42.8043 10.1875 42.8044Z" fill="#323033"/>
<path d="M20.8672 21.1738C20.5446 20.3036 19.9983 19.5819 19.4097 18.8846C18.3738 17.6573 17.0829 16.7428 15.7379 15.8958C15.1595 15.5315 14.5673 15.1893 13.9639 14.8335C13.9626 14.533 14.0705 14.4474 14.2983 14.5599C15.8267 15.3144 17.3015 16.1602 18.6075 17.2616C19.5738 18.0764 20.424 19.001 20.9788 20.158C21.0362 20.2777 21.0849 20.4024 21.1274 20.5282C21.271 20.9533 21.2692 20.9539 20.8672 21.1738Z" fill="#D4D3D4"/>
<path d="M49.0102 14.8281C48.5411 15.1136 48.0748 15.3706 47.6227 15.6505C46.5446 16.3182 45.4718 16.9985 44.5444 17.8706C43.6177 18.742 42.7691 19.6809 42.2427 20.8622C42.2057 20.9452 42.1796 21.033 42.1492 21.1377C41.7619 21.0838 41.6933 20.9894 41.8042 20.6369C42.0881 19.7343 42.6535 19.0068 43.2722 18.3138C44.4485 16.996 45.9121 16.0603 47.4358 15.2064C47.8277 14.9868 48.2303 14.7858 48.63 14.5801C48.8952 14.4437 48.9804 14.4962 49.0102 14.8281Z" fill="#D4D3D4"/>
<path d="M24.2664 20.4307C23.6595 20.7439 23.0565 21.0272 22.469 21.3394C21.2104 22.0081 19.937 22.6622 18.8311 23.5714C17.555 24.6206 16.3411 25.7379 15.4062 27.1196C15.345 27.2099 15.2493 27.2769 15.1514 27.3525C16.3681 25.0196 18.2088 23.2689 20.4426 21.9188C21.6741 21.1744 22.953 20.5081 24.2108 19.8071C24.2462 19.7874 24.2852 19.7741 24.375 19.7349C24.3388 19.9864 24.308 20.2001 24.2664 20.4307Z" fill="#D1D1D2"/>
<path d="M47.7818 27.3778C47.5253 27.0542 47.2548 26.719 46.994 26.3766C46.4004 25.5972 45.6753 24.9488 44.9642 24.281C43.4106 22.8221 41.5286 21.889 39.6731 20.9092C39.3641 20.746 39.047 20.598 38.7157 20.4407C38.6627 20.2186 38.6278 19.9987 38.5894 19.7571C38.6417 19.767 38.6737 19.7658 38.6984 19.7787C40.4874 20.7108 42.2727 21.6482 43.9002 22.8538C45.4551 24.0056 46.7355 25.3982 47.6815 27.0888C47.7277 27.1714 47.7427 27.2713 47.7818 27.3778Z" fill="#D1D1D2"/>
<path d="M6.76709 44.0695C7.26696 44.1933 7.76261 44.3663 8.27268 44.466C8.78268 44.5657 9.3058 44.6133 9.82554 44.645C10.4726 44.6843 11.1222 44.6823 11.7705 44.7025C11.8605 44.7053 11.9497 44.7329 12.0609 44.7504C12.1308 45.0753 12.1889 45.398 12.2174 45.7232C12.222 45.7757 12.0998 45.8829 12.0272 45.8918C11.3305 45.9768 10.6287 45.9468 9.96664 45.7295C9.19968 45.4778 8.44477 45.1744 7.7165 44.8269C7.36323 44.6583 7.08267 44.3381 6.76709 44.0695Z" fill="#171113"/>
<path d="M50.8681 44.7741C50.9986 44.7354 51.1289 44.7066 51.26 44.7026C51.9821 44.6806 52.7065 44.6931 53.426 44.6395C54.3342 44.5718 55.2316 44.4188 56.1109 44.0982C56.0015 44.2296 55.8883 44.3829 55.7414 44.4904C54.7147 45.242 53.5554 45.6751 52.3012 45.8473C51.8885 45.9039 51.4654 45.8959 51.0471 45.8954C50.7751 45.895 50.7331 45.8264 50.7677 45.5543C50.7999 45.3012 50.8347 45.0484 50.8681 44.7741Z" fill="#171113"/>
<path d="M56.2265 24.0697C54.4099 24.5454 52.7264 25.2796 51.2606 26.4596C50.4447 27.1164 49.7752 27.9137 49.1391 28.7397C49.1089 28.7789 49.0751 28.8155 49.0277 28.8623C49.0065 28.8652 48.9996 28.86 48.9949 28.8533C48.7625 28.5236 48.8234 28.2436 49.0626 27.9208C49.9901 26.6698 51.1758 25.738 52.5542 25.0408C53.6658 24.4785 54.8489 24.1038 56.0493 23.7819C56.0805 23.7735 56.1138 23.7724 56.1758 23.7639C56.1939 23.8624 56.2111 23.9565 56.2265 24.0697Z" fill="#D4D3D4"/>
<path d="M13.9495 28.8652C13.2496 27.9821 12.5357 27.1132 11.6471 26.41C10.3082 25.3507 8.78796 24.6513 7.14829 24.197C7.01992 24.1615 6.89092 24.1282 6.74316 24.0904C6.74476 23.9841 6.76542 23.8812 6.79496 23.7341C7.36415 23.9079 7.90619 24.0648 8.4426 24.239C9.96467 24.7331 11.3953 25.4102 12.58 26.5035C13.1027 26.9859 13.5362 27.5641 14.0133 28.0961C14.1717 28.2728 14.2019 28.4505 14.061 28.6517C14.0187 28.7121 13.9965 28.7864 13.9495 28.8652Z" fill="#D4D3D4"/>
<path d="M58.1351 35.0165C56.6926 34.9663 55.2578 34.9394 53.8477 35.2495C52.7584 35.4891 51.6802 35.7831 50.7236 36.4223C50.6198 36.2635 50.6286 36.1352 50.8226 36.013C51.8423 35.3707 52.981 35.0793 54.1453 34.8483C55.4153 34.5964 56.6978 34.6514 57.9792 34.6586C58.2776 34.6603 58.1802 34.8428 58.1351 35.0165Z" fill="#D1D1D2"/>
<path d="M12.2876 36.3947C11.0736 35.7002 9.75111 35.3204 8.37287 35.1213C7.22164 34.955 6.06237 34.9767 4.88289 35.0393C4.72269 34.7269 4.75946 34.6513 5.08354 34.6594C6.13951 34.6858 7.20291 34.653 8.24919 34.7699C9.60857 34.9218 10.9328 35.2586 12.1193 35.9961C12.279 36.0953 12.3484 36.1975 12.2876 36.3947Z" fill="#D1D1D2"/>
<path d="M12.1272 42.5235C11.669 42.5092 11.2135 42.4571 10.7568 42.4428C9.66773 42.4087 8.6474 42.7073 7.65833 43.1286C7.26036 43.2982 6.87193 43.49 6.47237 43.6881C6.39412 43.6526 6.32267 43.6007 6.21875 43.5253C7.06106 43.0405 7.87307 42.6293 8.75234 42.3512C9.70777 42.049 10.6689 41.9153 11.6592 42.1427C11.7565 42.165 11.8507 42.2023 11.9487 42.2193C12.1186 42.2487 12.1656 42.3473 12.1272 42.5235Z" fill="#D1D1D2"/>
<path d="M56.5021 43.6969C55.7743 43.3877 55.0781 43.0474 54.3539 42.7834C53.2818 42.3924 52.1679 42.3567 51.0449 42.5333C50.9879 42.5423 50.9293 42.5408 50.8508 42.5392C50.7886 42.3458 50.8611 42.2539 51.0533 42.2031C51.8841 41.9835 52.7135 41.9688 53.5498 42.1675C54.6704 42.4338 55.7028 42.9038 56.7331 43.5206C56.6522 43.589 56.5867 43.6445 56.5021 43.6969Z" fill="#D1D1D2"/>
<path d="M49.1785 15.4391C49.1488 15.3952 49.1324 15.3404 49.1172 15.2673C49.1429 15.3087 49.1674 15.3684 49.1785 15.4391Z" fill="#171113"/>
<path d="M18.796 44.4249C18.6592 44.3373 18.5241 44.2469 18.3852 44.1626C17.4846 43.6162 16.9167 42.8096 16.5431 41.8443C16.229 41.033 16.0571 40.1957 15.9793 39.3294C15.8916 38.3538 15.9301 37.3858 16.1008 36.4272C16.2494 35.5927 16.627 34.8749 17.3612 34.3891C17.3894 34.3704 17.4228 34.3597 17.4539 34.3453C17.4458 34.3227 17.4378 34.3001 17.4297 34.2776C16.9103 34.1608 16.3908 34.0441 15.8714 33.9274C15.8651 33.906 15.8588 33.8846 15.8525 33.8633C16.1434 33.7763 16.4312 33.6774 16.7256 33.6046C17.6877 33.3666 18.6641 33.3741 19.6238 33.568C20.6541 33.7762 21.6194 34.1676 22.5037 34.7608C23.6319 35.5175 24.5241 36.4836 25.2152 37.6415C25.7467 38.5317 26.1911 39.4618 26.2976 40.5082C26.392 41.4367 26.0984 42.2691 25.5316 42.9962C24.9673 43.7201 24.2534 44.2676 23.3665 44.5322C22.8534 44.6853 22.3152 44.7612 21.784 44.8443C21.5391 44.8826 21.2839 44.855 20.9878 44.8591C20.6038 44.8169 20.2614 44.7927 19.9283 44.7238C19.5466 44.6449 19.1731 44.5262 18.796 44.4249ZM24.2318 43.5951C24.2436 43.5832 24.2554 43.5713 24.2602 43.5613C24.2602 43.5613 24.2673 43.5618 24.2992 43.5601C24.3529 43.5264 24.4067 43.4927 24.4916 43.4534C24.5058 43.4383 24.5199 43.4232 24.5592 43.4055C24.5759 43.3878 24.5925 43.3701 24.6377 43.3465C24.645 43.3402 24.6524 43.3338 24.6776 43.3301C24.6912 43.3246 24.6959 43.3148 24.7089 43.289C24.7089 43.289 24.7168 43.2697 24.7399 43.2619C24.7399 43.2619 24.7572 43.2447 24.7843 43.2362C24.8062 43.2071 24.8281 43.1779 24.863 43.1377C24.863 43.1377 24.867 43.1211 24.894 43.1069C24.9058 43.0906 24.9175 43.0743 24.958 43.0482C24.9931 43.0008 25.0282 42.9535 25.0931 42.8907C25.1498 42.7963 25.2064 42.7019 25.2915 42.5941C25.3159 42.5506 25.3404 42.5072 25.3906 42.4488C25.4003 42.4322 25.41 42.4156 25.43 42.3803C25.43 42.3803 25.4354 42.3598 25.4662 42.3484C25.4989 42.2672 25.5315 42.1861 25.5909 42.0837C25.6151 42.0081 25.6393 41.9324 25.6853 41.8441C25.6922 41.8294 25.6991 41.8147 25.7091 41.7672C25.7111 41.7452 25.7131 41.7233 25.747 41.6835C25.7702 41.5895 25.7934 41.4956 25.8432 41.3757C25.8627 41.235 25.8822 41.0943 25.9067 40.9106C25.9072 40.8244 25.9077 40.7382 25.9097 40.6109C25.9061 40.219 25.7073 39.965 25.3515 39.82C25.2901 39.7949 25.2319 39.7619 25.1725 39.732C24.6094 39.4485 24.0268 39.1918 23.3943 39.1594C22.5287 39.115 21.6567 39.0988 20.8186 39.402C20.6837 39.4508 20.6185 39.512 20.6332 39.646C20.4543 39.5802 20.2778 39.4678 20.096 39.4585C19.7336 39.4401 19.3683 39.4783 18.9994 39.4479C18.9712 37.909 19.4263 36.5186 20.3419 35.2124C19.9786 35.1759 19.6595 35.1242 19.3393 35.1158C18.7113 35.0994 18.1983 35.334 17.8559 35.8781C17.7498 36.0468 17.6501 36.2222 17.5709 36.4047C17.2242 37.204 17.0288 38.0453 16.8855 38.9426C16.855 39.5486 16.766 40.1585 16.8061 40.7598C16.8949 42.0924 17.4556 43.1915 18.6656 43.8523C19.9041 44.5288 21.2381 44.5878 22.609 44.3266C20.786 44.0448 19.8234 42.8623 19.265 41.1978C19.4321 41.1978 19.5647 41.1978 19.7016 41.2357C19.7796 41.3928 19.8576 41.5499 19.9362 41.7081C19.9362 41.7081 19.9351 41.7095 19.9369 41.7441C19.9438 41.7779 19.9507 41.8117 19.954 41.8774C19.9818 41.9053 20.0096 41.9332 20.0404 41.9964C20.0912 42.0838 20.142 42.1712 20.1954 42.2921C20.2455 42.363 20.2955 42.4339 20.3567 42.5305C20.3838 42.5549 20.4109 42.5794 20.4461 42.6328C20.466 42.6543 20.4859 42.6758 20.5091 42.7221C20.523 42.729 20.537 42.7358 20.57 42.7704C20.7123 42.9157 20.8547 43.0609 21.012 43.234C21.0742 43.2732 21.1364 43.3125 21.21 43.3751C21.2253 43.3825 21.2406 43.3898 21.2679 43.4243C21.2943 43.4355 21.3207 43.4467 21.3704 43.4826C22.2752 44.0221 23.2057 44.0547 24.1783 43.6266C24.1924 43.622 24.1994 43.6122 24.2041 43.5993C24.2041 43.5993 24.2054 43.5945 24.2318 43.5951Z" fill="#020203"/>
<path d="M41.8008 44.94C41.698 44.9108 41.5948 44.8552 41.4923 44.8565C40.3217 44.871 39.2481 44.556 38.3153 43.8549C37.4159 43.1788 36.8021 42.3135 36.6766 41.1492C36.5876 40.3235 36.8082 39.5593 37.136 38.8371C37.6457 37.7142 38.2778 36.6573 39.1809 35.7896C40.4979 34.5243 42.0488 33.7395 43.8698 33.4921C44.9548 33.3447 46.0051 33.4483 47.0248 33.8484C47.0465 33.8569 47.0653 33.8728 47.1387 33.9181C46.5742 34.0422 46.0558 34.1562 45.5092 34.2763C45.7001 34.4498 45.8746 34.6068 46.0476 34.7655C46.5177 35.1968 46.7167 35.7691 46.8533 36.3638C47.0541 37.2383 47.0378 38.1313 47.005 39.0192C46.9534 40.4183 46.6127 41.7407 45.8612 42.94C45.4466 43.6019 44.8409 44.0414 44.1394 44.4118C44.0974 44.432 44.0756 44.433 44.0484 44.4272C44.0296 44.4277 44.0163 44.4349 43.9848 44.4476C43.5199 44.5681 43.0751 44.691 42.626 44.7954C42.3544 44.8585 42.0761 44.8927 41.8008 44.94ZM41.8313 43.3049C41.8417 43.2911 41.8522 43.2772 41.8572 43.2669C41.8572 43.2669 41.8636 43.2658 41.8966 43.2603C42.0173 43.1411 42.138 43.022 42.2894 42.89C42.3535 42.8141 42.4177 42.7381 42.5115 42.6545C42.577 42.5568 42.6425 42.459 42.7366 42.343C42.7797 42.2533 42.8229 42.1635 42.8948 42.0587C42.9126 42.0222 42.9303 41.9858 42.9719 41.9318C42.982 41.9047 42.992 41.8775 43.029 41.8303C43.0399 41.7757 43.0507 41.7212 43.0939 41.6512C43.1459 41.5004 43.1979 41.3495 43.2952 41.1908C43.417 41.1967 43.5388 41.2027 43.7083 41.2109C43.1096 42.856 42.1779 44.078 40.2612 44.3259C41.5836 44.5772 42.8117 44.5215 43.9948 44.0072C44.8679 43.6277 45.4844 42.9836 45.8532 42.1093C46.1438 41.4205 46.2192 40.694 46.1785 39.9558C46.1591 39.6028 46.0989 39.2521 46.0653 38.8584C45.9215 38.253 45.8115 37.6369 45.6227 37.0458C45.483 36.6082 45.2873 36.1726 45.0343 35.7904C44.59 35.1193 43.3763 34.8829 42.6389 35.2783C43.5785 36.5296 44.0098 37.9392 43.9084 39.497C43.842 39.4966 43.7688 39.5146 43.7103 39.493C43.2387 39.3188 42.7972 39.4347 42.3523 39.5751C42.2732 39.5003 42.204 39.3771 42.1135 39.3588C41.6721 39.2695 41.2238 39.2154 40.7803 39.1355C40.0852 39.0103 39.4154 39.1564 38.7514 39.3254C38.4814 39.3941 38.2272 39.5263 37.9674 39.6335C37.4978 39.8272 37.0434 40.0363 37.0395 40.6945C37.056 40.7962 37.0725 40.898 37.0874 41.0426C37.1037 41.1618 37.12 41.281 37.1358 41.4351C37.1524 41.49 37.169 41.5449 37.186 41.638C37.2645 41.8153 37.3429 41.9927 37.4254 42.2022C37.4725 42.2868 37.5197 42.3715 37.5805 42.4886C37.5914 42.5092 37.6024 42.5298 37.6087 42.569C37.6142 42.5833 37.6244 42.589 37.6537 42.6002C37.6537 42.6002 37.6719 42.6082 37.6833 42.6343C37.6972 42.6472 37.7111 42.66 37.7288 42.7058C37.7984 42.7872 37.8681 42.8687 37.9514 42.9797C38.0338 43.0411 38.1162 43.1025 38.1953 43.1979C38.2092 43.2154 38.2231 43.2329 38.2475 43.2791C38.2738 43.2918 38.3002 43.3046 38.3312 43.3126C38.3312 43.3126 38.3247 43.313 38.3312 43.3423C38.3474 43.3534 38.3637 43.3645 38.3982 43.3995C38.4421 43.4225 38.486 43.4454 38.5538 43.4962C38.694 43.5536 38.8349 43.6092 38.9742 43.6686C39.9589 44.0887 40.8815 43.9597 41.778 43.3516C41.787 43.3365 41.796 43.3214 41.7974 43.3026C41.7974 43.3026 41.8042 43.3076 41.8313 43.3049Z" fill="#020203"/>
<path d="M18.7736 44.4321C19.173 44.5263 19.5465 44.6449 19.9283 44.7238C20.2614 44.7927 20.6038 44.8169 20.9639 44.8641C21.2725 45.0639 21.5916 45.2269 21.84 45.4636C22.4541 46.0489 22.3567 46.8066 21.6429 47.2714C21.2305 47.5399 20.7758 47.6958 20.2934 47.7703C19.0921 47.9559 17.9315 47.8458 16.8504 47.2506C16.6419 47.1358 16.4442 46.9849 16.2759 46.8164C15.6899 46.2296 15.7706 45.5053 16.4625 45.0373C17.0394 44.6471 17.693 44.4992 18.376 44.4513C18.5007 44.4425 18.6261 44.4431 18.7736 44.4321Z" fill="#ED8B71"/>
<path d="M44.054 44.434C44.0758 44.433 44.0976 44.432 44.1354 44.4276C44.6681 44.5005 45.1967 44.5331 45.6974 44.6685C46.0391 44.7609 46.3794 44.9514 46.6543 45.1779C47.2233 45.6467 47.2205 46.3031 46.6945 46.8282C46.2505 47.2715 45.6944 47.5127 45.0973 47.662C44.0065 47.9347 42.917 47.955 41.8571 47.5361C41.5701 47.4226 41.2895 47.2457 41.0632 47.0362C40.621 46.6268 40.6007 46.0338 41.0109 45.5876C41.2324 45.3468 41.524 45.1701 41.7925 44.9523C42.0763 44.8927 42.3547 44.8585 42.6262 44.7954C43.0754 44.691 43.5201 44.5681 43.9984 44.4496C44.038 44.4421 44.046 44.438 44.054 44.434Z" fill="#ED8B71"/>
<path d="M28.9364 50.3442C28.4317 50.0572 28.0523 49.6754 27.8097 49.1618C27.7716 49.0812 27.6926 49.0177 27.6256 48.9535C27.5616 48.8921 27.4286 48.8351 27.4327 48.7849C27.4401 48.6941 27.5065 48.5745 27.5846 48.5292C27.8501 48.3748 28.1262 48.2356 28.4078 48.1124C29.2261 47.7543 30.0795 47.5107 30.9608 47.3639C31.564 47.2635 32.1503 47.3869 32.7333 47.5126C33.633 47.7066 34.4837 48.0388 35.2963 48.4677C35.3744 48.5089 35.4519 48.5767 35.4956 48.6518C35.5638 48.7692 35.5764 48.922 35.4011 48.9397C35.2404 48.9559 35.1959 49.037 35.1469 49.1615C34.9497 49.6621 34.573 50.011 34.1401 50.3052C33.9576 50.4291 33.7949 50.3168 33.7781 50.0783C33.749 49.6658 33.7136 49.2537 33.6764 48.8419C33.6705 48.777 33.6332 48.7153 33.6235 48.6501C33.5644 48.251 33.3521 48.0253 32.9353 47.9759C32.4335 47.9163 31.9313 47.7464 31.4364 47.7703C30.8382 47.7991 30.2459 47.974 29.6553 48.1051C29.5752 48.1228 29.4899 48.2426 29.4585 48.333C29.2618 48.8985 29.0801 49.467 29.1979 50.0831C29.2285 50.2429 29.1429 50.3564 28.9364 50.3442ZM34.4552 48.5041C34.2929 48.4396 34.1305 48.3751 33.9731 48.3126C34.0682 48.7898 34.1575 49.2382 34.2509 49.7074C34.5796 49.4546 34.7531 49.1051 34.8899 48.7152C34.7416 48.6405 34.6166 48.5775 34.4552 48.5041ZM28.3277 48.5867C28.2478 48.6292 28.168 48.6716 28.0758 48.7206C28.2229 49.1067 28.393 49.4607 28.7141 49.706C28.8115 49.2231 28.9032 48.769 28.9982 48.2981C28.774 48.3938 28.5675 48.482 28.3277 48.5867Z" fill="#060506"/>
<path d="M39.8706 27.928C39.7187 28.0447 39.5885 28.1652 39.4378 28.2493C39.139 28.416 38.8688 28.2752 38.8108 27.9389C38.8066 27.9144 38.8038 27.8895 38.8024 27.8647C38.769 27.2621 39.4667 26.1755 40.0309 25.9547C40.2246 25.8789 40.4194 25.8464 40.5939 26.0008C40.7657 26.1527 40.7774 26.3532 40.7229 26.5519C40.5762 27.086 40.2607 27.5208 39.8706 27.928Z" fill="#D7D6D7"/>
<path d="M24.1559 27.7125C24.1581 27.7922 24.1642 27.851 24.1583 27.9085C24.1229 28.2557 23.8273 28.4328 23.5363 28.2468C23.2946 28.0923 23.0475 27.9072 22.8849 27.6778C22.6336 27.3232 22.4352 26.9272 22.2487 26.5326C22.1603 26.3456 22.2127 26.1353 22.3883 25.9894C22.5677 25.8405 22.7632 25.8845 22.9551 25.9609C23.3073 26.1009 23.5424 26.3819 23.7193 26.6903C23.8992 27.0039 24.012 27.3558 24.1559 27.7125Z" fill="#D7D6D7"/>
<path d="M20.8272 32.4696C21.2558 32.6121 21.681 32.7335 22.0758 32.9191C23.2944 33.4918 24.3927 34.2488 25.3893 35.1528C25.5616 35.309 25.7322 35.4674 25.9088 35.6186C26.0319 35.724 26.038 35.8539 25.9233 35.9333C25.8633 35.9749 25.6962 35.946 25.6338 35.8883C24.673 34.9983 23.6421 34.2013 22.4871 33.5803C21.9916 33.3138 21.4585 33.1164 20.9402 32.8927C20.6795 32.7802 20.6436 32.6785 20.8272 32.4696Z" fill="#040305"/>
<path d="M37.1342 35.9835C36.9266 35.8573 36.9313 35.7071 37.0919 35.5753C37.7141 35.0645 38.3167 34.5241 38.9774 34.0678C39.6226 33.6221 40.3224 33.2522 41.013 32.876C41.3177 32.7101 41.6558 32.6022 41.9861 32.4894C42.0504 32.4674 42.2018 32.5279 42.2183 32.5801C42.2399 32.6484 42.1913 32.7907 42.1307 32.8234C41.9195 32.9376 41.6903 33.0186 41.4676 33.1115C40.18 33.6481 39.042 34.4183 37.9876 35.3214C37.7178 35.5525 37.4312 35.764 37.1342 35.9835Z" fill="#040305"/>
<path d="M32.3215 41.8993C31.6634 41.7442 31.0322 41.7787 30.4066 41.9601C30.223 42.0134 30.0441 42.0936 29.8572 42.1197C29.7715 42.1317 29.6716 42.0426 29.5781 41.9993C29.6303 41.9169 29.6644 41.7863 29.7373 41.7592C30.7173 41.3937 31.714 41.2608 32.7345 41.5945C32.8924 41.6461 33.0506 41.6989 33.2119 41.7379C33.3745 41.7773 33.4074 41.8791 33.366 42.0185C33.3259 42.1534 33.2337 42.1613 33.1093 42.1217C32.8561 42.0412 32.5984 41.9746 32.3215 41.8993Z" fill="#040305"/>
<path d="M34.5449 45.0125C34.4137 45.1409 34.3074 45.2754 34.1712 45.3647C34.1036 45.4091 33.9813 45.3704 33.8838 45.3693C33.8944 45.275 33.8693 45.1457 33.9217 45.0922C34.1809 44.8278 34.452 44.5731 34.7393 44.3398C34.8073 44.2845 34.9931 44.2784 35.0557 44.3311C35.1894 44.4438 35.0921 44.5716 34.9849 44.6622C34.8463 44.7794 34.7002 44.8877 34.5449 45.0125Z" fill="#040305"/>
<path d="M28.4262 44.4882C28.6362 44.6792 28.834 44.8571 29.0282 45.0387C29.1429 45.1459 29.1643 45.2707 29.0497 45.388C28.9253 45.5153 28.8458 45.3968 28.7593 45.321C28.5096 45.1021 28.2566 44.8869 28.0077 44.6671C27.8979 44.5702 27.7845 44.461 27.9309 44.3137C28.0647 44.1791 28.1691 44.2793 28.2709 44.3753C28.3127 44.4147 28.365 44.4431 28.4262 44.4882Z" fill="#040305"/>
<path d="M25.1823 29.0246C25.1573 29.1298 25.1274 29.2155 25.0975 29.3012C25.0163 29.2693 24.9176 29.2567 24.8569 29.2021C24.5742 28.948 24.4699 28.611 24.4559 28.2435C24.4492 28.0682 24.5491 27.9948 24.6845 28.119C24.8194 28.2427 24.9312 28.4004 25.0214 28.561C25.0971 28.6958 25.1272 28.8561 25.1823 29.0246Z" fill="#D1D1D2"/>
<path d="M38.421 28.7242C38.2898 28.9142 38.1839 29.1032 38.0375 29.2527C37.9336 29.3588 37.7661 29.3375 37.7881 29.1514C37.8337 28.7658 37.9115 28.3786 38.2621 28.1292C38.3114 28.0941 38.4125 28.0557 38.4363 28.0773C38.4821 28.1189 38.5139 28.2044 38.5084 28.268C38.4956 28.4153 38.457 28.5603 38.421 28.7242Z" fill="#D4D3D4"/>
<path d="M24.9639 21.5541C25.0188 20.9688 25.0902 20.3932 25.1617 19.8176C25.1874 19.835 25.2131 19.8524 25.2388 19.8698C25.3978 19.7839 25.5774 19.7222 25.7118 19.6077C26.1545 19.2303 26.4454 18.7354 26.6288 18.1975C26.8805 17.4597 27.0938 16.707 27.2845 15.9509C27.3744 15.5946 27.2452 15.3985 26.9423 15.2654C28.0832 13.1486 29.5175 11.2556 31.139 9.49957C31.1702 9.51184 31.2013 9.52411 31.2325 9.53638C31.3113 11.3594 31.3901 13.1825 31.4687 15.0001C31.5022 15.0047 31.5069 15.0053 31.5116 15.006C31.5837 13.1866 31.6558 11.3672 31.7282 9.54174C32.3306 9.73163 35.6187 14.1324 36.0381 15.2931C35.7561 15.311 35.67 15.505 35.6821 15.7394C35.696 16.0119 35.7209 16.2893 35.7881 16.5526C36.0359 17.5236 36.3329 18.4782 36.9536 19.291C37.0685 19.4414 37.2106 19.5774 37.3618 19.6916C37.4649 19.7694 37.6056 19.7976 37.7295 19.848C37.7516 19.8331 37.7738 19.8183 37.7959 19.8034C37.8672 20.3356 37.9386 20.8679 38.0053 21.4219C37.9328 21.6623 37.8509 21.8776 37.7998 22.0999C37.593 22.9987 37.1463 23.7767 36.6038 24.5084C36.0267 25.2868 35.3163 25.937 34.6188 26.6035C34.0359 27.1604 33.3982 27.6258 32.6856 27.9954C31.7746 28.4679 30.8843 28.3379 30.0263 27.8671C29.2793 27.4572 28.6304 26.9141 28.0383 26.3016C27.6246 25.8736 27.1725 25.4801 26.7814 25.033C26.1056 24.2604 25.5507 23.4083 25.252 22.4116C25.1669 22.1274 25.0712 21.8464 24.9639 21.5541Z" fill="#312F32"/>
<path d="M46.0118 18.3865C45.7929 18.8609 45.4597 19.198 44.9951 19.3935C44.8224 19.4662 44.6179 19.5631 44.4653 19.3759C44.3201 19.1977 44.3998 18.9894 44.5311 18.8504C44.8312 18.5326 45.1498 18.23 45.4813 17.9448C45.615 17.8298 45.8358 17.716 45.9742 17.884C46.0591 17.9872 46.0074 18.2023 46.0118 18.3865Z" fill="#D5D5D5"/>
<path d="M18.3872 18.7614C18.5267 18.9687 18.6655 19.1911 18.4866 19.3906C18.3104 19.587 18.0779 19.4445 17.8863 19.3538C17.447 19.1459 17.1177 18.8171 16.9559 18.3589C16.9056 18.2165 16.9111 17.987 16.996 17.8805C17.123 17.721 17.3394 17.8269 17.4699 17.9331C17.7845 18.189 18.0757 18.4735 18.3872 18.7614Z" fill="#D5D5D5"/>
<path d="M10.4736 26.5485C11.0304 26.6913 11.4805 26.9629 11.766 27.4474C11.8383 27.5701 11.8268 27.7419 11.8538 27.8911C11.7123 27.9095 11.5532 27.9784 11.4328 27.9366C11.0903 27.8177 10.7506 27.6761 10.4362 27.4974C10.2887 27.4136 10.1709 27.2381 10.0968 27.0778C10.0333 26.9403 10.007 26.7505 10.0532 26.6137C10.0736 26.553 10.3132 26.566 10.4736 26.5485Z" fill="#D7D6D7"/>
<path d="M51.6034 26.9823C51.9265 26.7357 52.2595 26.5551 52.6566 26.5236C52.9192 26.5028 53.0631 26.6508 52.9478 26.8842C52.8232 27.1363 52.6623 27.4193 52.4367 27.5612C52.1233 27.7583 51.7413 27.8614 51.3762 27.9568C51.1252 28.0225 50.997 27.8541 51.12 27.624C51.2422 27.3954 51.43 27.2018 51.6034 26.9823Z" fill="#D5D5D5"/>
<path d="M10.4212 36.1678C10.5395 36.3771 10.4497 36.5015 10.2652 36.5314C9.60482 36.6387 8.99274 36.4958 8.44468 36.1134C8.37583 36.0654 8.31234 35.9387 8.32677 35.864C8.33973 35.7968 8.45634 35.7188 8.5393 35.7008C9.23351 35.5496 9.85494 35.7194 10.4212 36.1678Z" fill="#D7D6D7"/>
<path d="M53.4135 36.5476C53.1681 36.547 52.9425 36.559 52.7213 36.5333C52.6409 36.5239 52.5285 36.4358 52.5085 36.3624C52.4888 36.2903 52.5424 36.1563 52.6073 36.1096C53.1505 35.7193 53.752 35.5476 54.4192 35.6972C54.505 35.7164 54.6364 35.792 54.6416 35.8507C54.6492 35.9379 54.5861 36.0839 54.5131 36.1169C54.1611 36.2759 53.7957 36.4054 53.4135 36.5476Z" fill="#D5D5D5"/>
<path d="M53.3263 42.8913C53.4147 42.9265 53.4945 42.9427 53.5503 42.9882C53.6202 43.0454 53.6703 43.1266 53.729 43.1975C53.6487 43.2489 53.5643 43.3493 53.4887 43.3431C53.1607 43.3165 52.8334 43.268 52.5103 43.2047C52.4466 43.1922 52.3543 43.0731 52.3623 43.015C52.3712 42.9501 52.4781 42.8515 52.5444 42.8499C52.7982 42.8437 53.0528 42.8707 53.3263 42.8913Z" fill="#D4D3D4"/>
<path d="M10.2094 42.8042C10.2394 42.8043 10.2493 42.8018 10.2557 42.8054C10.3774 42.8739 10.4988 42.943 10.6202 43.012C10.5132 43.0995 10.4175 43.2371 10.2969 43.2642C10.0342 43.3231 9.75904 43.3406 9.48871 43.3428C9.40289 43.3435 9.31625 43.2421 9.22998 43.1875C9.29315 43.1191 9.34462 43.0133 9.42166 42.9894C9.672 42.9116 9.9317 42.8637 10.2094 42.8042Z" fill="#D1D1D2"/>
<path d="M19.0041 39.4932C19.3682 39.4783 19.7335 39.4401 20.0959 39.4585C20.2776 39.4678 20.4542 39.5802 20.6582 39.6624C20.7658 39.7705 20.8483 39.8622 20.9333 39.9725C20.9517 40.0932 20.9677 40.1953 20.973 40.3147C20.9538 40.3717 20.9454 40.4113 20.9237 40.4605C20.8155 40.5894 20.7206 40.7088 20.6379 40.8329C20.642 40.8342 20.634 40.8307 20.6101 40.8338C20.2952 40.9595 19.9962 41.0787 19.6972 41.1978C19.5646 41.1978 19.4319 41.1978 19.2648 41.1978C19.8233 42.8623 20.7858 44.0448 22.6089 44.3266C21.2379 44.5878 19.904 44.5288 18.6655 43.8524C17.4555 43.1915 16.8948 42.0924 16.8059 40.7598C16.7659 40.1585 16.8549 39.5486 16.911 38.9236C17.5137 39.081 18.0902 39.2594 18.6683 39.432C18.7767 39.4643 18.892 39.4734 19.0041 39.4932Z" fill="#FCFCFC"/>
<path d="M19.0019 39.4705C18.8923 39.4734 18.777 39.4643 18.6686 39.432C18.0904 39.2594 17.514 39.0809 16.917 38.9038C17.029 38.0453 17.2243 37.204 17.5711 36.4047C17.6502 36.2222 17.7499 36.0468 17.8561 35.8781C18.1984 35.334 18.7114 35.0994 19.3394 35.1158C19.6596 35.1242 19.9787 35.1759 20.342 35.2124C19.4264 36.5186 18.9713 37.909 19.0019 39.4705Z" fill="#B6B6B6"/>
<path d="M21.2558 43.3972C21.2405 43.3898 21.2252 43.3825 21.2048 43.3425C21.1251 43.0293 21.3638 42.9711 21.5219 42.8513C21.8264 42.6207 22.1696 42.4724 22.5467 42.4551C23.2881 42.4212 23.8581 42.7761 24.3285 43.2747C24.3037 43.3906 24.2855 43.4762 24.2672 43.5618C24.2672 43.5618 24.26 43.5613 24.2506 43.5606C24.2292 43.5714 24.2172 43.583 24.2053 43.5945C24.2053 43.5945 24.2039 43.5993 24.1936 43.6003C24.1728 43.6057 24.1648 43.6129 24.1594 43.6229C23.2055 44.0547 22.2751 44.0221 21.3529 43.4564C21.309 43.4192 21.2824 43.4082 21.2558 43.3972Z" fill="#2294EE"/>
<path d="M20.931 39.9539C20.8485 39.8622 20.7659 39.7704 20.68 39.6672C20.6185 39.512 20.6838 39.4507 20.8186 39.402C21.6567 39.0988 22.5287 39.115 23.3943 39.1594C24.0268 39.1918 24.6094 39.4485 25.1726 39.732C25.232 39.7619 25.2901 39.7949 25.3515 39.82C25.7073 39.965 25.9061 40.219 25.8917 40.6288C25.7637 40.5662 25.6528 40.4869 25.5438 40.405C24.6939 39.7668 23.7312 39.4651 22.6746 39.5073C22.1786 39.5271 21.6837 39.617 21.1934 39.7036C21.0942 39.7211 21.0179 39.8671 20.931 39.9539Z" fill="#04101A"/>
<path d="M19.9573 41.8455C19.9505 41.8117 19.9436 41.7779 19.9543 41.7226C20.1282 41.5629 20.2821 41.4219 20.4423 41.2884C20.4902 41.2485 20.5554 41.2288 20.6132 41.2011C20.7051 41.1571 20.7936 41.0998 20.8905 41.0741C21.0532 41.0308 21.164 40.769 21.3398 40.9154C21.5004 40.8377 21.6393 40.7195 21.7862 40.7086C22.3079 40.6699 22.8323 40.6674 23.3557 40.6531C23.3875 40.6522 23.421 40.6651 23.4517 40.6768C23.7732 40.7993 24.1136 40.8884 24.4108 41.0542C24.8715 41.3112 25.4146 41.4998 25.5639 42.1049C25.5313 42.1861 25.4986 42.2672 25.4332 42.3453C25.1811 41.9141 24.8792 41.5756 24.417 41.3936C24.0274 41.2402 23.6454 41.0678 23.2847 40.9144C23.0328 41.113 22.8437 40.8987 22.6343 40.873C22.6183 40.9676 22.6023 41.0623 22.5723 41.1478C22.2632 40.7895 21.9373 40.7949 21.5917 41.1468C21.413 41.1279 21.2051 40.9352 21.1149 41.2091C21.0645 41.362 20.9987 41.3979 20.8567 41.4074C20.7854 41.4122 20.7147 41.4778 20.6504 41.525C20.5053 41.6313 20.3601 41.7383 20.2243 41.8558C20.1835 41.8912 20.1557 41.9617 20.154 42.0171C20.1516 42.0972 20.1783 42.1781 20.1926 42.2587C20.1418 42.1712 20.0909 42.0838 20.0399 41.9624C20.0122 41.9008 19.9848 41.8731 19.9573 41.8455Z" fill="#134F7F"/>
<path d="M20.9336 39.9725C21.018 39.8671 21.0944 39.7211 21.1935 39.7036C21.6839 39.617 22.1787 39.5272 22.6748 39.5073C23.7313 39.4651 24.694 39.7668 25.544 40.405C25.6529 40.4869 25.7638 40.5662 25.8911 40.6494C25.9079 40.7382 25.9074 40.8244 25.8854 40.9311C25.7642 40.9187 25.655 40.9017 25.5675 40.8488C25.4552 40.7809 25.3681 40.6718 25.2566 40.6018C24.7281 40.2701 24.1612 39.9989 23.5463 39.912C23.0155 39.837 22.4645 39.8335 21.93 39.8818C21.6029 39.9113 21.1988 39.9039 21.0082 40.2954C21.0064 40.2991 20.9924 40.2969 20.984 40.2974C20.968 40.1953 20.952 40.0932 20.9336 39.9725Z" fill="#071E32"/>
<path d="M25.5773 42.0943C25.4147 41.4998 24.8716 41.3111 24.4109 41.0542C24.1136 40.8884 23.7732 40.7993 23.4518 40.6768C23.4211 40.6651 23.3876 40.6522 23.3557 40.6531C22.8323 40.6674 22.308 40.6699 21.7863 40.7086C21.6394 40.7195 21.5005 40.8377 21.3398 40.9154C21.1641 40.7689 21.0533 41.0308 20.8905 41.0741C20.7937 41.0998 20.7051 41.1571 20.6133 41.2011C20.5554 41.2288 20.4903 41.2485 20.4423 41.2884C20.2822 41.4219 20.1283 41.5629 19.9534 41.7053C19.9349 41.7095 19.9361 41.7081 19.9391 41.6874C19.8934 41.4936 19.8624 41.3361 20.089 41.2489C20.2316 41.1941 20.3665 41.1114 20.4915 41.0226C20.5521 40.9796 20.5821 40.8937 20.6259 40.8272C20.6339 40.8307 20.642 40.8341 20.6579 40.8383C20.7683 40.8094 20.881 40.798 20.9713 40.7471C21.4429 40.481 21.967 40.3969 22.4884 40.3626C22.8537 40.3385 23.232 40.4057 23.5947 40.4798C23.8903 40.5403 24.2001 40.6252 24.4525 40.7815C24.894 41.0549 25.2962 41.3913 25.7149 41.7014C25.7129 41.7233 25.7109 41.7452 25.6968 41.7901C25.6718 41.8248 25.6646 41.8394 25.6632 41.8568C25.6391 41.9324 25.6149 42.0081 25.5773 42.0943Z" fill="#0E416A"/>
<path d="M24.66 43.3275C24.6526 43.3338 24.6453 43.3402 24.6131 43.3349C24.4925 43.1124 24.2027 43.0161 24.2347 42.727C24.2368 42.708 24.1931 42.6694 24.1657 42.6639C23.7473 42.5784 23.4554 42.1829 22.983 42.2119C22.517 42.2404 22.0307 42.1505 21.6193 42.4465C21.3487 42.6412 20.9436 42.7415 20.9973 43.2061C20.8549 43.0609 20.7126 42.9157 20.5627 42.7466C20.5551 42.7228 20.5591 42.7028 20.578 42.7022C21.0627 42.5749 21.3596 42.19 21.7512 41.95C21.7512 41.95 21.7512 41.95 21.7722 41.9501C21.9559 41.9544 22.1335 42.003 22.2787 41.9548C22.811 41.7782 23.3275 41.8738 23.7864 42.1109C24.1697 42.3089 24.4821 42.6436 24.8259 42.9178C24.8047 42.9326 24.7835 42.9474 24.7623 42.9622C24.7472 43.0647 24.7321 43.1672 24.717 43.2697C24.717 43.2697 24.7091 43.289 24.6939 43.2976C24.6702 43.3113 24.664 43.3184 24.66 43.3275Z" fill="#1C7DCB"/>
<path d="M20.973 40.3147C20.9921 40.2969 21.0061 40.2991 21.0079 40.2954C21.1985 39.9039 21.6026 39.9113 21.9297 39.8818C22.4642 39.8335 23.0152 39.837 23.546 39.912C24.161 39.9989 24.7279 40.2701 25.2564 40.6018C25.3678 40.6718 25.4549 40.7809 25.5673 40.8488C25.6547 40.9017 25.764 40.9187 25.8826 40.9526C25.8821 41.0943 25.8626 41.235 25.8118 41.3868C25.7155 41.3486 25.6501 41.2998 25.5853 41.2503C25.3204 41.0478 25.0707 40.8205 24.7877 40.6474C24.1699 40.2698 23.4762 40.1357 22.7617 40.1027C22.559 40.0934 22.3484 40.0883 22.1524 40.131C21.7434 40.2201 21.3417 40.3424 20.937 40.451C20.9455 40.4113 20.9539 40.3716 20.973 40.3147Z" fill="#0A2C47"/>
<path d="M20.9238 40.4605C21.3418 40.3424 21.7435 40.2201 22.1525 40.131C22.3486 40.0883 22.5591 40.0934 22.7618 40.1027C23.4763 40.1357 24.17 40.2698 24.7878 40.6474C25.0708 40.8205 25.3205 41.0478 25.5855 41.2503C25.6503 41.2998 25.7156 41.3486 25.7986 41.3997C25.7934 41.4956 25.7702 41.5895 25.7311 41.6924C25.2964 41.3913 24.8942 41.0549 24.4527 40.7815C24.2003 40.6252 23.8905 40.5403 23.5949 40.4798C23.2322 40.4057 22.8539 40.3385 22.4886 40.3626C21.9673 40.3969 21.4432 40.481 20.9716 40.7471C20.8813 40.798 20.7685 40.8094 20.646 40.8336C20.7208 40.7088 20.8157 40.5894 20.9238 40.4605Z" fill="#0C3556"/>
<path d="M24.7283 43.2658C24.7318 43.1673 24.7469 43.0647 24.762 42.9622C24.7832 42.9474 24.8044 42.9327 24.8256 42.9179C24.4818 42.6437 24.1695 42.3089 23.7861 42.1109C23.3273 41.8738 22.8107 41.7782 22.2785 41.9548C22.1332 42.003 21.9557 41.9544 21.7693 41.9431C21.7413 41.9335 21.7369 41.931 21.7326 41.9285C21.7387 41.9357 21.7449 41.9428 21.751 41.95C21.3594 42.19 21.0625 42.5749 20.5645 42.7003C20.5235 42.6985 20.5146 42.6979 20.5058 42.6973C20.4859 42.6758 20.4659 42.6543 20.4561 42.6095C20.4867 42.5052 20.4311 42.3806 20.5995 42.3866C20.6439 42.3882 20.6867 42.3141 20.7371 42.2883C21.0703 42.1179 21.4054 41.9512 21.7564 41.7878C22.1122 41.9655 22.2869 41.935 22.5998 41.6497C22.6753 41.5854 22.7321 41.5231 22.7962 41.4525C22.846 41.5242 22.8859 41.5818 22.8874 41.584C23.0615 41.5998 23.1857 41.5939 23.2997 41.6254C23.4805 41.6753 23.6598 41.7384 23.8301 41.8168C24.3492 42.056 24.82 42.3541 25.0633 42.9061C25.0282 42.9535 24.9931 43.0008 24.9273 43.0566C24.8867 43.0837 24.8768 43.1024 24.8669 43.1211C24.8669 43.1211 24.8629 43.1377 24.8415 43.1454C24.7991 43.1836 24.7781 43.2142 24.7571 43.2448C24.7571 43.2448 24.7398 43.2619 24.7283 43.2658Z" fill="#1A71B6"/>
<path d="M21.0047 43.2201C20.9436 42.7415 21.3487 42.6412 21.6193 42.4465C22.0307 42.1505 22.517 42.2404 22.983 42.2119C23.4554 42.1829 23.7473 42.5784 24.1657 42.6639C24.1931 42.6694 24.2368 42.708 24.2347 42.727C24.2027 43.0161 24.4926 43.1124 24.5988 43.3379C24.5927 43.3701 24.5761 43.3878 24.5306 43.4088C24.4881 43.4278 24.4743 43.4434 24.4606 43.459C24.4069 43.4927 24.3531 43.5264 24.2835 43.5609C24.2858 43.4762 24.3041 43.3906 24.3288 43.2747C23.8584 42.7761 23.2885 42.4212 22.547 42.4551C22.1699 42.4723 21.8267 42.6207 21.5223 42.8513C21.3641 42.9711 21.1254 43.0293 21.1994 43.3308C21.1366 43.3124 21.0744 43.2732 21.0047 43.2201Z" fill="#1D86D9"/>
<path d="M25.0784 42.8984C24.8203 42.3541 24.3495 42.0559 23.8304 41.8168C23.6601 41.7384 23.4807 41.6753 23.2999 41.6254C23.186 41.5939 23.0617 41.5998 22.8877 41.584C22.8862 41.5818 22.8462 41.5242 22.7965 41.4525C22.7323 41.523 22.6755 41.5854 22.6037 41.6311C22.5964 41.5097 22.6041 41.405 22.6291 41.2982C22.7542 41.2392 22.862 41.1823 22.9553 41.1331C23.2358 41.2287 23.5068 41.3306 23.7835 41.4134C24.2495 41.5527 24.6216 41.8339 24.9515 42.1742C25.0741 42.3006 25.1604 42.462 25.2632 42.6075C25.2066 42.7019 25.1499 42.7963 25.0784 42.8984Z" fill="#1763A0"/>
<path d="M25.2772 42.6008C25.1601 42.462 25.0738 42.3006 24.9512 42.1742C24.6214 41.8339 24.2492 41.5527 23.7832 41.4134C23.5065 41.3306 23.2356 41.2287 22.9551 41.1331C22.8617 41.1823 22.7539 41.2392 22.6246 41.2804C22.5976 41.2289 22.592 41.193 22.5864 41.1571C22.6025 41.0623 22.6185 40.9676 22.6345 40.873C22.8439 40.8987 23.033 41.113 23.2849 40.9144C23.6456 41.0678 24.0276 41.2402 24.4171 41.3936C24.8794 41.5756 25.1813 41.9141 25.418 42.351C25.4353 42.3598 25.4299 42.3803 25.411 42.3961C25.3829 42.4291 25.3738 42.4464 25.3647 42.4638C25.3403 42.5072 25.3159 42.5506 25.2772 42.6008Z" fill="#13578E"/>
<path d="M20.1943 42.2754C20.1787 42.1781 20.152 42.0972 20.1545 42.0171C20.1562 41.9617 20.1839 41.8912 20.2248 41.8558C20.3605 41.7383 20.5057 41.6313 20.6508 41.5249C20.7152 41.4778 20.7858 41.4122 20.8571 41.4074C20.9991 41.3978 21.065 41.362 21.1153 41.209C21.2055 40.9352 21.4134 41.1279 21.5901 41.1659C21.5903 41.2949 21.5744 41.3973 21.5405 41.5C21.4593 41.5372 21.3961 41.5742 21.3291 41.6134C21.2679 41.578 21.2049 41.5416 21.1392 41.5036C20.9518 41.6671 20.7908 41.8579 20.5867 41.9723C20.3522 42.1038 20.3239 42.2817 20.3458 42.5048C20.2957 42.4339 20.2457 42.363 20.1943 42.2754Z" fill="#13578E"/>
<path d="M20.3513 42.5176C20.3239 42.2817 20.3522 42.1038 20.5867 41.9724C20.7908 41.8579 20.9518 41.6671 21.1392 41.5036C21.2048 41.5416 21.2679 41.578 21.3291 41.6134C21.3961 41.5742 21.4593 41.5372 21.5514 41.5127C21.6336 41.6112 21.6869 41.6972 21.7402 41.7832C21.4057 41.9512 21.0706 42.1179 20.7373 42.2883C20.6869 42.3141 20.6442 42.3882 20.5998 42.3866C20.4314 42.3805 20.487 42.5052 20.4523 42.595C20.4111 42.5794 20.384 42.5549 20.3513 42.5176Z" fill="#1763A0"/>
<path d="M20.6104 40.8338C20.5825 40.8937 20.5525 40.9796 20.4919 41.0226C20.3669 41.1114 20.232 41.1941 20.0894 41.2489C19.8628 41.3361 19.8938 41.4936 19.9392 41.6868C19.8578 41.5499 19.7798 41.3928 19.6997 41.2168C19.9965 41.0786 20.2955 40.9595 20.6104 40.8338Z" fill="#0C3556"/>
<path d="M19.9556 41.8615C19.9848 41.8732 20.0122 41.9008 20.0384 41.9448C20.0093 41.9332 19.9816 41.9053 19.9556 41.8615Z" fill="#0C3556"/>
<path d="M24.7705 43.2405C24.778 43.2141 24.7989 43.1836 24.8349 43.1509C24.8279 43.1779 24.806 43.2071 24.7705 43.2405Z" fill="#1763A0"/>
<path d="M21.2617 43.4108C21.2823 43.4082 21.3089 43.4192 21.3412 43.444C21.3205 43.4467 21.2941 43.4355 21.2617 43.4108Z" fill="#1C7DCB"/>
<path d="M25.6746 41.8517C25.6648 41.8403 25.6722 41.8253 25.6963 41.8066C25.7 41.815 25.6929 41.8301 25.6746 41.8517Z" fill="#0C3556"/>
<path d="M25.3778 42.4577C25.3739 42.4476 25.3833 42.4298 25.4068 42.4054C25.411 42.4159 25.401 42.4329 25.3778 42.4577Z" fill="#134F7F"/>
<path d="M20.5073 42.71C20.5147 42.6978 20.5238 42.6984 20.5465 42.7009C20.5602 42.7029 20.5561 42.7234 20.554 42.7336C20.5377 42.7368 20.5233 42.7298 20.5073 42.71Z" fill="#1763A0"/>
<path d="M24.8806 43.1154C24.8769 43.1035 24.8871 43.0843 24.914 43.0615C24.9187 43.0746 24.9066 43.0914 24.8806 43.1154Z" fill="#1763A0"/>
<path d="M24.1691 43.6269C24.1647 43.614 24.1734 43.6062 24.1934 43.5994C24.2021 43.6133 24.1945 43.6239 24.1691 43.6269Z" fill="#1D86D9"/>
<path d="M24.2184 43.5958C24.2171 43.5836 24.2294 43.5718 24.2549 43.5597C24.2561 43.5716 24.244 43.5839 24.2184 43.5958Z" fill="#1D86D9"/>
<path d="M24.4758 43.4575C24.4738 43.4443 24.488 43.4282 24.5187 43.4101C24.5208 43.4235 24.5063 43.4391 24.4758 43.4575Z" fill="#1C7DCB"/>
<path d="M24.6688 43.331C24.6635 43.3197 24.6702 43.312 24.6865 43.3034C24.6983 43.3158 24.6932 43.3264 24.6688 43.331Z" fill="#1A71B6"/>
<path d="M42.3611 39.6194C42.7973 39.4347 43.2388 39.3188 43.7104 39.493C43.7689 39.5146 43.8421 39.4966 43.9498 39.5027C44.1645 39.4557 44.3374 39.4013 44.5113 39.3504C45.0264 39.1996 45.5419 39.0502 46.0572 38.9003C46.099 39.2521 46.1591 39.6028 46.1786 39.9558C46.2193 40.694 46.1439 41.4205 45.8533 42.1093C45.4845 42.9836 44.8679 43.6277 43.9949 44.0072C42.8118 44.5215 41.5837 44.5772 40.2612 44.3259C42.1779 44.078 43.1097 42.856 43.7084 41.2109C43.5389 41.2027 43.4171 41.1967 43.2524 41.1911C43.0919 41.1725 42.9741 41.1535 42.8558 41.1383C42.8552 41.142 42.8625 41.1403 42.8561 41.1247C42.8178 41.1025 42.7857 41.0957 42.7535 41.0921C42.7534 41.0951 42.7593 41.0935 42.752 41.0767C42.6146 41.0002 42.4846 40.9405 42.3539 40.8701C42.3438 40.8457 42.3311 40.8411 42.3094 40.8317C42.2871 40.8079 42.2704 40.7979 42.2535 40.7911C42.2533 40.7943 42.2594 40.7925 42.2529 40.777C42.1724 40.6557 42.0985 40.5498 42.0228 40.4239C42.0072 40.3521 41.9934 40.3004 41.985 40.2293C42.0122 40.0962 42.0341 39.9823 42.0716 39.8621C42.1785 39.7769 42.2698 39.6982 42.3611 39.6194Z" fill="#FCFCFC"/>
<path d="M46.0615 38.8793C45.542 39.0502 45.0266 39.1996 44.5115 39.3504C44.3376 39.4013 44.1647 39.4557 43.9714 39.5037C44.01 37.9392 43.5787 36.5296 42.6392 35.2783C43.3766 34.8829 44.5902 35.1193 45.0345 35.7904C45.2876 36.1726 45.4832 36.6082 45.623 37.0458C45.8117 37.6369 45.9218 38.253 46.0615 38.8793Z" fill="#B6B6B6"/>
<path d="M41.7514 43.3575C40.8819 43.9597 39.9593 44.0887 38.9745 43.6687C38.8352 43.6092 38.6943 43.5536 38.5503 43.4657C38.7109 43.2404 38.8403 42.9877 39.0471 42.8628C39.4974 42.5907 39.9425 42.3271 40.5453 42.4262C40.9551 42.4935 41.2755 42.6647 41.5917 42.8772C41.7143 42.9595 41.775 43.1336 41.8639 43.2658C41.8639 43.2658 41.8576 43.2669 41.8462 43.2653C41.8247 43.2784 41.8146 43.293 41.8046 43.3076C41.8046 43.3076 41.7978 43.3026 41.7883 43.3076C41.7697 43.3276 41.7605 43.3426 41.7514 43.3575Z" fill="#2294EE"/>
<path d="M42.3153 40.8454C42.3313 40.8411 42.344 40.8457 42.3544 40.8891C42.4395 41.0936 42.59 41.1156 42.7595 41.0935C42.7595 41.0935 42.7536 41.0951 42.7608 41.1074C42.7996 41.1266 42.8311 41.1334 42.8627 41.1403C42.8627 41.1403 42.8554 41.142 42.8619 41.1553C43.0347 41.2953 43.0649 41.4745 43.0618 41.6667C43.051 41.7212 43.0401 41.7757 42.9984 41.838C42.9393 41.8177 42.9129 41.7874 42.8823 41.7621C42.6373 41.5596 42.4059 41.336 42.141 41.1638C41.9525 41.0413 41.7226 40.9745 41.503 40.9108C41.4115 40.8843 41.2988 40.9305 41.1815 40.9442C41.1437 40.9293 41.1202 40.9137 41.0962 40.8781C41.0524 40.8066 41.016 40.7199 40.9647 40.71C40.787 40.6757 40.6035 40.6727 40.4233 40.6493C40.031 40.5983 39.6774 40.769 39.305 40.8301C38.9094 40.8949 38.575 41.0828 38.2509 41.2827C37.9452 41.4713 37.6778 41.7216 37.3984 41.941C37.4069 42.0249 37.4143 42.0975 37.4216 42.17C37.3432 41.9927 37.2647 41.8153 37.2041 41.6173C37.3354 41.5313 37.4526 41.4716 37.5617 41.3996C37.9251 41.16 38.2629 40.8672 38.6531 40.6863C39.1221 40.4688 39.6377 40.3417 40.1648 40.3552C40.5271 40.3645 40.8914 40.4031 41.2485 40.4652C41.4895 40.5071 41.7194 40.6126 41.9542 40.69C42.0562 40.7236 42.1578 40.7583 42.2596 40.7925C42.2596 40.7925 42.2535 40.7942 42.2589 40.8052C42.2813 40.8259 42.2983 40.8357 42.3153 40.8454Z" fill="#0E416A"/>
<path d="M42.3569 39.5973C42.27 39.6981 42.1787 39.7769 42.0694 39.8413C42.0115 39.7842 41.9786 39.7163 41.9306 39.7032C41.788 39.6643 41.6394 39.6468 41.4931 39.6211C41.1687 39.564 40.8454 39.4684 40.5196 39.459C40.0264 39.4448 39.5394 39.4861 39.0515 39.6335C38.5195 39.7941 37.9947 39.9333 37.5579 40.2985C37.3984 40.4318 37.2143 40.5358 37.0415 40.6532C37.0436 40.0363 37.4981 39.8271 37.9676 39.6335C38.2274 39.5263 38.4816 39.3941 38.7517 39.3254C39.4157 39.1564 40.0854 39.0103 40.7806 39.1355C41.224 39.2154 41.6724 39.2695 42.1137 39.3588C42.2043 39.3771 42.2735 39.5003 42.3569 39.5973Z" fill="#04101A"/>
<path d="M37.0405 40.6739C37.2142 40.5359 37.3983 40.4318 37.5578 40.2985C37.9946 39.9333 38.5194 39.7941 39.0514 39.6335C39.5393 39.4861 40.0263 39.4448 40.5195 39.459C40.8453 39.4684 41.1686 39.564 41.493 39.6211C41.6393 39.6468 41.7879 39.6643 41.9305 39.7033C41.9785 39.7164 42.0114 39.7842 42.0536 39.8478C42.0342 39.9823 42.0122 40.0962 41.9682 40.2238C41.909 40.1778 41.8843 40.0822 41.8327 40.0645C41.5926 39.9818 41.3464 39.8677 41.1 39.8615C40.2654 39.8406 39.4088 39.7355 38.6242 40.1197C38.0956 40.3786 37.5997 40.704 37.0892 40.9997C37.0727 40.898 37.0562 40.7963 37.0405 40.6739Z" fill="#071E32"/>
<path d="M38.1986 43.164C38.1162 43.1025 38.0338 43.0411 37.9485 42.9659C37.9454 42.952 37.9521 42.9478 37.9696 42.9489C38.1178 42.8449 38.2751 42.7603 38.3747 42.6313C38.8931 41.9603 39.6338 41.7926 40.4287 41.7083C40.6285 41.7768 40.8132 41.8396 40.9927 41.9155C40.9862 41.9445 40.9837 41.9603 40.9846 41.976C40.9847 41.9794 40.9985 41.9865 41.0032 41.9846C41.2208 41.8999 41.4163 41.7786 41.6492 42.0073C41.8995 42.2532 42.2021 42.4461 42.4819 42.6621C42.4177 42.7381 42.3536 42.8141 42.255 42.8955C42.1446 42.8569 42.0561 42.8259 41.9943 42.767C41.5227 42.3178 40.9366 42.0956 40.3123 42.0634C39.5885 42.0261 39.0103 42.3964 38.5261 42.9186C38.4349 43.017 38.3087 43.083 38.1986 43.164Z" fill="#1C78C2"/>
<path d="M37.4237 42.1861C37.4143 42.0975 37.407 42.0249 37.3984 41.941C37.6778 41.7216 37.9452 41.4713 38.2509 41.2827C38.5751 41.0829 38.9095 40.8949 39.3051 40.8301C39.6775 40.7691 40.031 40.5983 40.4234 40.6493C40.6035 40.6727 40.787 40.6757 40.9647 40.71C41.016 40.7199 41.0524 40.8066 41.0746 40.8839C40.7516 40.8462 40.5153 40.9374 40.338 41.1948C40.2301 41.1428 40.1269 41.0498 40.0472 41.0667C39.5012 41.1827 38.9278 41.2306 38.486 41.6377C38.1844 41.9157 37.8737 42.1837 37.567 42.4562C37.5199 42.3715 37.4728 42.2868 37.4237 42.1861Z" fill="#134F7F"/>
<path d="M37.0884 41.0212C37.5997 40.704 38.0956 40.3786 38.6242 40.1197C39.4089 39.7355 40.2655 39.8406 41.1 39.8615C41.3465 39.8677 41.5926 39.9818 41.8327 40.0645C41.8843 40.0822 41.909 40.1778 41.963 40.2431C41.9935 40.3004 42.0073 40.3521 42.0018 40.4253C41.9126 40.4001 41.8476 40.3251 41.7716 40.3115C41.3333 40.2329 40.8943 40.1369 40.4518 40.1105C40.1185 40.0907 39.7733 40.1373 39.4448 40.2075C39.078 40.2859 38.707 40.3885 38.3695 40.5474C38.0739 40.6866 37.7712 40.8394 37.545 41.104C37.4388 41.2282 37.2745 41.303 37.1365 41.4002C37.1202 41.281 37.1038 41.1618 37.0884 41.0212Z" fill="#0A2C47"/>
<path d="M38.1973 43.1809C38.309 43.083 38.4352 43.017 38.5264 42.9186C39.0106 42.3964 39.5888 42.0261 40.3126 42.0634C40.9369 42.0956 41.523 42.3178 41.9946 42.767C42.0564 42.8259 42.1449 42.8569 42.24 42.9019C42.1383 43.022 42.0176 43.1411 41.8804 43.263C41.775 43.1335 41.7143 42.9595 41.5917 42.8771C41.2754 42.6647 40.955 42.4935 40.5452 42.4261C39.9424 42.327 39.4974 42.5907 39.0471 42.8627C38.8402 42.9877 38.7108 43.2404 38.5383 43.4517C38.4863 43.4454 38.4424 43.4225 38.3877 43.3715C38.3595 43.3334 38.3423 43.3232 38.325 43.313C38.325 43.313 38.3315 43.3126 38.3271 43.2988C38.2942 43.2735 38.2657 43.262 38.2373 43.2504C38.2234 43.2329 38.2095 43.2154 38.1973 43.1809Z" fill="#1D86D9"/>
<path d="M37.1362 41.4176C37.2745 41.303 37.4389 41.2282 37.5451 41.104C37.7713 40.8394 38.0739 40.6865 38.3695 40.5474C38.7071 40.3885 39.078 40.2859 39.4449 40.2075C39.7734 40.1373 40.1186 40.0906 40.4518 40.1105C40.8944 40.1368 41.3333 40.2329 41.7716 40.3114C41.8476 40.3251 41.9126 40.4001 42.0037 40.4453C42.0987 40.5498 42.1725 40.6557 42.253 40.777C42.1578 40.7583 42.0561 40.7236 41.9541 40.69C41.7194 40.6126 41.4894 40.5071 41.2484 40.4652C40.8914 40.4031 40.527 40.3645 40.1647 40.3552C39.6377 40.3417 39.1221 40.4688 38.6531 40.6862C38.2628 40.8672 37.9251 41.16 37.5616 41.3996C37.4525 41.4716 37.3354 41.5313 37.2039 41.5981C37.1692 41.5448 37.1526 41.49 37.1362 41.4176Z" fill="#0C3556"/>
<path d="M37.5737 42.4724C37.8735 42.1838 38.1843 41.9157 38.4859 41.6377C38.9276 41.2306 39.5011 41.1827 40.047 41.0667C40.1268 41.0498 40.23 41.1428 40.3378 41.2139C40.3357 41.3283 40.3182 41.4137 40.28 41.4973C39.7934 41.3636 39.3771 41.5763 38.9887 41.7515C38.5984 41.9276 38.2675 42.2347 37.978 42.4372C37.9679 42.5937 37.9611 42.6852 37.9563 42.7769C37.9534 42.8338 37.9535 42.8909 37.9522 42.9479C37.9522 42.9479 37.9455 42.9521 37.9417 42.9511C37.8682 42.8687 37.7986 42.7872 37.7261 42.6732C37.7062 42.6298 37.6891 42.619 37.672 42.6082C37.672 42.6082 37.6538 42.6002 37.6441 42.5862C37.6294 42.563 37.6224 42.5558 37.6135 42.5504C37.6025 42.5298 37.5915 42.5092 37.5737 42.4724Z" fill="#1763A0"/>
<path d="M41.1958 40.9436C41.2988 40.9305 41.4115 40.8843 41.503 40.9108C41.7226 40.9745 41.9525 41.0413 42.141 41.1638C42.4059 41.336 42.6373 41.5596 42.8823 41.7621C42.9129 41.7874 42.9393 41.8177 42.985 41.848C42.9923 41.8775 42.9822 41.9047 42.9428 41.9437C42.8977 41.9951 42.882 42.0344 42.8663 42.0737C42.8231 42.1635 42.78 42.2533 42.7183 42.3337C42.5247 41.9276 42.1558 41.7526 41.8104 41.5508C41.7101 41.4922 41.6091 41.4349 41.5152 41.3808C41.4948 41.4032 41.4509 41.4512 41.4046 41.4803C41.405 41.4234 41.4076 41.3854 41.417 41.3429C41.4309 41.3213 41.4252 41.3094 41.3976 41.287C41.3245 41.1621 41.2601 41.0529 41.1958 40.9436Z" fill="#134F7F"/>
<path d="M41.4067 41.4992C41.4506 41.4512 41.4945 41.4032 41.5149 41.3808C41.6088 41.4349 41.7098 41.4922 41.8101 41.5508C42.1555 41.7526 42.5244 41.9276 42.7037 42.3428C42.6424 42.459 42.577 42.5568 42.4967 42.6583C42.2021 42.4461 41.8994 42.2532 41.6491 42.0073C41.4162 41.7786 41.2207 41.8999 41.0031 41.9846C40.9984 41.9865 40.9847 41.9794 40.9845 41.976C40.9837 41.9603 40.9862 41.9444 41.0072 41.906C41.1535 41.7552 41.2801 41.6272 41.4067 41.4992Z" fill="#1763A0"/>
<path d="M43.0778 41.659C43.0648 41.4745 43.0345 41.2953 42.8623 41.1517C42.9741 41.1536 43.0919 41.1725 43.2298 41.1951C43.198 41.3495 43.146 41.5004 43.0778 41.659Z" fill="#0C3556"/>
<path d="M42.8804 42.0662C42.8817 42.0344 42.8974 41.995 42.9306 41.9525C42.9303 41.9858 42.9125 42.0222 42.8804 42.0662Z" fill="#0E416A"/>
<path d="M38.2422 43.2648C38.2654 43.262 38.2938 43.2735 38.3244 43.3012C38.3002 43.3046 38.2738 43.2918 38.2422 43.2648Z" fill="#1C78C2"/>
<path d="M44.0496 44.4272C44.047 44.4384 44.0387 44.4426 44.0166 44.4447C44.0165 44.4352 44.0303 44.4278 44.0496 44.4272Z" fill="#312F32"/>
<path d="M37.6113 42.5598C37.6235 42.5555 37.6311 42.5634 37.6395 42.581C37.6259 42.5916 37.6147 42.5854 37.6113 42.5598Z" fill="#134F7F"/>
<path d="M37.6777 42.6212C37.6894 42.6189 37.707 42.63 37.7254 42.6577C37.7121 42.6611 37.6979 42.6479 37.6777 42.6212Z" fill="#134F7F"/>
<path d="M41.7648 43.3558C41.7603 43.3435 41.7697 43.3281 41.7927 43.3095C41.7971 43.3217 41.7879 43.3372 41.7648 43.3558Z" fill="#1D86D9"/>
<path d="M38.3281 43.3277C38.3425 43.3231 38.3603 43.3336 38.3797 43.3604C38.3648 43.3655 38.3481 43.3541 38.3281 43.3277Z" fill="#1C78C2"/>
<path d="M41.8181 43.3075C41.8145 43.2938 41.8248 43.2788 41.8496 43.2635C41.8534 43.2776 41.8427 43.2918 41.8181 43.3075Z" fill="#1D86D9"/>
<path d="M34.4733 48.5093C34.6166 48.5775 34.7416 48.6405 34.8899 48.7152C34.7531 49.1051 34.5796 49.4546 34.2509 49.7074C34.1575 49.2382 34.0682 48.7898 33.9731 48.3126C34.1305 48.3751 34.2929 48.4396 34.4733 48.5093Z" fill="#F0F9FA"/>
<path d="M28.3442 48.5785C28.5673 48.482 28.7739 48.3938 28.9981 48.2981C28.9031 48.7689 28.8114 49.2231 28.7139 49.706C28.3928 49.4607 28.2228 49.1067 28.0757 48.7206C28.1678 48.6716 28.2477 48.6291 28.3442 48.5785Z" fill="#F0F9FA"/>
<path d="M20.977 39.6741C20.9738 39.6688 20.9802 39.6794 20.977 39.6741V39.6741Z" fill="#071E32"/>
<path d="M21.7566 41.7878C21.6868 41.6972 21.6336 41.6112 21.5693 41.5125C21.5743 41.3974 21.5902 41.2949 21.6082 41.1734C21.9376 40.7949 22.2635 40.7895 22.5727 41.1478C22.5922 41.193 22.5977 41.2289 22.6075 41.2826C22.604 41.405 22.5963 41.5097 22.5849 41.633C22.2871 41.935 22.1123 41.9654 21.7566 41.7878Z" fill="#F0F9FA"/>
<path d="M21.7524 41.9518C21.7457 41.944 21.7391 41.9363 21.7324 41.9285C21.7371 41.9312 21.7418 41.9339 21.7494 41.9442C21.7523 41.9518 21.7524 41.9518 21.7524 41.9518Z" fill="#1C7DCB"/>
<path d="M42.752 41.0767C42.5899 41.1156 42.4394 41.0936 42.355 40.8999C42.4847 40.9405 42.6147 41.0002 42.752 41.0767Z" fill="#0C3556"/>
<path d="M42.8561 41.1247C42.8309 41.1334 42.7994 41.1266 42.7607 41.1044C42.7857 41.0957 42.8177 41.1025 42.8561 41.1247Z" fill="#0C3556"/>
<path d="M42.3106 40.8325C42.299 40.8366 42.2816 40.8266 42.2588 40.8021C42.2706 40.7978 42.2877 40.8081 42.3106 40.8325Z" fill="#0C3556"/>
<path d="M41.4046 41.4803C41.2804 41.6273 41.1537 41.7553 41.0126 41.8928C40.8134 41.8396 40.6287 41.7769 40.4231 41.6912C40.3683 41.6119 40.3345 41.5555 40.3008 41.499C40.3183 41.4137 40.3358 41.3283 40.3534 41.2237C40.5153 40.9374 40.7516 40.8462 41.0751 40.9039C41.1202 40.9137 41.1437 40.9293 41.1814 40.9442C41.2601 41.0529 41.3244 41.1621 41.3947 41.2985C41.4007 41.3257 41.4103 41.3474 41.4103 41.3474C41.4076 41.3854 41.4049 41.4234 41.4046 41.4803Z" fill="#F0F9FA"/>
<path d="M40.2802 41.4973C40.3347 41.5555 40.3684 41.612 40.408 41.6855C39.6342 41.7926 38.8935 41.9603 38.375 42.6314C38.2754 42.7603 38.1182 42.8449 37.97 42.9489C37.9537 42.8909 37.9536 42.8338 37.9566 42.7769C37.9613 42.6853 37.9681 42.5937 37.9783 42.4373C38.2677 42.2347 38.5986 41.9276 38.9889 41.7515C39.3774 41.5763 39.7936 41.3636 40.2802 41.4973Z" fill="#1A71B6"/>
<path d="M41.418 41.3454C41.4108 41.3503 41.4003 41.3268 41.4034 41.3143C41.4269 41.3091 41.4331 41.322 41.418 41.3454Z" fill="#1763A0"/>
</g>
<defs>
<clipPath id="clip0_3847_2550">
<rect width="64" height="64" fill="white"/>
</clipPath>
</defs>
</svg>
