<svg width="144" height="40" viewBox="0 0 144 40" fill="none" xmlns="http://www.w3.org/2000/svg">
<g clip-path="url(#clip0_3717_725)">
<path d="M141.724 3.50618L96.4329 0.322911C95.6067 0.26657 94.8183 0.689127 94.4122 1.40747C94.0062 2.12582 94.0534 3.01319 94.535 3.68459L119.714 38.8226C120.233 39.5503 121.158 39.8743 122.022 39.6442H122.027C122.896 39.4048 123.519 38.6536 123.595 37.7615L125.153 18.4976L142.721 7.43596C143.504 6.94298 143.877 6.00865 143.651 5.11659C143.424 4.21513 142.645 3.57191 141.724 3.50618Z" fill="#00EC97"/>
<path d="M27.7708 9.10741C26.5433 9.10741 25.651 9.39381 24.8955 10.0605L23.5594 11.2155C23.4461 11.3047 23.2242 11.3704 23.0684 11.239C22.9126 11.1075 22.889 10.9291 23.0259 10.7507L23.7388 9.6849C23.8521 9.52996 23.7624 9.32808 23.5594 9.32808H21.8409C21.6426 9.32808 21.482 9.48301 21.482 9.6849V20.061C21.482 20.2582 21.6378 20.4179 21.8409 20.4179H23.6255C23.8238 20.4179 23.9843 20.2629 23.9843 20.061V14.2063C23.9843 11.5254 26.2364 11.1028 27.0815 11.1028C28.8851 11.1028 29.5319 12.3893 29.5319 13.3658V20.061C29.5319 20.2582 29.6877 20.4179 29.8907 20.4179H31.6754C31.8736 20.4179 32.0342 20.2629 32.0342 20.061V13.1452C32.0295 10.6615 30.4006 9.10741 27.7708 9.10741ZM39.2956 9.06515C35.8396 9.06515 33.6347 11.1732 33.6347 14.0325V15.6054C33.6347 18.6196 35.8396 20.6808 39.2956 20.6808C42.3502 20.6808 44.489 19.1079 44.7109 16.9764C44.7345 16.7557 44.5787 16.6008 44.3521 16.6008H42.6146C42.4588 16.6008 42.3266 16.69 42.2794 16.8449C42.0575 17.5539 41.0094 18.6196 39.2908 18.6196C37.5723 18.6196 35.967 17.3801 35.9906 15.6054L36.0142 13.6335C36.0378 12.1498 37.5959 11.1263 39.2908 11.1263C40.83 11.1263 42.3219 11.9902 42.4777 13.4081C42.4919 13.5724 42.3786 13.718 42.2133 13.7508L37.2135 14.7133C37.0152 14.7556 36.8546 14.934 36.8546 15.1547V15.1781C36.8546 15.3753 37.0529 15.5538 37.3456 15.5538H44.5268C44.7251 15.5538 44.8856 15.3941 44.8856 15.1969V13.8025C44.8903 11.1685 42.5957 9.06515 39.2956 9.06515ZM51.7362 9.06515C48.9506 9.06515 46.5428 10.685 46.5428 12.8118C46.5428 12.9902 46.6986 13.1217 46.9016 13.1217H48.7051C48.8845 13.1217 49.0167 12.9902 49.0403 12.8118C49.2197 11.8352 50.4001 11.1263 51.6701 11.1263C53.1856 11.1263 54.2102 12.0559 54.2102 13.6522V15.5819C54.2102 17.5539 52.7371 18.5539 50.91 18.5539C49.4841 18.5539 48.6579 18.0234 48.6579 17.1548C48.6579 16.3989 49.0592 15.7556 50.707 15.38L53.0912 14.7368C53.3367 14.6711 53.4264 14.4692 53.3792 14.2485C53.3556 14.0701 53.1573 13.9809 52.9779 13.9809H50.5039C48.4077 13.9809 46.2925 15.3096 46.2925 17.2628V17.5726C46.2925 19.568 48.1858 20.6104 50.3481 20.6104C51.7315 20.6104 52.9118 20.0798 53.6483 19.4554L54.739 18.5257C54.9184 18.3708 55.0978 18.3708 55.2536 18.5257C55.3858 18.6572 55.3433 18.8591 55.23 19.014L54.5595 20.0563C54.4462 20.2113 54.5359 20.4132 54.739 20.4132H56.3442C56.5425 20.4132 56.703 20.2582 56.703 20.0563V13.3424C56.7077 10.7695 54.857 9.06515 51.7362 9.06515ZM66.3392 9.32808H63.8416C62.9729 9.32808 62.1231 9.85862 61.5235 10.3704L60.5415 11.2108C60.4281 11.3 60.2298 11.3657 60.0976 11.2531C59.9418 11.1404 59.8757 10.9197 60.0079 10.7413L60.7209 9.67551C60.8342 9.52057 60.7445 9.31869 60.5415 9.31869H58.8701C58.6718 9.31869 58.5113 9.47362 58.5113 9.67551V20.0516C58.5113 20.2488 58.6671 20.4085 58.8701 20.4085H60.6973C60.8955 20.4085 61.0561 20.2535 61.0561 20.0516V14.7415C61.0561 12.4597 61.9909 11.4362 64.0211 11.4362H66.3392C66.5375 11.4362 66.698 11.2812 66.698 11.0793V9.68021C66.698 9.48771 66.5375 9.32808 66.3392 9.32808ZM14.7825 6.83029C14.1829 6.83029 13.6258 7.14017 13.3142 7.64724L9.93371 12.6381C9.88123 12.7174 9.86221 12.814 9.88076 12.9071C9.89931 13.0003 9.95394 13.0824 10.0329 13.1358C10.1651 13.225 10.3445 13.2156 10.4672 13.1076L13.7957 10.2389C13.8524 10.1873 13.9374 10.1967 13.9846 10.2483C14.0082 10.2718 14.0176 10.3047 14.0176 10.3375V19.3239C14.0176 19.399 13.9563 19.4601 13.8807 19.4601C13.843 19.4601 13.8052 19.4413 13.7769 19.4131L3.72047 7.43596C3.3947 7.05096 2.91312 6.83029 2.40322 6.83029H2.05385C1.10014 6.83029 0.330566 7.59559 0.330566 8.544V21.2019C0.330566 22.1503 1.10014 22.9156 2.05385 22.9156C2.65345 22.9156 3.21057 22.6058 3.52217 22.0987L6.90263 17.1078C6.95512 17.0285 6.97414 16.9319 6.95559 16.8388C6.93704 16.7457 6.88241 16.6635 6.80348 16.6101C6.67129 16.5209 6.49188 16.5303 6.36912 16.6383L3.0406 19.507C2.98394 19.5587 2.89896 19.5493 2.85175 19.4976C2.82814 19.4741 2.8187 19.4413 2.8187 19.4084V10.4173C2.8187 10.3422 2.88007 10.2812 2.95562 10.2812C2.99339 10.2812 3.03116 10.3 3.05948 10.3281L13.1206 22.3053C13.4464 22.6903 13.9279 22.9109 14.4378 22.9109H14.7872C15.7409 22.9109 16.5105 22.1456 16.5105 21.1972V8.544C16.5058 7.59559 15.7362 6.83029 14.7825 6.83029ZM72.7933 9.06985C76.0982 9.06985 77.5948 11.084 77.7365 12.8212V13.1452H75.9424C75.8338 11.9902 75.0028 10.6427 72.8357 10.6427C70.6026 10.6427 69.1815 12.1216 69.1815 14.873C69.1815 17.6149 70.5931 19.0938 72.8357 19.0938C75.0359 19.0938 75.8196 17.7651 75.966 16.5256H77.7695V16.8496C77.5948 18.6572 76.1312 20.6667 72.7933 20.6667C69.4458 20.6667 67.2504 18.6243 67.2504 14.8683C67.2504 11.1122 69.46 9.06985 72.7933 9.06985ZM84.4266 9.06985C87.807 9.06985 90.1016 11.1357 90.1016 14.8777C90.1016 18.6103 87.807 20.6761 84.4266 20.6761C81.0367 20.6761 78.7515 18.6103 78.7515 14.8777C78.7515 11.1357 81.0367 9.06985 84.4266 9.06985ZM84.4266 19.1079C86.6456 19.1079 88.147 17.6196 88.147 14.8777C88.147 12.1263 86.6503 10.6474 84.4266 10.6474C82.1934 10.6474 80.6967 12.1263 80.6967 14.8777C80.6967 17.6149 82.1934 19.1079 84.4266 19.1079ZM93.5009 9.32808V10.7507H93.6756C94.4735 9.54405 95.8191 9.07454 97.4055 9.07454C99.9975 9.07454 101.617 10.3798 101.617 13.0888V20.4085H99.6906V13.2719C99.6906 11.4643 98.7085 10.6709 96.9664 10.6709C95.0637 10.6709 93.5529 11.793 93.5529 14.2157V20.4038H91.6266V9.32338H93.5009V9.32808ZM117.735 22.6574H106.286V20.7465L112.183 15.427C113.821 13.934 114.822 12.9433 114.822 11.4596C114.822 10.0276 113.845 9.20131 112.145 9.20131C110.252 9.20131 109.19 10.1356 109.147 11.8352L109.143 11.9573H106.461V11.516C106.546 8.6332 108.737 6.84438 112.174 6.84438C115.578 6.84438 117.608 8.52522 117.608 11.3376C117.608 14.056 115.842 15.5584 113.609 17.4647L113.491 17.5632L110.351 20.3099H117.721V22.6574H117.735ZM106.536 22.4086H117.485V20.5493H109.704L113.458 17.2675C115.644 15.4035 117.367 13.934 117.367 11.3282C117.367 8.67076 115.427 7.08383 112.178 7.08383C108.836 7.08383 106.796 8.74119 106.716 11.5113V11.7038H108.907C108.996 9.95252 110.172 8.95247 112.145 8.95247C113.977 8.95247 115.068 9.88679 115.068 11.4549C115.068 13.0137 114.039 14.0607 112.344 15.6054L106.527 20.8498V22.4086H106.536ZM122.915 14.9199L121.97 14.7932L121.843 13.8541C121.829 13.7461 121.673 13.7461 121.659 13.8541L121.531 14.7932L120.587 14.9199C120.479 14.934 120.479 15.0889 120.587 15.103L121.531 15.2298L121.659 16.1688C121.673 16.2768 121.829 16.2768 121.843 16.1688L121.97 15.2298L122.915 15.103C123.023 15.0889 123.023 14.934 122.915 14.9199ZM105.625 7.35145L104.454 11.4268C104.412 11.5864 104.266 11.6991 104.096 11.6991C103.893 11.6991 103.723 11.5348 103.723 11.3329V7.35145H105.625ZM105.956 7.10261H103.472V11.3329C103.472 11.6756 103.751 11.9479 104.096 11.9479C104.374 11.9479 104.62 11.7601 104.695 11.4925L105.866 7.41718L105.956 7.10261ZM123.85 14.8636H123.495V15.1124H123.85C125.795 15.1124 126.966 15.8495 127.206 17.2064L127.433 17.0656C127.126 15.6524 125.861 14.8636 123.85 14.8636ZM121.673 13.1217V13.2391H121.923L126.791 9.2107H118.987V7.35145H129.704V8.98533L124.407 13.3424H124.978C127.15 13.3424 128.717 14.2626 129.378 15.8355L129.595 15.6993C128.901 14.0842 127.306 13.1311 125.096 13.0982L129.954 9.10271V7.10261H118.741V9.45484H126.111L121.673 13.1217ZM124.799 22.8875L124.817 22.6386C124.6 22.6527 124.378 22.6621 124.147 22.6621C120.757 22.6621 118.458 20.8686 118.425 18.2065V18.0093H120.578C120.696 19.7136 122.07 20.8029 124.114 20.8029C124.416 20.8029 124.704 20.7794 124.968 20.7324L124.987 20.4742C124.718 20.5258 124.421 20.554 124.109 20.554C122.159 20.554 120.866 19.5023 120.814 17.8778L120.809 17.7604H118.17V18.2065C118.203 21.0188 120.601 22.9109 124.138 22.9109C124.369 22.9109 124.586 22.9016 124.799 22.8875Z" fill="black"/>
</g>
<defs>
<clipPath id="clip0_3717_725">
<rect width="144" height="40" fill="white"/>
</clipPath>
</defs>
</svg>
