<?xml version="1.0" encoding="utf-8"?>
<!-- Generator: Adobe Illustrator 25.4.1, SVG Export Plug-In . SVG Version: 6.00 Build 0)  -->
<svg width="auto" height="32" version="1.1" id="Layer_1" xmlns="http://www.w3.org/2000/svg" xmlns:xlink="http://www.w3.org/1999/xlink" x="0px" y="0px"
	 viewBox="0 0 1250 850" style="enable-background:new 0 0 1250 850;" xml:space="preserve">
<style type="text/css">
	.st0{fill:#00EC97;}
	.st1{fill:none;}
	.st2{clip-path:url(#SVGID_00000152242867573179474700000014937767252656745114_);}
</style>
<g>
	<path class="st0" d="M1203.3,72.9L244,5.1c-17.5-1.2-34.2,7.8-42.8,23.1c-8.6,15.3-7.6,34.2,2.6,48.5l533.3,748.4
		c11,15.5,30.6,22.4,48.9,17.5c0,0,0.1,0,0.1,0c18.4-5.1,31.6-21.1,33.2-40.1l33-410.3l372.1-235.6c16.6-10.5,24.5-30.4,19.7-49.4
		C1239.3,88.1,1222.8,74.3,1203.3,72.9z"/>
	<g>
		<g>
			<path d="M695.2,480.8H452.7v-40.7l124.9-113.3c34.7-31.8,55.9-52.9,55.9-84.5c0-30.5-20.7-48.1-56.7-48.1
				c-40.1,0-62.6,19.9-63.5,56.1l-0.1,2.6h-56.8v-9.4c1.8-61.4,48.2-99.5,121-99.5c72.1,0,115.1,35.8,115.1,95.7
				c0,57.9-37.4,89.9-84.7,130.5l-2.5,2.1l-66.5,58.5h156.1V480.8z M458,475.5H690V436H525.1l79.5-69.9
				c46.3-39.7,82.8-71,82.8-126.5c0-56.6-41.1-90.4-109.9-90.4c-70.8,0-114,35.3-115.7,94.3l0,4.1h46.4
				c1.9-37.3,26.8-58.6,68.6-58.6c38.8,0,61.9,19.9,61.9,53.3c0,33.2-21.8,55.5-57.7,88.4L458,442.4V475.5z"/>
		</g>
	</g>
	<path d="M804.9,316l-20-2.7l-2.7-20c-0.3-2.3-3.6-2.3-3.9,0l-2.7,20l-20,2.7c-2.3,0.3-2.3,3.6,0,3.9l20,2.7l2.7,20
		c0.3,2.3,3.6,2.3,3.9,0l2.7-20l20-2.7C807.2,319.6,807.2,316.3,804.9,316z M780.3,318L780.3,318L780.3,318L780.3,318L780.3,318z"/>
	<path d="M438.7,154.9l-24.8,86.8c-0.9,3.4-4,5.8-7.6,5.8c0,0,0,0,0,0c-4.3,0-7.9-3.5-7.9-7.8v-84.8H438.7 M445.7,149.6h-7h-40.3
		h-5.3v5.3v84.8c0,7.3,5.9,13.1,13.2,13.1c5.9,0,11.1-4,12.7-9.7l24.8-86.8L445.7,149.6L445.7,149.6z"/>
	<path class="st1" d="M1203.3,72.9L244,5.1c-17.5-1.2-34.2,7.8-42.8,23.1c-8.6,15.3-7.6,34.2,2.6,48.5l533.3,748.4
		c11,15.5,30.6,22.4,48.9,17.5c0,0,0.1,0,0.1,0c18.4-5.1,31.6-21.1,33.2-40.1l33-410.3l372.1-235.6c16.6-10.5,24.5-30.4,19.7-49.4
		C1239.3,88.1,1222.8,74.3,1203.3,72.9z"/>
	<path d="M310.6,143.7c-12.7,0-24.5,6.6-31.1,17.4l-71.6,106.3c-2.3,3.5-1.4,8.2,2.1,10.6c2.8,1.9,6.6,1.7,9.2-0.6l70.5-61.1
		c1.2-1.1,3-0.9,4,0.2c0.5,0.5,0.7,1.2,0.7,1.9v191.4c0,1.6-1.3,2.9-2.9,2.9c-0.8,0-1.6-0.4-2.2-1L76.3,156.7
		c-6.9-8.2-17.1-12.9-27.9-12.9H41c-20.2,0-36.5,16.3-36.5,36.5v269.6c0,20.2,16.3,36.5,36.5,36.5c12.7,0,24.5-6.6,31.1-17.4
		l71.6-106.3c2.3-3.5,1.4-8.2-2.1-10.6c-2.8-1.9-6.6-1.7-9.2,0.6l-70.5,61.1c-1.2,1.1-3,0.9-4-0.2c-0.5-0.5-0.7-1.2-0.7-1.9V220.1
		c0-1.6,1.3-2.9,2.9-2.9c0.8,0,1.6,0.4,2.2,1l213.1,255.1c6.9,8.2,17.1,12.9,27.9,12.9h7.4c20.2,0,36.5-16.3,36.5-36.5V180.2
		C347.1,160.1,330.8,143.7,310.6,143.7z"/>
	<g>
		<defs>
			<path id="SVGID_1_" d="M1203.3,72.9L244,5.1c-17.5-1.2-34.2,7.8-42.8,23.1c-8.6,15.3-7.6,34.2,2.6,48.5l533.3,748.4
				c11,15.5,30.6,22.4,48.9,17.5c0,0,0.1,0,0.1,0c18.4-5.1,31.6-21.1,33.2-40.1l33-410.3l372.1-235.6c16.6-10.5,24.5-30.4,19.7-49.4
				C1239.3,88.1,1222.8,74.3,1203.3,72.9z"/>
		</defs>
		<clipPath id="SVGID_00000137118964471219586120000008928236493434554512_">
			<use xlink:href="#SVGID_1_"  style="overflow:visible;"/>
		</clipPath>
		<g style="clip-path:url(#SVGID_00000137118964471219586120000008928236493434554512_);">
			<path d="M851,277.3l102.9-85.1v-42.6H716.3v50.1h156.1l-93.8,78.1v2.5h5.3l103.1-85.8H721.6v-39.6h227v34.8l-112.2,92.8h12.1
				c62.2,0,100.8,35.7,100.8,93.1C949,441.6,904.8,481,831,481c-71.8,0-120.5-38.2-121.2-94.9v-4.2h45.6
				c2.5,36.3,31.6,59.5,74.9,59.5c44.6,0,71.4-24.3,71.7-65.1c0-39.1-28.2-61.5-77.3-61.5h-7.5v5.3h7.5c46.5,0,72.1,20,72.1,56.2
				c-0.2,37.5-25,59.9-66.4,59.9c-41.3,0-68.7-22.4-69.8-57l-0.1-2.5h-55.9v9.5c0.7,59.9,51.5,100.2,126.4,100.2
				c77.1,0,123.3-41.3,123.5-110.6C954.5,315.7,914.9,278.2,851,277.3z"/>
		</g>
	</g>
</g>
</svg>
