<svg width="53" height="15" viewBox="0 0 53 15" fill="none" xmlns="http://www.w3.org/2000/svg">
<mask id="mask0_3601_2236" style="mask-type:luminance" maskUnits="userSpaceOnUse" x="0" y="0" width="53" height="15">
<path d="M52.5367 0.149994H0.706665V14.85H52.5367V0.149994Z" fill="white"/>
</mask>
<g mask="url(#mask0_3601_2236)">
<path d="M15.2721 0.149994V4.89246L5.39078 14.7966H0.706665V10.0906L5.90234 4.86235H0.706665V0.149994H15.2721Z" fill="white"/>
<path d="M15.2716 10.0845H10.5854V14.7968H15.2716V10.0845Z" fill="white"/>
<path d="M22.6792 0.149994V11.8764H25.5382V14.8101H17.9785V0.149994H22.6792Z" fill="white"/>
<path d="M31.4784 0.149994V14.8101H26.6188V0.149994H31.4784Z" fill="white"/>
<path d="M43.8968 0.151048L41.682 14.8101H35.0697L32.5577 0.151048H37.147C37.6794 4.18926 38.0602 7.60583 38.2892 10.4005C38.5141 7.5757 38.7525 5.06798 39.0049 2.87733L39.3076 0.149994L43.8968 0.151048Z" fill="white"/>
<path d="M49.3393 3.08546V5.86408H52.0624V8.65468H49.3393V11.8777H52.5377V14.8101H44.9783V0.149994H52.5377V3.07654H52.2469V3.08546H49.3393Z" fill="white"/>
</g>
</svg>
